Nobile-BoldItalic.ufo
<glyph name="exclam" format="1">
  <advance width="679"/>
  <unicode hex="0021"/>
  <outline>
    <contour>
      <point x="676" y="1603" type="line"/>
      <point x="412" y="546" type="line"/>
      <point x="223" y="546" type="line"/>
      <point x="235" y="1603" type="line"/>
    </contour>
    <contour>
      <point x="458" y="-1" type="line"/>
      <point x="60" y="-1" type="line"/>
      <point x="119" y="421" type="line"/>
      <point x="518" y="421" type="line"/>
    </contour>
  </outline>
</glyph>
<glyph name="quotedbl" format="1">
  <advance width="954"/>
  <unicode hex="0022"/>
  <outline>
    <contour>
      <point x="213" y="1605" type="line"/>
      <point x="578" y="1605" type="line"/>
      <point x="389" y="809" type="line"/>
      <point x="206" y="809" type="line"/>
    </contour>
    <contour>
      <point x="643" y="1605" type="line"/>
      <point x="1009" y="1605" type="line"/>
      <point x="820" y="809" type="line"/>
      <point x="670" y="809" type="line"/>
    </contour>
  </outline>
</glyph>
<glyph name="percent" format="1">
  <advance width="1844"/>
  <unicode hex="0025"/>
  <outline>
    <contour>
      <point x="1232" y="335" type="curve" smooth="yes"/>
      <point x="1232" y="238"/>
      <point x="1265" y="183"/>
      <point x="1355" y="183" type="curve" smooth="yes"/>
      <point x="1516" y="183"/>
      <point x="1545" y="351"/>
      <point x="1545" y="514" type="curve" smooth="yes"/>
      <point x="1545" y="609"/>
      <point x="1510" y="663"/>
      <point x="1415" y="663" type="curve" smooth="yes"/>
      <point x="1260" y="663"/>
      <point x="1232" y="488"/>
    </contour>
    <contour>
      <point x="349" y="1085" type="curve" smooth="yes"/>
      <point x="349" y="985"/>
      <point x="385" y="928"/>
      <point x="477" y="928" type="curve" smooth="yes"/>
      <point x="611" y="928"/>
      <point x="660" y="1059"/>
      <point x="660" y="1196" type="curve" smooth="yes"/>
      <point x="660" y="1311"/>
      <point x="646" y="1414"/>
      <point x="531" y="1414" type="curve" smooth="yes"/>
      <point x="381" y="1414"/>
      <point x="349" y="1260"/>
    </contour>
    <contour>
      <point x="398" y="-11" type="line"/>
      <point x="1299" y="1702" type="line"/>
      <point x="1481" y="1606" type="line"/>
      <point x="581" y="-107" type="line"/>
    </contour>
    <contour>
      <point x="1429" y="860" type="curve" smooth="yes"/>
      <point x="1639" y="860"/>
      <point x="1746" y="734"/>
      <point x="1746" y="527" type="curve" smooth="yes"/>
      <point x="1746" y="245.189"/>
      <point x="1636.43" y="-23"/>
      <point x="1356" y="-23" type="curve" smooth="yes"/>
      <point x="1135" y="-23"/>
      <point x="1006" y="101"/>
      <point x="1006" y="317" type="curve" smooth="yes"/>
      <point x="1006" y="613.107"/>
      <point x="1131.57" y="860"/>
    </contour>
    <contour>
      <point x="544" y="1608" type="curve" smooth="yes"/>
      <point x="761" y="1608"/>
      <point x="882" y="1483"/>
      <point x="882" y="1269" type="curve" smooth="yes"/>
      <point x="882" y="975.816"/>
      <point x="751.543" y="729"/>
      <point x="457" y="729" type="curve" smooth="yes"/>
      <point x="247" y="729"/>
      <point x="138" y="866"/>
      <point x="138" y="1071" type="curve" smooth="yes"/>
      <point x="138" y="1353.7"/>
      <point x="260.093" y="1608"/>
    </contour>
  </outline>
</glyph>
<glyph name="quotesingle" format="1">
  <advance width="510"/>
  <unicode hex="0027"/>
  <outline>
    <contour>
      <point x="210" y="1604" type="line"/>
      <point x="578" y="1604" type="line"/>
      <point x="358" y="806" type="line"/>
      <point x="210" y="806" type="line"/>
    </contour>
  </outline>
</glyph>
<glyph name="parenleft" format="1">
  <advance width="684"/>
  <unicode hex="0028"/>
  <outline>
    <contour>
      <point x="353" y="495" type="curve" smooth="yes"/>
      <point x="353" y="239"/>
      <point x="424" y="38"/>
      <point x="541" y="-97" type="curve"/>
      <point x="367" y="-300" type="line"/>
      <point x="183.381" y="-134.484"/>
      <point x="63" y="131.236"/>
      <point x="63" y="476" type="curve" smooth="yes"/>
      <point x="63" y="1030.71"/>
      <point x="320.615" y="1462.88"/>
      <point x="645" y="1702" type="curve"/>
      <point x="761" y="1497" type="line"/>
      <point x="526.748" y="1289.63"/>
      <point x="353" y="930.224"/>
    </contour>
  </outline>
</glyph>
<glyph name="parenright" format="1">
  <advance width="683"/>
  <unicode hex="0029"/>
  <outline>
    <contour>
      <point x="326" y="1702" type="line"/>
      <point x="509" y="1532"/>
      <point x="630" y="1274"/>
      <point x="630" y="924" type="curve" smooth="yes"/>
      <point x="630" y="369.295"/>
      <point x="371.494" y="-60.8018"/>
      <point x="47" y="-300" type="curve"/>
      <point x="-68" y="-97" type="line"/>
      <point x="166.543" y="111.062"/>
      <point x="340" y="471.649"/>
      <point x="340" y="906" type="curve" smooth="yes"/>
      <point x="340" y="1162"/>
      <point x="269" y="1358"/>
      <point x="153" y="1497" type="curve"/>
    </contour>
  </outline>
</glyph>
<glyph name="asterisk" format="1">
  <advance width="988"/>
  <unicode hex="002A"/>
  <outline>
    <contour>
      <point x="605" y="1419" type="line"/>
      <point x="754" y="1661" type="line"/>
      <point x="914" y="1554" type="line"/>
      <point x="744" y="1306" type="line"/>
      <point x="1007" y="1306" type="line"/>
      <point x="981" y="1118" type="line"/>
      <point x="723" y="1118" type="line"/>
      <point x="831" y="871" type="line"/>
      <point x="640" y="766" type="line"/>
      <point x="547" y="1012" type="line"/>
      <point x="385" y="766" type="line"/>
      <point x="225" y="871" type="line"/>
      <point x="404" y="1119" type="line"/>
      <point x="145" y="1119" type="line"/>
      <point x="173" y="1307" type="line"/>
      <point x="435" y="1307" type="line"/>
      <point x="336" y="1554" type="line"/>
      <point x="526" y="1660" type="line"/>
    </contour>
  </outline>
</glyph>
<glyph name="plus" format="1">
  <advance width="956"/>
  <unicode hex="002B"/>
  <outline>
    <contour>
      <point x="844" y="473" type="line"/>
      <point x="577" y="473" type="line"/>
      <point x="533" y="159" type="line"/>
      <point x="273" y="159" type="line"/>
      <point x="318" y="473" type="line"/>
      <point x="52" y="473" type="line"/>
      <point x="87" y="718" type="line"/>
      <point x="352" y="718" type="line"/>
      <point x="397" y="1032" type="line"/>
      <point x="655" y="1032" type="line"/>
      <point x="611" y="718" type="line"/>
      <point x="879" y="718" type="line"/>
    </contour>
  </outline>
</glyph>
<glyph name="comma" format="1">
  <advance width="656"/>
  <unicode hex="002C"/>
  <outline>
    <contour>
      <point x="28" y="-1" type="line"/>
      <point x="87" y="421" type="line"/>
      <point x="487" y="421" type="line"/>
      <point x="426" y="1" type="line"/>
      <point x="400" y="-186"/>
      <point x="288" y="-302"/>
      <point x="123" y="-345" type="curve"/>
      <point x="47" y="-224" type="line"/>
      <point x="107.008" y="-202.569"/>
      <point x="203.244" y="-74.1731"/>
      <point x="213" y="-1" type="curve"/>
    </contour>
  </outline>
</glyph>
<glyph name="hyphen" format="1">
  <advance width="1059"/>
  <unicode hex="002D"/>
  <outline>
    <contour>
      <point x="921" y="605" type="line"/>
      <point x="120" y="605" type="line"/>
      <point x="151" y="831" type="line"/>
      <point x="954" y="831" type="line"/>
    </contour>
  </outline>
</glyph>
<glyph name="period" format="1">
  <advance width="654"/>
  <unicode hex="002E"/>
  <outline>
    <contour>
      <point x="426" y="1" type="line"/>
      <point x="28" y="-1" type="line"/>
      <point x="87" y="421" type="line"/>
      <point x="487" y="421" type="line"/>
    </contour>
  </outline>
</glyph>
<glyph name="slash" format="1">
  <advance width="907"/>
  <unicode hex="002F"/>
  <outline>
    <contour>
      <point x="-66" y="-72" type="line"/>
      <point x="774" y="1747" type="line"/>
      <point x="1006" y="1641" type="line"/>
      <point x="162" y="-190" type="line"/>
    </contour>
  </outline>
</glyph>
<glyph name="one" format="1">
  <advance width="752"/>
  <unicode hex="0031"/>
  <outline>
    <contour>
      <point x="193" y="0" type="line"/>
      <point x="326" y="937" type="line"/>
      <point x="162" y="880" type="line"/>
      <point x="110" y="1110" type="line"/>
      <point x="363" y="1203" type="line"/>
      <point x="659" y="1203" type="line"/>
      <point x="491" y="0" type="line"/>
    </contour>
  </outline>
</glyph>
<glyph name="five" format="1">
  <advance width="1075"/>
  <unicode hex="0035"/>
  <outline>
    <contour>
      <point x="473" y="499" type="curve" smooth="yes"/>
      <point x="378" y="499"/>
      <point x="296" y="459"/>
      <point x="220" y="419" type="curve"/>
      <point x="107" y="541" type="line"/>
      <point x="209" y="1190" type="line"/>
      <point x="965" y="1190" type="line"/>
      <point x="931" y="950" type="line"/>
      <point x="429" y="950" type="line"/>
      <point x="382" y="687" type="line"/>
      <point x="400.349" y="723.699"/>
      <point x="499.124" y="740.27"/>
      <point x="548.406" y="740.27" type="curve" smooth="yes"/>
      <point x="781.876" y="740.27"/>
      <point x="939" y="575.859"/>
      <point x="939" y="342" type="curve" smooth="yes"/>
      <point x="939" y="10.9386"/>
      <point x="701.368" y="-188"/>
      <point x="370" y="-188" type="curve" smooth="yes"/>
      <point x="253" y="-188"/>
      <point x="129" y="-157"/>
      <point x="-2" y="-96" type="curve"/>
      <point x="88" y="153" type="line"/>
      <point x="159.108" y="114.812"/>
      <point x="259.181" y="67"/>
      <point x="366" y="67" type="curve" smooth="yes"/>
      <point x="556" y="67"/>
      <point x="656" y="135"/>
      <point x="656" y="326" type="curve" smooth="yes"/>
      <point x="656" y="441"/>
      <point x="589" y="499"/>
    </contour>
  </outline>
</glyph>
<glyph name="six" format="1">
  <advance width="1155"/>
  <unicode hex="0036"/>
  <outline>
    <contour>
      <point x="754" y="433" type="curve" smooth="yes"/>
      <point x="754" y="541"/>
      <point x="694" y="616"/>
      <point x="586" y="616" type="curve" smooth="yes"/>
      <point x="500" y="616"/>
      <point x="430" y="594"/>
      <point x="377" y="562" type="curve"/>
      <point x="354.231" y="493.694"/>
      <point x="339" y="415.957"/>
      <point x="339" y="322" type="curve" smooth="yes"/>
      <point x="339" y="184"/>
      <point x="397" y="98"/>
      <point x="529" y="98" type="curve" smooth="yes"/>
      <point x="701" y="98"/>
      <point x="754" y="263"/>
    </contour>
    <contour>
      <point x="1035" y="420" type="curve" smooth="yes"/>
      <point x="1035" y="92.1224"/>
      <point x="834.812" y="-154"/>
      <point x="504" y="-154" type="curve" smooth="yes"/>
      <point x="213.219" y="-154"/>
      <point x="44" y="47.8074"/>
      <point x="44" y="338" type="curve" smooth="yes"/>
      <point x="44" y="894.976"/>
      <point x="436.156" y="1214.19"/>
      <point x="875" y="1332" type="curve"/>
      <point x="919" y="1075" type="line"/>
      <point x="726" y="1034"/>
      <point x="563" y="928"/>
      <point x="466" y="789" type="curve"/>
      <point x="496.752" y="819.752"/>
      <point x="585.449" y="834"/>
      <point x="645" y="834" type="curve" smooth="yes"/>
      <point x="892.734" y="834"/>
      <point x="1035" y="667.075"/>
    </contour>
  </outline>
</glyph>
<glyph name="seven" format="1">
  <advance width="1008"/>
  <unicode hex="0037"/>
  <outline>
    <contour>
      <point x="963" y="1190" type="line"/>
      <point x="1019" y="1013" type="line"/>
      <point x="361" y="-221" type="line"/>
      <point x="114" y="-88" type="line"/>
      <point x="657" y="938" type="line"/>
      <point x="138" y="938" type="line"/>
      <point x="132" y="1190" type="line"/>
    </contour>
  </outline>
</glyph>
<glyph name="colon" format="1">
  <advance width="687"/>
  <unicode hex="003A"/>
  <outline>
    <contour>
      <point x="156" y="737" type="line"/>
      <point x="215" y="1159" type="line"/>
      <point x="598" y="1159" type="line"/>
      <point x="538" y="737" type="line"/>
    </contour>
    <contour>
      <point x="70" y="0" type="line"/>
      <point x="129" y="423" type="line"/>
      <point x="512" y="423" type="line"/>
      <point x="453" y="0" type="line"/>
    </contour>
  </outline>
</glyph>
<glyph name="less" format="1">
  <advance width="930"/>
  <unicode hex="003C"/>
  <outline>
    <contour>
      <point x="836" y="877" type="line"/>
      <point x="310" y="590" type="line"/>
      <point x="754" y="291" type="line"/>
      <point x="708" y="-37" type="line"/>
      <point x="34" y="464" type="line"/>
      <point x="68" y="706" type="line"/>
      <point x="883" y="1206" type="line"/>
    </contour>
  </outline>
</glyph>
<glyph name="equal" format="1">
  <advance width="1076"/>
  <unicode hex="003D"/>
  <outline>
    <contour>
      <point x="876" y="271" type="line"/>
      <point x="81" y="271" type="line"/>
      <point x="117" y="525" type="line"/>
      <point x="912" y="525" type="line"/>
    </contour>
    <contour>
      <point x="925" y="600" type="line"/>
      <point x="130" y="600" type="line"/>
      <point x="166" y="855" type="line"/>
      <point x="961" y="855" type="line"/>
    </contour>
  </outline>
</glyph>
<glyph name="greater" format="1">
  <advance width="935"/>
  <unicode hex="003E"/>
  <outline>
    <contour>
      <point x="158" y="896" type="line"/>
      <point x="194" y="1206" type="line"/>
      <point x="868" y="706" type="line"/>
      <point x="845" y="484" type="line"/>
      <point x="29" y="-17" type="line"/>
      <point x="76" y="312" type="line"/>
      <point x="561" y="609" type="line"/>
    </contour>
  </outline>
</glyph>
<glyph name="at" format="1">
  <advance width="1726"/>
  <unicode hex="0040"/>
  <outline>
    <contour>
      <point x="663.693" y="677.49" type="curve" smooth="yes"/>
      <point x="663.693" y="581.892"/>
      <point x="687.529" y="498"/>
      <point x="785" y="498" type="curve" smooth="yes"/>
      <point x="959.865" y="498"/>
      <point x="1036.14" y="681.699"/>
      <point x="1076" y="819" type="curve" smooth="yes"/>
      <point x="1134" y="1019" type="line"/>
      <point x="1089" y="1034"/>
      <point x="1012" y="1038"/>
      <point x="957" y="1038" type="curve" smooth="yes"/>
      <point x="793.994" y="1038"/>
      <point x="663.693" y="859.005"/>
    </contour>
    <contour>
      <point x="325.497" y="626.221" type="curve" smooth="yes"/>
      <point x="325.497" y="306.932"/>
      <point x="520.799" y="168"/>
      <point x="840" y="168" type="curve" smooth="yes"/>
      <point x="951" y="168"/>
      <point x="1027" y="196"/>
      <point x="1101" y="232" type="curve"/>
      <point x="1109" y="172"/>
      <point x="1125" y="99"/>
      <point x="1133" y="39" type="curve"/>
      <point x="1043" y="-13"/>
      <point x="926" y="-47"/>
      <point x="783" y="-47" type="curve" smooth="yes"/>
      <point x="361.696" y="-47"/>
      <point x="77.5508" y="182.203"/>
      <point x="77.5508" y="601.019" type="curve" smooth="yes"/>
      <point x="77.5508" y="1162.17"/>
      <point x="458.41" y="1599"/>
      <point x="1021" y="1599" type="curve" smooth="yes"/>
      <point x="1426.91" y="1599"/>
      <point x="1690.87" y="1341.33"/>
      <point x="1690.87" y="935.93" type="curve" smooth="yes"/>
      <point x="1690.87" y="617.51"/>
      <point x="1515.88" y="318"/>
      <point x="1201" y="318" type="curve" smooth="yes"/>
      <point x="1109.35" y="318"/>
      <point x="1062.55" y="376.313"/>
      <point x="1062.55" y="470.962" type="curve" smooth="yes"/>
      <point x="1062.55" y="510.974"/>
      <point x="1068.89" y="545.711"/>
      <point x="1077" y="583" type="curve"/>
      <point x="1014" y="438"/>
      <point x="956" y="305"/>
      <point x="755" y="305" type="curve" smooth="yes"/>
      <point x="553.514" y="305"/>
      <point x="457.563" y="435.479"/>
      <point x="457.563" y="637.943" type="curve" smooth="yes"/>
      <point x="457.563" y="955.018"/>
      <point x="670.378" y="1213"/>
      <point x="977" y="1213" type="curve" smooth="yes"/>
      <point x="1132.12" y="1213"/>
      <point x="1318.68" y="1171.37"/>
      <point x="1318.68" y="1018.57" type="curve" smooth="yes"/>
      <point x="1318.68" y="1007.86"/>
      <point x="1318.07" y="996.385"/>
      <point x="1317" y="984" type="curve"/>
      <point x="1189" y="509" type="line"/>
      <point x="1371.29" y="545.651"/>
      <point x="1450.32" y="692.999"/>
      <point x="1450.32" y="908.878" type="curve" smooth="yes"/>
      <point x="1450.32" y="1219.22"/>
      <point x="1286.31" y="1374"/>
      <point x="977" y="1374" type="curve" smooth="yes"/>
      <point x="583.086" y="1374"/>
      <point x="325.497" y="1008.35"/>
    </contour>
  </outline>
</glyph>
<glyph name="A" format="1">
  <advance width="1332"/>
  <unicode hex="0041"/>
  <outline>
    <contour>
      <point x="749" y="1195" type="line"/>
      <point x="476" y="554" type="line"/>
      <point x="835" y="554" type="line"/>
    </contour>
    <contour>
      <point x="644" y="1606" type="line"/>
      <point x="959" y="1606" type="line"/>
      <point x="1241" y="0" type="line"/>
      <point x="925" y="0" type="line"/>
      <point x="866" y="397" type="line"/>
      <point x="417" y="397" type="line"/>
      <point x="240" y="0" type="line"/>
      <point x="-91" y="0" type="line"/>
    </contour>
  </outline>
</glyph>
<glyph name="B" format="1">
  <advance width="1384"/>
  <unicode hex="0042"/>
  <outline>
    <contour>
      <point x="1012.08" y="1190.33" type="curve" smooth="yes"/>
      <point x="1012.08" y="1341.86"/>
      <point x="869.784" y="1373"/>
      <point x="709" y="1373" type="curve" smooth="yes"/>
      <point x="574" y="1373" type="line"/>
      <point x="514" y="955" type="line"/>
      <point x="662" y="955" type="line" smooth="yes"/>
      <point x="854.665" y="955"/>
      <point x="1012.08" y="1004.84"/>
    </contour>
    <contour>
      <point x="980" y="540" type="curve"/>
      <point x="980" y="710"/>
      <point x="836" y="731"/>
      <point x="661" y="731" type="curve" smooth="yes"/>
      <point x="481" y="731" type="line"/>
      <point x="410" y="233" type="line"/>
      <point x="570" y="233" type="line" smooth="yes"/>
      <point x="815" y="233"/>
      <point x="977" y="299"/>
    </contour>
    <contour>
      <point x="1297.94" y="546.966" type="curve" smooth="yes"/>
      <point x="1297.94" y="142.425"/>
      <point x="930.661" y="0"/>
      <point x="512" y="0" type="curve" smooth="yes"/>
      <point x="58" y="0" type="line"/>
      <point x="297" y="1606" type="line"/>
      <point x="669" y="1606" type="line" smooth="yes"/>
      <point x="994.648" y="1606"/>
      <point x="1306.01" y="1550.81"/>
      <point x="1306.01" y="1236.45" type="curve" smooth="yes"/>
      <point x="1305.19" y="1008.85"/>
      <point x="1180.81" y="907.331"/>
      <point x="977" y="870" type="curve"/>
      <point x="1143.05" y="834.064"/>
      <point x="1297.94" y="744.963"/>
    </contour>
  </outline>
</glyph>
<glyph name="C" format="1">
  <advance width="1224"/>
  <unicode hex="0043"/>
  <outline>
    <contour>
      <point x="648" y="-38" type="curve" smooth="yes"/>
      <point x="275" y="-38"/>
      <point x="100" y="187"/>
      <point x="100" y="565" type="curve" smooth="yes"/>
      <point x="100" y="1150.53"/>
      <point x="314.682" y="1629"/>
      <point x="898" y="1629" type="curve" smooth="yes"/>
      <point x="1075.72" y="1629"/>
      <point x="1224" y="1569.84"/>
      <point x="1297" y="1522" type="curve"/>
      <point x="1191" y="1265" type="line"/>
      <point x="1103.62" y="1314.84"/>
      <point x="1025" y="1356"/>
      <point x="883" y="1356" type="curve" smooth="yes"/>
      <point x="539.738" y="1356"/>
      <point x="419" y="950.617"/>
      <point x="419" y="595" type="curve" smooth="yes"/>
      <point x="419" y="353"/>
      <point x="513" y="232"/>
      <point x="701" y="232" type="curve" smooth="yes"/>
      <point x="841" y="232"/>
      <point x="955" y="290"/>
      <point x="1042" y="341" type="curve"/>
      <point x="1097" y="94" type="line"/>
      <point x="993" y="12"/>
      <point x="835" y="-38"/>
    </contour>
  </outline>
</glyph>
<glyph name="D" format="1">
  <advance width="1466"/>
  <unicode hex="0044"/>
  <outline>
    <contour>
      <point x="1088" y="1007" type="curve" smooth="yes"/>
      <point x="1089" y="1217"/>
      <point x="1030" y="1373"/>
      <point x="835" y="1373" type="curve" smooth="yes"/>
      <point x="586" y="1373" type="line"/>
      <point x="413" y="230" type="line"/>
      <point x="645" y="230" type="line" smooth="yes"/>
      <point x="1003.68" y="230"/>
      <point x="1084.59" y="645.973"/>
    </contour>
    <contour>
      <point x="859" y="1606" type="line"/>
      <point x="1230" y="1612"/>
      <point x="1410" y="1398"/>
      <point x="1408" y="1024" type="curve"/>
      <point x="1403.01" y="461.894"/>
      <point x="1187.46" y="0"/>
      <point x="628" y="0" type="curve" smooth="yes"/>
      <point x="60" y="0" type="line"/>
      <point x="295" y="1606" type="line"/>
    </contour>
  </outline>
</glyph>
<glyph name="G" format="1">
  <advance width="1432"/>
  <unicode hex="0047"/>
  <outline>
    <contour>
      <point x="414" y="589" type="curve" smooth="yes"/>
      <point x="414" y="370"/>
      <point x="483" y="231"/>
      <point x="698" y="231" type="curve" smooth="yes"/>
      <point x="810.483" y="231"/>
      <point x="947.779" y="285.402"/>
      <point x="1013" y="338" type="curve"/>
      <point x="1026.05" y="442.404"/>
      <point x="1044.28" y="546.172"/>
      <point x="1060" y="650" type="curve"/>
      <point x="756" y="650" type="line"/>
      <point x="787" y="879" type="line"/>
      <point x="1353" y="879" type="line"/>
      <point x="1229" y="0" type="line"/>
      <point x="1027" y="0" type="line"/>
      <point x="1014" y="145" type="line"/>
      <point x="948.603" y="44.3894"/>
      <point x="814.11" y="-38"/>
      <point x="650" y="-38" type="curve" smooth="yes"/>
      <point x="281" y="-38"/>
      <point x="96" y="163"/>
      <point x="96" y="565" type="curve" smooth="yes"/>
      <point x="96" y="1134"/>
      <point x="342.034" y="1629"/>
      <point x="895" y="1629" type="curve"/>
      <point x="1094" y="1625"/>
      <point x="1262" y="1568"/>
      <point x="1381" y="1487" type="curve"/>
      <point x="1274" y="1258" type="line"/>
      <point x="1165.8" y="1303.9"/>
      <point x="1041.53" y="1356"/>
      <point x="876" y="1356" type="curve" smooth="yes"/>
      <point x="525.473" y="1356"/>
      <point x="414" y="950.717"/>
    </contour>
  </outline>
</glyph>
<glyph name="I" format="1">
  <advance width="801"/>
  <unicode hex="0049"/>
  <outline>
    <contour>
      <point x="-13" y="152" type="line"/>
      <point x="166" y="152" type="line"/>
      <point x="371" y="1446" type="line"/>
      <point x="193" y="1446" type="line"/>
      <point x="222" y="1606" type="line"/>
      <point x="884" y="1606" type="line"/>
      <point x="856" y="1446" type="line"/>
      <point x="675" y="1446" type="line"/>
      <point x="470" y="152" type="line"/>
      <point x="651" y="152" type="line"/>
      <point x="622" y="0" type="line"/>
      <point x="-38" y="0" type="line"/>
    </contour>
  </outline>
</glyph>
<glyph name="K" format="1">
  <advance width="1359"/>
  <unicode hex="004B"/>
  <outline>
    <contour>
      <point x="1115" y="1606" type="line"/>
      <point x="1466" y="1606" type="line"/>
      <point x="847" y="802" type="line"/>
      <point x="901" y="696" type="line"/>
      <point x="1296" y="0" type="line"/>
      <point x="934" y="0" type="line"/>
      <point x="550" y="696" type="line"/>
      <point x="476" y="696" type="line"/>
      <point x="380" y="0" type="line"/>
      <point x="66" y="0" type="line"/>
      <point x="290" y="1606" type="line"/>
      <point x="604" y="1606" type="line"/>
      <point x="509" y="920" type="line"/>
      <point x="586" y="920" type="line"/>
    </contour>
  </outline>
</glyph>
<glyph name="S" format="1">
  <advance width="1235"/>
  <unicode hex="0053"/>
  <outline>
    <contour>
      <point x="1156" y="1272" type="line"/>
      <point x="1058.15" y="1320.92"/>
      <point x="904.46" y="1356"/>
      <point x="768" y="1356" type="curve" smooth="yes"/>
      <point x="621.93" y="1356"/>
      <point x="450" y="1345.39"/>
      <point x="450" y="1201" type="curve" smooth="yes"/>
      <point x="450" y="1076"/>
      <point x="582" y="1047"/>
      <point x="670" y="1008" type="curve" smooth="yes"/>
      <point x="863" y="921" type="line"/>
      <point x="1027" y="845"/>
      <point x="1139" y="731"/>
      <point x="1139" y="498" type="curve" smooth="yes"/>
      <point x="1139" y="159.638"/>
      <point x="882.342" y="-38"/>
      <point x="538" y="-38" type="curve" smooth="yes"/>
      <point x="409.01" y="-38"/>
      <point x="120.039" y="-36.0395"/>
      <point x="49" y="35" type="curve"/>
      <point x="100" y="320" type="line"/>
      <point x="189.807" y="261.89"/>
      <point x="376.206" y="232"/>
      <point x="511" y="232" type="curve" smooth="yes"/>
      <point x="723" y="232"/>
      <point x="829" y="311"/>
      <point x="829" y="469" type="curve" smooth="yes"/>
      <point x="829" y="540"/>
      <point x="790" y="594"/>
      <point x="713" y="630" type="curve" smooth="yes"/>
      <point x="588" y="689"/>
      <point x="462" y="746"/>
      <point x="340" y="809" type="curve"/>
      <point x="229" y="863"/>
      <point x="143" y="974"/>
      <point x="143" y="1137" type="curve" smooth="yes"/>
      <point x="143" y="1463.01"/>
      <point x="403.01" y="1629"/>
      <point x="732" y="1629" type="curve" smooth="yes"/>
      <point x="882.348" y="1629"/>
      <point x="1103.69" y="1619.54"/>
      <point x="1199" y="1556" type="curve"/>
    </contour>
  </outline>
</glyph>
<glyph name="U" format="1">
  <advance width="1501"/>
  <unicode hex="0055"/>
  <outline>
    <contour>
      <point x="657" y="-38" type="curve" smooth="yes"/>
      <point x="297" y="-38"/>
      <point x="142" y="149"/>
      <point x="142" y="515" type="curve" smooth="yes"/>
      <point x="142" y="592"/>
      <point x="147" y="658"/>
      <point x="157" y="730" type="curve" smooth="yes"/>
      <point x="197" y="1021"/>
      <point x="237" y="1305"/>
      <point x="278" y="1606" type="curve"/>
      <point x="593" y="1606" type="line"/>
      <point x="550" y="1304"/>
      <point x="509" y="1018"/>
      <point x="468" y="725" type="curve"/>
      <point x="459" y="653"/>
      <point x="452" y="592"/>
      <point x="452" y="521" type="curve" smooth="yes"/>
      <point x="452" y="326.657"/>
      <point x="499.654" y="221"/>
      <point x="692" y="221" type="curve"/>
      <point x="979.262" y="223.931"/>
      <point x="1018.2" y="468.352"/>
      <point x="1058" y="731" type="curve"/>
      <point x="1182" y="1606" type="line"/>
      <point x="1495" y="1606" type="line"/>
      <point x="1374" y="735" type="line"/>
      <point x="1312" y="300"/>
      <point x="1147" y="-38"/>
    </contour>
  </outline>
</glyph>
<glyph name="W" format="1">
  <advance width="1922"/>
  <unicode hex="0057"/>
  <outline>
    <contour>
      <point x="905" y="1594" type="line"/>
      <point x="1264" y="1594" type="line"/>
      <point x="1327" y="413" type="line"/>
      <point x="1702" y="1606" type="line"/>
      <point x="2005" y="1606" type="line"/>
      <point x="1459" y="0" type="line"/>
      <point x="1094" y="0" type="line"/>
      <point x="1041" y="1181" type="line"/>
      <point x="646" y="0" type="line"/>
      <point x="281" y="0" type="line"/>
      <point x="190" y="1606" type="line"/>
      <point x="488" y="1606" type="line"/>
      <point x="543" y="413" type="line"/>
    </contour>
  </outline>
</glyph>
<glyph name="Y" format="1">
  <advance width="1240"/>
  <unicode hex="0059"/>
  <outline>
    <contour>
      <point x="649" y="910" type="line"/>
      <point x="1048" y="1606" type="line"/>
      <point x="1392" y="1606" type="line"/>
      <point x="754" y="524" type="line"/>
      <point x="683" y="0" type="line"/>
      <point x="374" y="0" type="line"/>
      <point x="445" y="527" type="line"/>
      <point x="126" y="1606" type="line"/>
      <point x="456" y="1606" type="line"/>
    </contour>
  </outline>
</glyph>
<glyph name="bracketleft" format="1">
  <advance width="939"/>
  <unicode hex="005B"/>
  <outline>
    <contour>
      <point x="288" y="1565" type="line"/>
      <point x="988" y="1565" type="line"/>
      <point x="950" y="1309" type="line"/>
      <point x="550" y="1309" type="line"/>
      <point x="387" y="255" type="line"/>
      <point x="787" y="255" type="line"/>
      <point x="748" y="0" type="line"/>
      <point x="47" y="0" type="line"/>
    </contour>
  </outline>
</glyph>
<glyph name="backslash" format="1">
  <advance width="1005"/>
  <unicode hex="005C"/>
  <outline>
    <contour>
      <point x="475" y="1703" type="line"/>
      <point x="840" y="-102" type="line"/>
      <point x="566" y="-152" type="line"/>
      <point x="206" y="1654" type="line"/>
    </contour>
  </outline>
</glyph>
<glyph name="asciicircum" format="1">
  <advance width="1859"/>
  <unicode hex="005E"/>
  <outline>
    <contour>
      <point x="917" y="1192" type="line"/>
      <point x="1136" y="1192" type="line"/>
      <point x="1323" y="552" type="line"/>
      <point x="1080" y="552" type="line"/>
      <point x="1003" y="873" type="line"/>
      <point x="864" y="552" type="line"/>
      <point x="607" y="552" type="line"/>
    </contour>
  </outline>
</glyph>
<glyph name="underscore" format="1">
  <advance width="1183"/>
  <unicode hex="005F"/>
  <outline>
    <contour>
      <point x="949" y="-101" type="line"/>
      <point x="11" y="-101" type="line"/>
      <point x="42" y="153" type="line"/>
      <point x="980" y="153" type="line"/>
    </contour>
  </outline>
</glyph>
<glyph name="grave" format="1">
  <advance width="685"/>
  <unicode hex="0060"/>
  <outline>
    <contour>
      <point x="508" y="148" type="line"/>
      <point x="315" y="148" type="line"/>
      <point x="92" y="860" type="line"/>
      <point x="481" y="860" type="line"/>
    </contour>
  </outline>
</glyph>
<glyph name="b" format="1">
  <advance width="1182"/>
  <unicode hex="0062"/>
  <outline>
    <contour>
      <point x="476" y="999" type="line"/>
      <point x="541" y="1082"/>
      <point x="641" y="1144"/>
      <point x="780" y="1145" type="curve"/>
      <point x="1013" y="1142"/>
      <point x="1101" y="953"/>
      <point x="1099" y="714" type="curve"/>
      <point x="1105.33" y="410.341"/>
      <point x="981.637" y="139.71"/>
      <point x="786" y="32" type="curve" smooth="yes"/>
      <point x="727" y="0"/>
      <point x="658" y="-17"/>
      <point x="579" y="-17" type="curve" smooth="yes"/>
      <point x="444" y="-17"/>
      <point x="343" y="52"/>
      <point x="328" y="170" type="curve"/>
      <point x="240" y="0" type="line"/>
      <point x="29" y="0" type="line"/>
      <point x="265" y="1624" type="line"/>
      <point x="574" y="1667" type="line"/>
    </contour>
    <contour>
      <point x="372" y="292" type="curve"/>
      <point x="397" y="241"/>
      <point x="465" y="213"/>
      <point x="548" y="213" type="curve" smooth="yes"/>
      <point x="748.715" y="213"/>
      <point x="800" y="519.287"/>
      <point x="800" y="725" type="curve" smooth="yes"/>
      <point x="800" y="832"/>
      <point x="779" y="916"/>
      <point x="680" y="916" type="curve" smooth="yes"/>
      <point x="581" y="916"/>
      <point x="503" y="859"/>
      <point x="449" y="805" type="curve"/>
      <point x="422.797" y="634.68"/>
      <point x="397.532" y="462.87"/>
    </contour>
  </outline>
</glyph>
<glyph name="f" format="1">
  <advance width="755"/>
  <unicode hex="0066"/>
  <outline>
    <contour>
      <point x="833" y="1354" type="line"/>
      <point x="799" y="1367"/>
      <point x="756" y="1379"/>
      <point x="706" y="1379" type="curve" smooth="yes"/>
      <point x="599.406" y="1379"/>
      <point x="563.5" y="1243.95"/>
      <point x="548" y="1127" type="curve"/>
      <point x="798" y="1127" type="line"/>
      <point x="775" y="973" type="line"/>
      <point x="526" y="973" type="line"/>
      <point x="390" y="0" type="line"/>
      <point x="86" y="0" type="line"/>
      <point x="222" y="973" type="line"/>
      <point x="87" y="973" type="line"/>
      <point x="111" y="1127" type="line"/>
      <point x="244" y="1127" type="line"/>
      <point x="281.439" y="1375.79"/>
      <point x="398.158" y="1631"/>
      <point x="679" y="1631" type="curve" smooth="yes"/>
      <point x="750" y="1631"/>
      <point x="817" y="1611"/>
      <point x="873" y="1593" type="curve"/>
    </contour>
  </outline>
</glyph>
<glyph name="h" format="1">
  <advance width="1210"/>
  <unicode hex="0068"/>
  <outline>
    <contour>
      <point x="790" y="758" type="curve" smooth="yes"/>
      <point x="791" y="856"/>
      <point x="746" y="916"/>
      <point x="653" y="916" type="curve" smooth="yes"/>
      <point x="559" y="916"/>
      <point x="501" y="880"/>
      <point x="454" y="833" type="curve"/>
      <point x="332" y="0" type="line"/>
      <point x="30" y="0" type="line"/>
      <point x="264" y="1623" type="line"/>
      <point x="573" y="1679" type="line"/>
      <point x="474" y="997" type="line"/>
      <point x="546.489" y="1069.49"/>
      <point x="632.924" y="1145"/>
      <point x="784" y="1145" type="curve" smooth="yes"/>
      <point x="1000" y="1145"/>
      <point x="1100" y="1027"/>
      <point x="1099" y="806" type="curve" smooth="yes"/>
      <point x="1099" y="763"/>
      <point x="1095" y="727"/>
      <point x="1088" y="687" type="curve"/>
      <point x="989" y="0" type="line"/>
      <point x="684" y="0" type="line"/>
      <point x="785" y="698" type="line" smooth="yes"/>
      <point x="788" y="717"/>
      <point x="790" y="737"/>
    </contour>
  </outline>
</glyph>
<glyph name="j" format="1">
  <advance width="561"/>
  <unicode hex="006A"/>
  <outline>
    <contour>
      <point x="404" y="1670" type="curve" smooth="yes"/>
      <point x="489" y="1670"/>
      <point x="547" y="1605"/>
      <point x="547" y="1520" type="curve"/>
      <point x="560.426" y="1410.92"/>
      <point x="463.885" y="1312"/>
      <point x="356" y="1312" type="curve" smooth="yes"/>
      <point x="271" y="1312"/>
      <point x="212" y="1375"/>
      <point x="212" y="1461" type="curve" smooth="yes"/>
      <point x="212" y="1571.46"/>
      <point x="295.191" y="1670"/>
    </contour>
    <contour>
      <point x="-159" y="-129" type="line"/>
      <point x="-31.8162" y="-47.4365"/>
      <point x="44.15" y="35.1752"/>
      <point x="68" y="222" type="curve" smooth="yes"/>
      <point x="188" y="1127" type="line"/>
      <point x="494" y="1127" type="line"/>
      <point x="371" y="202" type="line"/>
      <point x="329.613" y="-76.4236"/>
      <point x="154.595" y="-294.714"/>
      <point x="-99" y="-357" type="curve"/>
    </contour>
  </outline>
</glyph>
<glyph name="k" format="1">
  <advance width="1134"/>
  <unicode hex="006B"/>
  <outline>
    <contour>
      <point x="389" y="408" type="line"/>
      <point x="331" y="0" type="line"/>
      <point x="28" y="0" type="line"/>
      <point x="264" y="1623" type="line"/>
      <point x="576" y="1667" type="line"/>
      <point x="433" y="707" type="line"/>
      <point x="824" y="1127" type="line"/>
      <point x="1161" y="1127" type="line"/>
      <point x="689" y="632" type="line"/>
      <point x="1048" y="0" type="line"/>
      <point x="726" y="0" type="line"/>
      <point x="460" y="474" type="line"/>
    </contour>
  </outline>
</glyph>
<glyph name="l" format="1">
  <advance width="558"/>
  <unicode hex="006C"/>
  <outline>
    <contour>
      <point x="575" y="1668" type="line"/>
      <point x="332" y="0" type="line"/>
      <point x="29" y="0" type="line"/>
      <point x="265" y="1622" type="line"/>
    </contour>
  </outline>
</glyph>
<glyph name="m" format="1">
  <advance width="1740"/>
  <unicode hex="006D"/>
  <outline>
    <contour>
      <point x="1018" y="963" type="curve"/>
      <point x="1090" y="1077"/>
      <point x="1188" y="1145"/>
      <point x="1358" y="1145" type="curve" smooth="yes"/>
      <point x="1557.16" y="1145"/>
      <point x="1628.97" y="1034.04"/>
      <point x="1629.09" y="832.579" type="curve" smooth="yes"/>
      <point x="1629.09" y="811.863"/>
      <point x="1628.87" y="801.748"/>
      <point x="1626" y="774" type="curve" smooth="yes"/>
      <point x="1599" y="517"/>
      <point x="1560" y="278"/>
      <point x="1521" y="0" type="curve"/>
      <point x="1217" y="0" type="line"/>
      <point x="1257" y="281"/>
      <point x="1287" y="496"/>
      <point x="1324" y="754" type="curve" smooth="yes"/>
      <point x="1326.9" y="777.221"/>
      <point x="1328" y="780.303"/>
      <point x="1328" y="795" type="curve" smooth="yes"/>
      <point x="1328" y="876"/>
      <point x="1298" y="916"/>
      <point x="1237" y="916" type="curve" smooth="yes"/>
      <point x="1153" y="916"/>
      <point x="1106" y="895"/>
      <point x="1053" y="849" type="curve"/>
      <point x="1048" y="812"/>
      <point x="1044" y="775"/>
      <point x="1037" y="739" type="curve"/>
      <point x="930" y="0" type="line"/>
      <point x="627" y="0" type="line"/>
      <point x="662" y="260"/>
      <point x="699" y="499"/>
      <point x="734" y="748" type="curve" smooth="yes"/>
      <point x="736" y="769"/>
      <point x="739" y="788"/>
      <point x="739" y="810" type="curve" smooth="yes"/>
      <point x="739" y="879"/>
      <point x="716" y="916"/>
      <point x="653" y="916" type="curve" smooth="yes"/>
      <point x="558" y="916"/>
      <point x="494" y="872"/>
      <point x="450" y="817" type="curve"/>
      <point x="443" y="776"/>
      <point x="437" y="735"/>
      <point x="432" y="693" type="curve"/>
      <point x="332" y="0" type="line"/>
      <point x="29" y="0" type="line"/>
      <point x="191" y="1127" type="line"/>
      <point x="421" y="1127" type="line"/>
      <point x="457" y="972" type="line"/>
      <point x="510.14" y="1058.96"/>
      <point x="615.59" y="1145"/>
      <point x="752" y="1145" type="curve" smooth="yes"/>
      <point x="910" y="1145"/>
      <point x="984" y="1088"/>
    </contour>
  </outline>
</glyph>
<glyph name="n" format="1">
  <advance width="1185"/>
  <unicode hex="006E"/>
  <outline>
    <contour>
      <point x="786" y="1145" type="curve" smooth="yes"/>
      <point x="1002" y="1144"/>
      <point x="1075" y="1037"/>
      <point x="1075" y="820" type="curve" smooth="yes"/>
      <point x="1075" y="773"/>
      <point x="1069" y="732"/>
      <point x="1064" y="686" type="curve"/>
      <point x="1031" y="456"/>
      <point x="998" y="237"/>
      <point x="964" y="0" type="curve"/>
      <point x="659" y="0" type="line"/>
      <point x="694" y="242"/>
      <point x="725" y="470"/>
      <point x="762" y="702" type="curve" smooth="yes"/>
      <point x="787" y="858"/>
      <point x="758" y="916"/>
      <point x="664" y="916" type="curve" smooth="yes"/>
      <point x="584" y="916"/>
      <point x="482" y="841"/>
      <point x="431" y="681" type="curve"/>
      <point x="332" y="0" type="line"/>
      <point x="28" y="0" type="line"/>
      <point x="192" y="1127" type="line"/>
      <point x="423" y="1127" type="line"/>
      <point x="436" y="830" type="line"/>
      <point x="512" y="1039"/>
      <point x="647" y="1145"/>
    </contour>
  </outline>
</glyph>
<glyph name="p" format="1">
  <advance width="1200"/>
  <unicode hex="0070"/>
  <outline>
    <contour>
      <point x="1117.06" y="718.773" type="curve" smooth="yes"/>
      <point x="1117.06" y="341.856"/>
      <point x="946.424" y="-17"/>
      <point x="575" y="-17" type="curve" smooth="yes"/>
      <point x="460" y="-17"/>
      <point x="388" y="37"/>
      <point x="351" y="120" type="curve"/>
      <point x="272" y="-407" type="line"/>
      <point x="-33" y="-410" type="line"/>
      <point x="194" y="1127" type="line"/>
      <point x="425" y="1127" type="line"/>
      <point x="460" y="979" type="line"/>
      <point x="521.232" y="1064.24"/>
      <point x="622.064" y="1145"/>
      <point x="764" y="1145" type="curve"/>
      <point x="1012.48" y="1142.04"/>
      <point x="1117.06" y="970.888"/>
    </contour>
    <contour>
      <point x="378" y="309" type="line"/>
      <point x="420" y="252"/>
      <point x="487" y="211"/>
      <point x="580" y="211" type="curve" smooth="yes"/>
      <point x="769.598" y="211"/>
      <point x="812" y="517.916"/>
      <point x="812" y="708" type="curve"/>
      <point x="809" y="846"/>
      <point x="762" y="915"/>
      <point x="669" y="915" type="curve" smooth="yes"/>
      <point x="586" y="915"/>
      <point x="515" y="888"/>
      <point x="456" y="833" type="curve"/>
    </contour>
  </outline>
</glyph>
<glyph name="q" format="1">
  <advance width="1181"/>
  <unicode hex="0071"/>
  <outline>
    <contour>
      <point x="671" y="117" type="line"/>
      <point x="613" y="41"/>
      <point x="532" y="-17"/>
      <point x="409" y="-17" type="curve" smooth="yes"/>
      <point x="154" y="-17"/>
      <point x="51" y="173"/>
      <point x="51" y="425" type="curve" smooth="yes"/>
      <point x="51" y="797.634"/>
      <point x="207.575" y="1142.86"/>
      <point x="575" y="1145" type="curve"/>
      <point x="708" y="1144"/>
      <point x="769" y="1083"/>
      <point x="795" y="973" type="curve"/>
      <point x="859" y="1127" type="line"/>
      <point x="1118" y="1127" type="line"/>
      <point x="898" y="-409" type="line"/>
      <point x="594" y="-411" type="line"/>
    </contour>
    <contour>
      <point x="770" y="812" type="line"/>
      <point x="741" y="870"/>
      <point x="680" y="916"/>
      <point x="593" y="916" type="curve" smooth="yes"/>
      <point x="389.299" y="916"/>
      <point x="347" y="603.534"/>
      <point x="347" y="393" type="curve"/>
      <point x="349" y="272"/>
      <point x="390" y="211"/>
      <point x="469" y="211" type="curve" smooth="yes"/>
      <point x="569" y="211"/>
      <point x="642" y="256"/>
      <point x="698" y="308" type="curve"/>
    </contour>
  </outline>
</glyph>
<glyph name="r" format="1">
  <advance width="769"/>
  <unicode hex="0072"/>
  <outline>
    <contour>
      <point x="765" y="877" type="line"/>
      <point x="740" y="886"/>
      <point x="706" y="893"/>
      <point x="673" y="893" type="curve" smooth="yes"/>
      <point x="581" y="891"/>
      <point x="508" y="848"/>
      <point x="448" y="804" type="curve"/>
      <point x="332" y="0" type="line"/>
      <point x="29" y="0" type="line"/>
      <point x="191" y="1127" type="line"/>
      <point x="421" y="1127" type="line"/>
      <point x="457" y="972" type="line"/>
      <point x="525" y="1069"/>
      <point x="599" y="1138"/>
      <point x="754" y="1144" type="curve" smooth="yes"/>
      <point x="772" y="1145"/>
      <point x="789" y="1145"/>
      <point x="806" y="1146" type="curve"/>
    </contour>
  </outline>
</glyph>
<glyph name="s" format="1">
  <advance width="961"/>
  <unicode hex="0073"/>
  <outline>
    <contour>
      <point x="391" y="215" type="curve" smooth="yes"/>
      <point x="489" y="215"/>
      <point x="563" y="245"/>
      <point x="563" y="336" type="curve" smooth="yes"/>
      <point x="563" y="395"/>
      <point x="524" y="414"/>
      <point x="473" y="436" type="curve" smooth="yes"/>
      <point x="340" y="495" type="line"/>
      <point x="218" y="548"/>
      <point x="93" y="610"/>
      <point x="93" y="778" type="curve"/>
      <point x="90.3667" y="1028.16"/>
      <point x="295.501" y="1145"/>
      <point x="547" y="1145" type="curve" smooth="yes"/>
      <point x="692" y="1145"/>
      <point x="821" y="1103"/>
      <point x="915" y="1048" type="curve"/>
      <point x="829" y="840" type="line"/>
      <point x="761.977" y="879.928"/>
      <point x="649.154" y="912"/>
      <point x="545" y="912" type="curve" smooth="yes"/>
      <point x="457" y="912"/>
      <point x="367" y="903"/>
      <point x="367" y="820" type="curve" smooth="yes"/>
      <point x="367" y="768"/>
      <point x="403" y="754"/>
      <point x="442" y="739" type="curve" smooth="yes"/>
      <point x="568" y="689" type="line"/>
      <point x="702.943" y="634.259"/>
      <point x="846.025" y="576.624"/>
      <point x="846.025" y="389.834" type="curve" smooth="yes"/>
      <point x="846.025" y="123.918"/>
      <point x="645.258" y="-13.2249"/>
      <point x="381" y="-17" type="curve"/>
      <point x="219" y="-16"/>
      <point x="92" y="21"/>
      <point x="1" y="91" type="curve"/>
      <point x="87" y="302" type="line"/>
      <point x="151.708" y="254.94"/>
      <point x="282.222" y="215"/>
    </contour>
  </outline>
</glyph>
<glyph name="t" format="1">
  <advance width="807"/>
  <unicode hex="0074"/>
  <outline>
    <contour>
      <point x="406" y="-17" type="curve"/>
      <point x="205" y="-15"/>
      <point x="121" y="109"/>
      <point x="121" y="320" type="curve" smooth="yes"/>
      <point x="121" y="366"/>
      <point x="127" y="409"/>
      <point x="133" y="452" type="curve" smooth="yes"/>
      <point x="210" y="975" type="line"/>
      <point x="85" y="975" type="line"/>
      <point x="107" y="1127" type="line"/>
      <point x="241" y="1127" type="line"/>
      <point x="297" y="1526" type="line"/>
      <point x="606" y="1608" type="line"/>
      <point x="534" y="1127" type="line"/>
      <point x="794" y="1127" type="line"/>
      <point x="771" y="975" type="line"/>
      <point x="513" y="975" type="line"/>
      <point x="424" y="363" type="line" smooth="yes"/>
      <point x="411" y="271"/>
      <point x="422" y="187"/>
      <point x="512" y="187" type="curve" smooth="yes"/>
      <point x="578" y="187"/>
      <point x="634" y="214"/>
      <point x="677" y="236" type="curve"/>
      <point x="729" y="69" type="line"/>
      <point x="645" y="27"/>
      <point x="536" y="-15"/>
    </contour>
  </outline>
</glyph>
<glyph name="u" format="1">
  <advance width="1198"/>
  <unicode hex="0075"/>
  <outline>
    <contour>
      <point x="433" y="-17" type="curve" smooth="yes"/>
      <point x="192.08" y="-17"/>
      <point x="80.9933" y="106.887"/>
      <point x="80.9933" y="346.767" type="curve" smooth="yes"/>
      <point x="80.9933" y="390.305"/>
      <point x="85.8254" y="433.836"/>
      <point x="92" y="475" type="curve" smooth="yes"/>
      <point x="122" y="687"/>
      <point x="157" y="920"/>
      <point x="186" y="1127" type="curve"/>
      <point x="491" y="1127" type="line"/>
      <point x="459" y="902"/>
      <point x="426" y="664"/>
      <point x="394" y="438" type="curve" smooth="yes"/>
      <point x="390.326" y="414.734"/>
      <point x="386.067" y="394.833"/>
      <point x="386.067" y="374.209" type="curve" smooth="yes"/>
      <point x="386.067" y="280.238"/>
      <point x="431.016" y="215.623"/>
      <point x="520" y="211" type="curve"/>
      <point x="607" y="215"/>
      <point x="663" y="246"/>
      <point x="709" y="297" type="curve"/>
      <point x="830" y="1127" type="line"/>
      <point x="1134" y="1127" type="line"/>
      <point x="974" y="0" type="line"/>
      <point x="759" y="0" type="line"/>
      <point x="744" y="58"/>
      <point x="731" y="112"/>
      <point x="716" y="170" type="curve"/>
      <point x="666" y="73"/>
      <point x="579" y="-17"/>
    </contour>
  </outline>
</glyph>
<glyph name="v" format="1">
  <advance width="1007"/>
  <unicode hex="0076"/>
  <outline>
    <contour>
      <point x="589" y="0" type="line"/>
      <point x="236" y="0" type="line"/>
      <point x="78" y="1127" type="line"/>
      <point x="357" y="1127" type="line"/>
      <point x="451" y="337" type="line"/>
      <point x="745" y="1127" type="line"/>
      <point x="1044" y="1127" type="line"/>
    </contour>
  </outline>
</glyph>
<glyph name="w" format="1">
  <advance width="1448"/>
  <unicode hex="0077"/>
  <outline>
    <contour>
      <point x="773" y="0" type="line"/>
      <point x="734" y="699" type="line"/>
      <point x="500" y="0" type="line"/>
      <point x="208" y="0" type="line"/>
      <point x="108" y="1127" type="line"/>
      <point x="378" y="1127" type="line"/>
      <point x="419" y="383" type="line"/>
      <point x="656" y="1127" type="line"/>
      <point x="915" y="1127" type="line"/>
      <point x="956" y="385" type="line"/>
      <point x="1210" y="1127" type="line"/>
      <point x="1465" y="1127" type="line"/>
      <point x="1069" y="0" type="line"/>
    </contour>
  </outline>
</glyph>
<glyph name="y" format="1">
  <advance width="1042"/>
  <unicode hex="0079"/>
  <outline>
    <contour>
      <point x="-29" y="-238" type="line"/>
      <point x="98.3676" y="-197.87"/>
      <point x="312.702" y="-135.358"/>
      <point x="321" y="14" type="curve"/>
      <point x="238" y="388"/>
      <point x="149" y="755"/>
      <point x="64" y="1127" type="curve"/>
      <point x="350" y="1127" type="line"/>
      <point x="508" y="388" type="line"/>
      <point x="788" y="1127" type="line"/>
      <point x="1077" y="1127" type="line"/>
      <point x="617" y="-21" type="line"/>
      <point x="516.557" y="-279.974"/>
      <point x="328.7" y="-417.717"/>
      <point x="33" y="-482" type="curve"/>
    </contour>
  </outline>
</glyph>
<glyph name="z" format="1">
  <advance width="915"/>
  <unicode hex="007A"/>
  <outline>
    <contour>
      <point x="548" y="896" type="line"/>
      <point x="124" y="896" type="line"/>
      <point x="150" y="1127" type="line"/>
      <point x="885" y="1127" type="line"/>
      <point x="855" y="906" type="line"/>
      <point x="329" y="228" type="line"/>
      <point x="768" y="228" type="line"/>
      <point x="745" y="0" type="line"/>
      <point x="-11" y="0" type="line"/>
      <point x="17" y="231" type="line"/>
    </contour>
  </outline>
</glyph>
<glyph name="braceleft" format="1">
  <advance width="692"/>
  <unicode hex="007B"/>
  <outline>
    <contour>
      <point x="473" y="-214" type="line"/>
      <point x="237" y="-214"/>
      <point x="116" y="-98"/>
      <point x="116" y="141" type="curve" smooth="yes"/>
      <point x="116" y="234"/>
      <point x="133" y="319"/>
      <point x="136" y="410" type="curve" smooth="yes"/>
      <point x="139" y="490"/>
      <point x="131" y="560"/>
      <point x="58" y="560" type="curve"/>
      <point x="83" y="752" type="line"/>
      <point x="164" y="752"/>
      <point x="187" y="833"/>
      <point x="204" y="906" type="curve" smooth="yes"/>
      <point x="213" y="944"/>
      <point x="221" y="990"/>
      <point x="228" y="1046" type="curve" smooth="yes"/>
      <point x="264" y="1330"/>
      <point x="388" y="1526"/>
      <point x="703" y="1526" type="curve"/>
      <point x="679" y="1335" type="line"/>
      <point x="630" y="1335"/>
      <point x="611" y="1330"/>
      <point x="589" y="1294" type="curve" smooth="yes"/>
      <point x="576" y="1273"/>
      <point x="564" y="1240"/>
      <point x="553" y="1195" type="curve" smooth="yes"/>
      <point x="542" y="1150"/>
      <point x="530" y="1085"/>
      <point x="519" y="1002" type="curve" smooth="yes"/>
      <point x="505" y="891"/>
      <point x="477" y="807"/>
      <point x="426" y="744" type="curve" smooth="yes"/>
      <point x="392" y="702"/>
      <point x="352" y="674"/>
      <point x="302" y="657" type="curve"/>
      <point x="391" y="619"/>
      <point x="434" y="535"/>
      <point x="435" y="407" type="curve" smooth="yes"/>
      <point x="435" y="369"/>
      <point x="432" y="336"/>
      <point x="428" y="299" type="curve" smooth="yes"/>
      <point x="415" y="192"/>
      <point x="413" y="116"/>
      <point x="423" y="73" type="curve"/>
      <point x="423" y="8"/>
      <point x="436" y="-23"/>
      <point x="499" y="-23" type="curve"/>
    </contour>
  </outline>
</glyph>
<glyph name="braceright" format="1">
  <advance width="653"/>
  <unicode hex="007D"/>
  <outline>
    <contour>
      <point x="362" y="657" type="curve"/>
      <point x="282" y="691"/>
      <point x="242" y="763"/>
      <point x="242" y="881" type="curve" smooth="yes"/>
      <point x="242" y="1004"/>
      <point x="276" y="1102"/>
      <point x="276" y="1226" type="curve" smooth="yes"/>
      <point x="276" y="1297"/>
      <point x="264" y="1335"/>
      <point x="195" y="1335" type="curve"/>
      <point x="223" y="1526" type="line"/>
      <point x="442" y="1526"/>
      <point x="543" y="1414"/>
      <point x="547" y="1193" type="curve"/>
      <point x="547" y="1085"/>
      <point x="519" y="973"/>
      <point x="519" y="867" type="curve"/>
      <point x="520" y="802"/>
      <point x="530" y="752"/>
      <point x="589" y="752" type="curve"/>
      <point x="562" y="560" type="line"/>
      <point x="484" y="560"/>
      <point x="462" y="478"/>
      <point x="445" y="408" type="curve" smooth="yes"/>
      <point x="436" y="370"/>
      <point x="427" y="323"/>
      <point x="419" y="266" type="curve" smooth="yes"/>
      <point x="388" y="55"/>
      <point x="313" y="-109"/>
      <point x="148" y="-180" type="curve" smooth="yes"/>
      <point x="95" y="-203"/>
      <point x="34" y="-214"/>
      <point x="-35" y="-214" type="curve"/>
      <point x="-7" y="-23" type="line"/>
      <point x="80" y="-23"/>
      <point x="95" y="45"/>
      <point x="114" y="126" type="curve" smooth="yes"/>
      <point x="125" y="171"/>
      <point x="136" y="232"/>
      <point x="148" y="310" type="curve" smooth="yes"/>
      <point x="172" y="478"/>
      <point x="235" y="605"/>
    </contour>
  </outline>
</glyph>
<glyph name="asciitilde" format="1">
  <advance width="1032"/>
  <unicode hex="007E"/>
  <outline>
    <contour>
      <point x="624" y="369" type="curve" smooth="yes"/>
      <point x="682" y="369"/>
      <point x="685" y="422"/>
      <point x="693" y="475" type="curve"/>
      <point x="895" y="475" type="line"/>
      <point x="877" y="342"/>
      <point x="827" y="225"/>
      <point x="730" y="174" type="curve" smooth="yes"/>
      <point x="701" y="159"/>
      <point x="670" y="151"/>
      <point x="636" y="151" type="curve" smooth="yes"/>
      <point x="554" y="151"/>
      <point x="488" y="191"/>
      <point x="437" y="226" type="curve" smooth="yes"/>
      <point x="409" y="245"/>
      <point x="383" y="262"/>
      <point x="360" y="278" type="curve" smooth="yes"/>
      <point x="337" y="294"/>
      <point x="315" y="302"/>
      <point x="296" y="302" type="curve" smooth="yes"/>
      <point x="240" y="302"/>
      <point x="231" y="241"/>
      <point x="223" y="176" type="curve"/>
      <point x="30" y="176" type="line"/>
      <point x="61" y="399"/>
      <point x="148" y="511"/>
      <point x="290" y="511" type="curve" smooth="yes"/>
      <point x="409" y="511"/>
      <point x="478" y="438"/>
      <point x="551" y="391" type="curve" smooth="yes"/>
      <point x="574" y="376"/>
      <point x="598" y="369"/>
    </contour>
  </outline>
</glyph>
<glyph name="exclamdown" format="1">
  <advance width="652"/>
  <unicode hex="00A1"/>
  <outline>
    <contour>
      <point x="518" y="1584" type="curve"/>
      <point x="540" y="1558"/>
      <point x="551" y="1528"/>
      <point x="551" y="1493" type="curve"/>
      <point x="555" y="1411"/>
      <point x="504" y="1354"/>
      <point x="448" y="1326" type="curve" smooth="yes"/>
      <point x="427" y="1316"/>
      <point x="406" y="1309"/>
      <point x="384" y="1308" type="curve"/>
      <point x="317" y="1308"/>
      <point x="269" y="1341"/>
      <point x="242" y="1382" type="curve" smooth="yes"/>
      <point x="232" y="1397"/>
      <point x="226" y="1413"/>
      <point x="223" y="1431" type="curve"/>
      <point x="223" y="1517"/>
      <point x="273" y="1575"/>
      <point x="330" y="1606" type="curve" smooth="yes"/>
      <point x="351" y="1617"/>
      <point x="372" y="1624"/>
      <point x="393" y="1627" type="curve"/>
      <point x="440" y="1627"/>
      <point x="482" y="1613"/>
    </contour>
    <contour>
      <point x="35" y="0" type="line"/>
      <point x="261" y="1175" type="line"/>
      <point x="450" y="1175" type="line"/>
      <point x="475" y="0" type="line"/>
    </contour>
  </outline>
</glyph>
<glyph name="cent" format="1">
  <advance width="1011"/>
  <unicode hex="00A2"/>
  <outline>
    <contour>
      <point x="774" y="1132" type="line"/>
      <point x="842" y="1116"/>
      <point x="901" y="1086"/>
      <point x="959" y="1051" type="curve"/>
      <point x="886" y="835" type="line"/>
      <point x="856" y="870"/>
      <point x="790" y="892"/>
      <point x="737" y="904" type="curve"/>
      <point x="626" y="216" type="line"/>
      <point x="707.706" y="224.01"/>
      <point x="767.527" y="261.32"/>
      <point x="823" y="295" type="curve"/>
      <point x="851" y="80" type="line"/>
      <point x="770" y="37"/>
      <point x="687" y="3"/>
      <point x="589" y="-10" type="curve"/>
      <point x="558" y="-190" type="line"/>
      <point x="439" y="-171" type="line"/>
      <point x="465" y="-15" type="line"/>
      <point x="201.748" y="-3.034"/>
      <point x="62.2496" y="179.76"/>
      <point x="51" y="446" type="curve"/>
      <point x="40.7726" y="844.868"/>
      <point x="255.514" y="1131.72"/>
      <point x="634" y="1148" type="curve" smooth="yes"/>
      <point x="642" y="1148"/>
      <point x="649" y="1148"/>
      <point x="654" y="1147" type="curve"/>
      <point x="693" y="1377" type="line"/>
      <point x="812" y="1359" type="line"/>
    </contour>
    <contour>
      <point x="617" y="916" type="line"/>
      <point x="406" y="902"/>
      <point x="356" y="707"/>
      <point x="356" y="466" type="curve"/>
      <point x="361" y="335"/>
      <point x="410" y="256"/>
      <point x="504" y="227" type="curve"/>
    </contour>
  </outline>
</glyph>
<glyph name="currency" format="1">
  <advance width="1274"/>
  <unicode hex="00A4"/>
  <outline>
    <contour>
      <point x="930.186" y="1038.5" type="curve" smooth="yes"/>
      <point x="930.186" y="1161.49"/>
      <point x="844.76" y="1263"/>
      <point x="720" y="1263" type="curve" smooth="yes"/>
      <point x="562.694" y="1263"/>
      <point x="437.729" y="1115.17"/>
      <point x="437.729" y="958.646" type="curve" smooth="yes"/>
      <point x="437.729" y="834.567"/>
      <point x="522.432" y="738"/>
      <point x="648" y="738" type="curve" smooth="yes"/>
      <point x="805.565" y="738"/>
      <point x="930.186" y="879.381"/>
    </contour>
    <contour>
      <point x="305" y="746" type="line"/>
      <point x="273.46" y="804.313"/>
      <point x="259.539" y="867.871"/>
      <point x="259.539" y="931.644" type="curve" smooth="yes"/>
      <point x="259.539" y="1041.76"/>
      <point x="301.041" y="1152.51"/>
      <point x="365" y="1238" type="curve"/>
      <point x="197" y="1442" type="line"/>
      <point x="334" y="1575" type="line"/>
      <point x="501" y="1370" type="line"/>
      <point x="579" y="1423"/>
      <point x="662" y="1450"/>
      <point x="749" y="1450" type="curve" smooth="yes"/>
      <point x="830" y="1450"/>
      <point x="901" y="1426"/>
      <point x="962" y="1379" type="curve"/>
      <point x="1164" y="1575" type="line"/>
      <point x="1273" y="1442" type="line"/>
      <point x="1068" y="1245" type="line"/>
      <point x="1094.3" y="1185.65"/>
      <point x="1106.32" y="1125.29"/>
      <point x="1106.32" y="1065.81" type="curve" smooth="yes"/>
      <point x="1106.32" y="957.913"/>
      <point x="1066.75" y="852.892"/>
      <point x="1001" y="762" type="curve"/>
      <point x="1176" y="550" type="line"/>
      <point x="1039" y="417" type="line"/>
      <point x="864" y="631" type="line"/>
      <point x="796" y="585"/>
      <point x="721" y="553"/>
      <point x="619" y="553" type="curve" smooth="yes"/>
      <point x="541" y="553"/>
      <point x="473" y="574"/>
      <point x="414" y="616" type="curve"/>
      <point x="208" y="417" type="line"/>
      <point x="100" y="550" type="line"/>
    </contour>
  </outline>
</glyph>
<glyph name="yen" format="1">
  <advance width="1389"/>
  <unicode hex="00A5"/>
  <outline>
    <contour>
      <point x="733" y="829" type="line"/>
      <point x="1123" y="1606" type="line"/>
      <point x="1466" y="1606" type="line"/>
      <point x="992" y="782" type="line"/>
      <point x="1190" y="782" type="line"/>
      <point x="1175" y="659" type="line"/>
      <point x="925" y="659" type="line"/>
      <point x="855" y="527" type="line"/>
      <point x="1158" y="527" type="line"/>
      <point x="1142" y="404" type="line"/>
      <point x="838" y="404" type="line"/>
      <point x="788" y="0" type="line"/>
      <point x="474" y="0" type="line"/>
      <point x="524" y="404" type="line"/>
      <point x="219" y="404" type="line"/>
      <point x="235" y="527" type="line"/>
      <point x="537" y="527" type="line"/>
      <point x="501" y="659" type="line"/>
      <point x="251" y="659" type="line"/>
      <point x="266" y="782" type="line"/>
      <point x="466" y="782" type="line"/>
      <point x="198" y="1606" type="line"/>
      <point x="538" y="1606" type="line"/>
    </contour>
  </outline>
</glyph>
<glyph name="brokenbar" format="1">
  <advance width="589"/>
  <unicode hex="00A6"/>
  <outline>
    <contour>
      <point x="50" y="-135" type="line"/>
      <point x="145" y="619" type="line"/>
      <point x="426" y="619" type="line"/>
      <point x="332" y="-135" type="line"/>
    </contour>
    <contour>
      <point x="183" y="934" type="line"/>
      <point x="308" y="1687" type="line"/>
      <point x="559" y="1687" type="line"/>
      <point x="465" y="934" type="line"/>
    </contour>
  </outline>
</glyph>
<glyph name="dieresis" format="1">
  <advance width="1333"/>
  <unicode hex="00A8"/>
  <outline>
    <contour>
      <point x="522" y="331" type="curve"/>
      <point x="511.255" y="233.099"/>
      <point x="441.026" y="148"/>
      <point x="335" y="148" type="curve" smooth="yes"/>
      <point x="246.392" y="148"/>
      <point x="185.453" y="220.556"/>
      <point x="185.453" y="305.881" type="curve" smooth="yes"/>
      <point x="185.453" y="411.935"/>
      <point x="266.911" y="509"/>
      <point x="373" y="509" type="curve" smooth="yes"/>
      <point x="474.278" y="509"/>
      <point x="522" y="430.512"/>
    </contour>
    <contour>
      <point x="1123" y="330" type="curve"/>
      <point x="1112.3" y="233.72"/>
      <point x="1041.41" y="148"/>
      <point x="937" y="148" type="curve" smooth="yes"/>
      <point x="846.64" y="148"/>
      <point x="787.149" y="219.617"/>
      <point x="787.149" y="305.609" type="curve" smooth="yes"/>
      <point x="787.149" y="412.752"/>
      <point x="867.382" y="509"/>
      <point x="975" y="509" type="curve" smooth="yes"/>
      <point x="1076.73" y="509"/>
      <point x="1123" y="430.007"/>
    </contour>
  </outline>
</glyph>
<glyph name="copyright" format="1">
  <advance width="1810"/>
  <unicode hex="00A9"/>
  <outline>
    <contour>
      <point x="858" y="149" type="curve" smooth="yes"/>
      <point x="1258.11" y="149"/>
      <point x="1543.6" y="483.107"/>
      <point x="1543.6" y="881.893" type="curve" smooth="yes"/>
      <point x="1543.6" y="1234.24"/>
      <point x="1342.23" y="1471"/>
      <point x="986" y="1471" type="curve" smooth="yes"/>
      <point x="613.579" y="1471"/>
      <point x="302.927" y="1128.06"/>
      <point x="302.927" y="744.655" type="curve" smooth="yes"/>
      <point x="302.927" y="402.677"/>
      <point x="509.654" y="149"/>
    </contour>
    <contour>
      <point x="1013" y="1686" type="curve" smooth="yes"/>
      <point x="1480.69" y="1686"/>
      <point x="1764.46" y="1362.91"/>
      <point x="1764.46" y="905.103" type="curve" smooth="yes"/>
      <point x="1764.46" y="366.911"/>
      <point x="1369.84" y="-65"/>
      <point x="827" y="-65" type="curve" smooth="yes"/>
      <point x="375.738" y="-65"/>
      <point x="89.0187" y="259.435"/>
      <point x="89.0187" y="715.73" type="curve" smooth="yes"/>
      <point x="89.0187" y="1248.08"/>
      <point x="489.25" y="1686"/>
    </contour>
    <contour>
      <point x="1233" y="1048" type="line"/>
      <point x="1163.19" y="1089.25"/>
      <point x="1080.66" y="1128.61"/>
      <point x="965.907" y="1128.61" type="curve" smooth="yes"/>
      <point x="762.877" y="1128.61"/>
      <point x="701.867" y="933.056"/>
      <point x="701.867" y="730.186" type="curve" smooth="yes"/>
      <point x="701.867" y="580.422"/>
      <point x="750.6" y="490"/>
      <point x="902" y="490" type="curve"/>
      <point x="1023" y="490"/>
      <point x="1104" y="540"/>
      <point x="1189" y="583" type="curve"/>
      <point x="1167" y="370" type="line"/>
      <point x="1079.24" y="326.119"/>
      <point x="1000.45" y="286"/>
      <point x="890" y="286" type="curve" smooth="yes"/>
      <point x="604.31" y="286"/>
      <point x="482.428" y="458.269"/>
      <point x="482.428" y="741.693" type="curve" smooth="yes"/>
      <point x="482.428" y="1066.97"/>
      <point x="665.855" y="1332"/>
      <point x="989" y="1332" type="curve" smooth="yes"/>
      <point x="1094.92" y="1332"/>
      <point x="1193.23" y="1295.67"/>
      <point x="1256" y="1252" type="curve"/>
    </contour>
  </outline>
</glyph>
<glyph name="ordfeminine" format="1">
  <advance width="957"/>
  <unicode hex="00AA"/>
  <outline>
    <contour>
      <point x="639" y="1640" type="curve" smooth="yes"/>
      <point x="812" y="1640"/>
      <point x="911" y="1549"/>
      <point x="911" y="1373" type="curve" smooth="yes"/>
      <point x="911" y="1327"/>
      <point x="904" y="1293"/>
      <point x="898" y="1242" type="curve" smooth="yes"/>
      <point x="876" y="1060"/>
      <point x="851" y="887"/>
      <point x="823" y="686" type="curve"/>
      <point x="706" y="686" type="line"/>
      <point x="682" y="812" type="line"/>
      <point x="616" y="716"/>
      <point x="527" y="668"/>
      <point x="414" y="668" type="curve" smooth="yes"/>
      <point x="246" y="668"/>
      <point x="131" y="750"/>
      <point x="131" y="913" type="curve" smooth="yes"/>
      <point x="131" y="1127.9"/>
      <point x="315.471" y="1258"/>
      <point x="536" y="1258" type="curve" smooth="yes"/>
      <point x="603" y="1258"/>
      <point x="666" y="1247"/>
      <point x="713" y="1228" type="curve"/>
      <point x="722" y="1298"/>
      <point x="729" y="1331"/>
      <point x="729" y="1390" type="curve" smooth="yes"/>
      <point x="729" y="1463"/>
      <point x="700" y="1507"/>
      <point x="626" y="1507" type="curve" smooth="yes"/>
      <point x="505.803" y="1507"/>
      <point x="415.595" y="1456.05"/>
      <point x="328" y="1406" type="curve"/>
      <point x="293" y="1532" type="line"/>
      <point x="380" y="1590"/>
      <point x="499" y="1640"/>
    </contour>
    <contour>
      <point x="331" y="942" type="curve" smooth="yes"/>
      <point x="331" y="859"/>
      <point x="377" y="805"/>
      <point x="461" y="805" type="curve" smooth="yes"/>
      <point x="553.767" y="805"/>
      <point x="609.494" y="861.324"/>
      <point x="669" y="913" type="curve"/>
      <point x="697" y="1124" type="line"/>
      <point x="647" y="1132"/>
      <point x="611" y="1139"/>
      <point x="559" y="1139" type="curve" smooth="yes"/>
      <point x="428.508" y="1139"/>
      <point x="331" y="1068.38"/>
    </contour>
    <contour>
      <point x="156" y="525" type="line"/>
      <point x="792" y="525" type="line"/>
      <point x="774" y="396" type="line"/>
      <point x="138" y="396" type="line"/>
    </contour>
  </outline>
</glyph>
<glyph name="guillemotleft" format="1">
  <advance width="1642"/>
  <unicode hex="00AB"/>
  <outline>
    <contour>
      <point x="1553" y="875" type="line"/>
      <point x="1072" y="585" type="line"/>
      <point x="1491" y="292" type="line"/>
      <point x="1455" y="-37" type="line"/>
      <point x="765" y="464" type="line"/>
      <point x="790" y="706" type="line"/>
      <point x="1590" y="1206" type="line"/>
    </contour>
    <contour>
      <point x="810" y="875" type="line"/>
      <point x="329" y="585" type="line"/>
      <point x="747" y="292" type="line"/>
      <point x="711" y="-37" type="line"/>
      <point x="22" y="464" type="line"/>
      <point x="47" y="706" type="line"/>
      <point x="847" y="1206" type="line"/>
    </contour>
  </outline>
</glyph>
<glyph name="logicalnot" format="1">
  <advance width="1533"/>
  <unicode hex="00AC"/>
  <outline>
    <contour>
      <point x="127" y="977" type="line"/>
      <point x="157" y="1184" type="line"/>
      <point x="1429" y="1184" type="line"/>
      <point x="1307" y="314" type="line"/>
      <point x="1048" y="314" type="line"/>
      <point x="1143" y="977" type="line"/>
    </contour>
  </outline>
</glyph>
<glyph name="uni00AD" format="1">
  <advance width="1096"/>
  <unicode hex="00AD"/>
  <outline>
    <contour>
      <point x="993" y="587" type="line"/>
      <point x="88" y="587" type="line"/>
      <point x="115" y="840" type="line"/>
      <point x="1021" y="840" type="line"/>
    </contour>
  </outline>
</glyph>
<glyph name="registered" format="1">
  <advance width="1205"/>
  <unicode hex="00AE"/>
  <outline>
    <contour>
      <point x="641" y="1438" type="line" smooth="yes"/>
      <point x="770.512" y="1438"/>
      <point x="897.104" y="1418.63"/>
      <point x="897.104" y="1291.57" type="curve" smooth="yes"/>
      <point x="897.104" y="1174.83"/>
      <point x="835.636" y="1129.35"/>
      <point x="736" y="1102" type="curve"/>
      <point x="860" y="853" type="line"/>
      <point x="756" y="811" type="line"/>
      <point x="632" y="1080" type="line"/>
      <point x="599" y="1080" type="line"/>
      <point x="572" y="834" type="line"/>
      <point x="462" y="834" type="line"/>
      <point x="527" y="1438" type="line"/>
    </contour>
    <contour>
      <point x="716" y="1557" type="curve" smooth="yes"/>
      <point x="467.121" y="1557"/>
      <point x="248.76" y="1337.06"/>
      <point x="248.76" y="1085.05" type="curve" smooth="yes"/>
      <point x="248.76" y="860.333"/>
      <point x="392.803" y="698"/>
      <point x="623" y="698" type="curve" smooth="yes"/>
      <point x="890.66" y="698"/>
      <point x="1085.41" y="909.191"/>
      <point x="1085.41" y="1178.35" type="curve" smooth="yes"/>
      <point x="1085.41" y="1403.05"/>
      <point x="939.521" y="1557"/>
    </contour>
    <contour>
      <point x="787.117" y="1274.86" type="curve" smooth="yes"/>
      <point x="787.117" y="1338.02"/>
      <point x="721.542" y="1341.05"/>
      <point x="654.918" y="1341.05" type="curve" smooth="yes"/>
      <point x="646.901" y="1341.05"/>
      <point x="638.889" y="1341"/>
      <point x="631" y="1341" type="curve"/>
      <point x="612" y="1179" type="line"/>
      <point x="655" y="1179" type="line" smooth="yes"/>
      <point x="732.916" y="1179"/>
      <point x="787.117" y="1199.87"/>
    </contour>
    <contour>
      <point x="137.074" y="1076.66" type="curve" smooth="yes"/>
      <point x="137.074" y="1405.3"/>
      <point x="418.179" y="1671"/>
      <point x="738" y="1671" type="curve" smooth="yes"/>
      <point x="1012.88" y="1671"/>
      <point x="1199.83" y="1466.13"/>
      <point x="1199.83" y="1192.23" type="curve" smooth="yes"/>
      <point x="1199.83" y="853.181"/>
      <point x="948.852" y="585"/>
      <point x="610" y="585" type="curve" smooth="yes"/>
      <point x="322.845" y="585"/>
      <point x="137.074" y="796.229"/>
    </contour>
  </outline>
</glyph>
<glyph name="degree" format="1">
  <advance width="855"/>
  <unicode hex="00B0"/>
  <outline>
    <contour>
      <point x="380" y="395" type="curve" smooth="yes"/>
      <point x="269.404" y="395"/>
      <point x="173.2" y="303.933"/>
      <point x="173.2" y="194.595" type="curve" smooth="yes"/>
      <point x="173.2" y="105.741"/>
      <point x="247.353" y="33"/>
      <point x="340" y="33" type="curve" smooth="yes"/>
      <point x="451.156" y="33"/>
      <point x="544.728" y="122.39"/>
      <point x="544.728" y="232.672" type="curve" smooth="yes"/>
      <point x="544.728" y="321.859"/>
      <point x="472.901" y="395"/>
    </contour>
    <contour>
      <point x="12.8885" y="177.608" type="curve" smooth="yes"/>
      <point x="12.8885" y="383.325"/>
      <point x="191.787" y="544"/>
      <point x="396" y="544" type="curve" smooth="yes"/>
      <point x="576.026" y="544"/>
      <point x="703.435" y="422.937"/>
      <point x="703.435" y="244.227" type="curve" smooth="yes"/>
      <point x="703.435" y="41.3698"/>
      <point x="526.905" y="-116"/>
      <point x="325" y="-116" type="curve" smooth="yes"/>
      <point x="149.425" y="-116"/>
      <point x="12.8885" y="3.71283"/>
    </contour>
  </outline>
</glyph>
<glyph name="plusminus" format="1">
  <advance width="1036"/>
  <unicode hex="00B1"/>
  <outline>
    <contour>
      <point x="818" y="3" type="line"/>
      <point x="6" y="3" type="line"/>
      <point x="33" y="231" type="line"/>
      <point x="847" y="231" type="line"/>
    </contour>
    <contour>
      <point x="923" y="639" type="line"/>
      <point x="656" y="639" type="line"/>
      <point x="616" y="324" type="line"/>
      <point x="357" y="324" type="line"/>
      <point x="397" y="639" type="line"/>
      <point x="131" y="639" type="line"/>
      <point x="161" y="883" type="line"/>
      <point x="426" y="883" type="line"/>
      <point x="466" y="1198" type="line"/>
      <point x="725" y="1198" type="line"/>
      <point x="686" y="883" type="line"/>
      <point x="953" y="883" type="line"/>
    </contour>
  </outline>
</glyph>
<glyph name="uni00B2" format="1">
  <advance width="884"/>
  <unicode hex="00B2"/>
  <outline>
    <contour>
      <point x="549" y="1625" type="curve" smooth="yes"/>
      <point x="738.665" y="1625"/>
      <point x="877.162" y="1544.23"/>
      <point x="877.162" y="1353.64" type="curve" smooth="yes"/>
      <point x="877.162" y="1159.41"/>
      <point x="744.698" y="1058.8"/>
      <point x="633" y="962" type="curve"/>
      <point x="491" y="841" type="line"/>
      <point x="796" y="841" type="line"/>
      <point x="774" y="630" type="line"/>
      <point x="115" y="630" type="line"/>
      <point x="133" y="804" type="line"/>
      <point x="232" y="885"/>
      <point x="326" y="957"/>
      <point x="426" y="1044" type="curve" smooth="yes"/>
      <point x="510.69" y="1117.4"/>
      <point x="605.764" y="1173.01"/>
      <point x="629" y="1295" type="curve"/>
      <point x="629" y="1380"/>
      <point x="599" y="1419"/>
      <point x="512" y="1419" type="curve" smooth="yes"/>
      <point x="410.093" y="1419"/>
      <point x="317.356" y="1367.53"/>
      <point x="243" y="1335" type="curve"/>
      <point x="197" y="1523" type="line"/>
      <point x="291" y="1563"/>
      <point x="413" y="1625"/>
    </contour>
  </outline>
</glyph>
<glyph name="uni00B3" format="1">
  <advance width="867"/>
  <unicode hex="00B3"/>
  <outline>
    <contour>
      <point x="485" y="1626" type="curve" smooth="yes"/>
      <point x="689.793" y="1626"/>
      <point x="836.216" y="1559.26"/>
      <point x="836.216" y="1355.4" type="curve" smooth="yes"/>
      <point x="836.216" y="1213.07"/>
      <point x="761.059" y="1101.3"/>
      <point x="644" y="1079" type="curve"/>
      <point x="737" y="1054"/>
      <point x="806" y="968"/>
      <point x="809" y="855" type="curve"/>
      <point x="809" y="604.987"/>
      <point x="627.639" y="473"/>
      <point x="373" y="473" type="curve" smooth="yes"/>
      <point x="268" y="473"/>
      <point x="170" y="492"/>
      <point x="108" y="533" type="curve"/>
      <point x="131" y="601"/>
      <point x="148" y="656"/>
      <point x="167" y="723" type="curve"/>
      <point x="232" y="701"/>
      <point x="307" y="678"/>
      <point x="388" y="678" type="curve" smooth="yes"/>
      <point x="503" y="678"/>
      <point x="572" y="725"/>
      <point x="572" y="835" type="curve"/>
      <point x="567" y="947"/>
      <point x="481" y="978"/>
      <point x="355" y="980" type="curve"/>
      <point x="376" y="1176" type="line"/>
      <point x="493.504" y="1176"/>
      <point x="608.165" y="1204.43"/>
      <point x="608.165" y="1315.08" type="curve" smooth="yes"/>
      <point x="608.165" y="1391.36"/>
      <point x="564.404" y="1419"/>
      <point x="480" y="1419" type="curve" smooth="yes"/>
      <point x="392" y="1419"/>
      <point x="312" y="1387"/>
      <point x="251" y="1360" type="curve"/>
      <point x="188" y="1542" type="line"/>
      <point x="268" y="1582"/>
      <point x="362" y="1626"/>
    </contour>
  </outline>
</glyph>
<glyph name="acute" format="1">
  <advance width="903"/>
  <unicode hex="00B4"/>
  <outline>
    <contour>
      <point x="535" y="148" type="line"/>
      <point x="337" y="148" type="line"/>
      <point x="514" y="837" type="line"/>
      <point x="894" y="837" type="line"/>
    </contour>
  </outline>
</glyph>
<glyph name="uni00B5" format="1">
  <advance width="1278"/>
  <unicode hex="00B5"/>
  <outline>
    <contour>
      <point x="224" y="1127" type="line"/>
      <point x="529" y="1127" type="line"/>
      <point x="432" y="438" type="line" smooth="yes"/>
      <point x="429" y="419"/>
      <point x="427" y="403"/>
      <point x="426" y="392" type="curve"/>
      <point x="426" y="287.602"/>
      <point x="457.728" y="216.209"/>
      <point x="558" y="211" type="curve"/>
      <point x="645" y="215"/>
      <point x="701" y="246"/>
      <point x="747" y="297" type="curve"/>
      <point x="868" y="1127" type="line"/>
      <point x="1172" y="1127" type="line"/>
      <point x="1012" y="0" type="line"/>
      <point x="797" y="0" type="line"/>
      <point x="782" y="58"/>
      <point x="769" y="112"/>
      <point x="754" y="170" type="curve"/>
      <point x="704" y="73"/>
      <point x="617" y="-17"/>
      <point x="471" y="-17" type="curve" smooth="yes"/>
      <point x="382.028" y="-17"/>
      <point x="310.763" y="-0.103846"/>
      <point x="256.261" y="33.2909" type="curve"/>
      <point x="211" y="-290" type="line"/>
      <point x="22" y="-270" type="line"/>
    </contour>
  </outline>
</glyph>
<glyph name="paragraph" format="1">
  <advance width="1373"/>
  <unicode hex="00B6"/>
  <outline>
    <contour>
      <point x="140" y="1099" type="curve" smooth="yes"/>
      <point x="140" y="1478"/>
      <point x="400" y="1606"/>
      <point x="775" y="1606" type="curve" smooth="yes"/>
      <point x="1331" y="1606" type="line"/>
      <point x="1107" y="0" type="line"/>
      <point x="871" y="0" type="line"/>
      <point x="1073" y="1454" type="line"/>
      <point x="945" y="1454" type="line"/>
      <point x="742" y="0" type="line"/>
      <point x="503" y="0" type="line"/>
      <point x="607" y="743" type="line"/>
      <point x="341" y="743"/>
      <point x="140" y="832"/>
    </contour>
  </outline>
</glyph>
<glyph name="periodcentered" format="1">
  <advance width="658"/>
  <unicode hex="00B7"/>
  <outline>
    <contour>
      <point x="504" y="504" type="line"/>
      <point x="106" y="502" type="line"/>
      <point x="165" y="924" type="line"/>
      <point x="565" y="924" type="line"/>
    </contour>
  </outline>
</glyph>
<glyph name="onequarter" format="1">
  <advance width="1863"/>
  <unicode hex="00BC"/>
  <outline>
    <contour>
      <point x="327" y="-30" type="line"/>
      <point x="1237" y="1551" type="line"/>
      <point x="1432" y="1465" type="line"/>
      <point x="513" y="-110" type="line"/>
    </contour>
    <contour>
      <point x="1501" y="1033" type="line"/>
      <point x="1684" y="982" type="line"/>
      <point x="1595" y="293" type="line"/>
      <point x="1728" y="293" type="line"/>
      <point x="1702" y="92" type="line"/>
      <point x="1568" y="92" type="line"/>
      <point x="1538" y="-138" type="line"/>
      <point x="1316" y="-140" type="line"/>
      <point x="1346" y="92" type="line"/>
      <point x="910" y="92" type="line"/>
      <point x="908" y="250" type="line"/>
    </contour>
    <contour>
      <point x="1183" y="291" type="line"/>
      <point x="1371" y="291" type="line"/>
      <point x="1417" y="618" type="line"/>
    </contour>
    <contour>
      <point x="237" y="434" type="line"/>
      <point x="333" y="1174" type="line"/>
      <point x="202" y="1117" type="line"/>
      <point x="158" y="1301" type="line"/>
      <point x="440" y="1413" type="line"/>
      <point x="600" y="1374" type="line"/>
      <point x="478" y="434" type="line"/>
    </contour>
  </outline>
</glyph>
<glyph name="onehalf" format="1">
  <advance width="1968"/>
  <unicode hex="00BD"/>
  <outline>
    <contour>
      <point x="324" y="-30" type="line"/>
      <point x="1234" y="1551" type="line"/>
      <point x="1429" y="1465" type="line"/>
      <point x="511" y="-110" type="line"/>
    </contour>
    <contour>
      <point x="236" y="434" type="line"/>
      <point x="333" y="1174" type="line"/>
      <point x="202" y="1117" type="line"/>
      <point x="158" y="1301" type="line"/>
      <point x="440" y="1413" type="line"/>
      <point x="600" y="1374" type="line"/>
      <point x="477" y="434" type="line"/>
    </contour>
    <contour>
      <point x="1564" y="955" type="curve" smooth="yes"/>
      <point x="1744.81" y="955"/>
      <point x="1879.2" y="883.314"/>
      <point x="1879.2" y="701.749" type="curve" smooth="yes"/>
      <point x="1879.2" y="508.166"/>
      <point x="1740.63" y="398.996"/>
      <point x="1630" y="306" type="curve" smooth="yes"/>
      <point x="1498" y="195" type="line"/>
      <point x="1792" y="195" type="line"/>
      <point x="1766" y="-16" type="line"/>
      <point x="1116" y="-16" type="line"/>
      <point x="1137" y="157" type="line"/>
      <point x="1417" y="382" type="line"/>
      <point x="1497.39" y="448.355"/>
      <point x="1631.13" y="521.499"/>
      <point x="1631.13" y="651.772" type="curve" smooth="yes"/>
      <point x="1631.13" y="717.164"/>
      <point x="1595.01" y="749"/>
      <point x="1521" y="749" type="curve" smooth="yes"/>
      <point x="1419" y="749"/>
      <point x="1324" y="698"/>
      <point x="1250" y="667" type="curve"/>
      <point x="1213" y="857" type="line"/>
      <point x="1296.84" y="897"/>
      <point x="1418.6" y="955"/>
    </contour>
  </outline>
</glyph>
<glyph name="Eth" format="1">
  <advance width="1479"/>
  <unicode hex="00D0"/>
  <outline>
    <contour>
      <point x="868" y="1607" type="line" smooth="yes"/>
      <point x="1237.72" y="1607"/>
      <point x="1420" y="1401.06"/>
      <point x="1419" y="1027" type="curve"/>
      <point x="1420" y="571.489"/>
      <point x="1278.64" y="227.327"/>
      <point x="979" y="74" type="curve" smooth="yes"/>
      <point x="882" y="25"/>
      <point x="771" y="0"/>
      <point x="645" y="0" type="curve" smooth="yes"/>
      <point x="89" y="0" type="line"/>
      <point x="191" y="736" type="line"/>
      <point x="90" y="736" type="line"/>
      <point x="118" y="918" type="line"/>
      <point x="217" y="918" type="line"/>
      <point x="313" y="1607" type="line"/>
    </contour>
    <contour>
      <point x="1101" y="1009" type="curve"/>
      <point x="1101" y="1219"/>
      <point x="1040" y="1372"/>
      <point x="846" y="1372" type="curve" smooth="yes"/>
      <point x="606" y="1372" type="line"/>
      <point x="539" y="918" type="line"/>
      <point x="787" y="918" type="line"/>
      <point x="758" y="736" type="line"/>
      <point x="514" y="736" type="line"/>
      <point x="441" y="231" type="line"/>
      <point x="661" y="231" type="line" smooth="yes"/>
      <point x="1017" y="231"/>
      <point x="1099.25" y="646.671"/>
    </contour>
  </outline>
</glyph>
<glyph name="Oslash" format="1">
  <advance width="1486"/>
  <unicode hex="00D8"/>
  <outline>
    <contour>
      <point x="633" y="216" type="line"/>
      <point x="651" y="211"/>
      <point x="672" y="211"/>
      <point x="696" y="211" type="curve" smooth="yes"/>
      <point x="1035.85" y="211"/>
      <point x="1143.84" y="583.57"/>
      <point x="1143.84" y="931.198" type="curve" smooth="yes"/>
      <point x="1143.84" y="1091.45"/>
      <point x="1119.42" y="1222.21"/>
      <point x="1043" y="1302" type="curve"/>
    </contour>
    <contour>
      <point x="392" y="26" type="line"/>
      <point x="193.387" y="131.783"/>
      <point x="107.098" y="339.602"/>
      <point x="107.098" y="648.554" type="curve" smooth="yes"/>
      <point x="107.098" y="1168.99"/>
      <point x="339.712" y="1627"/>
      <point x="856" y="1627" type="curve" smooth="yes"/>
      <point x="908" y="1627"/>
      <point x="955" y="1625"/>
      <point x="993" y="1613" type="curve"/>
      <point x="1052" y="1769" type="line"/>
      <point x="1197" y="1713" type="line"/>
      <point x="1138" y="1557" type="line"/>
      <point x="1330.89" y="1447.09"/>
      <point x="1417.9" y="1231.27"/>
      <point x="1417.9" y="922.157" type="curve" smooth="yes"/>
      <point x="1417.9" y="407.221"/>
      <point x="1183.13" y="-38"/>
      <point x="673" y="-38" type="curve" smooth="yes"/>
      <point x="630" y="-38"/>
      <point x="586" y="-34"/>
      <point x="542" y="-26" type="curve"/>
      <point x="485" y="-179" type="line"/>
      <point x="336" y="-122" type="line"/>
    </contour>
    <contour>
      <point x="903" y="1372" type="line"/>
      <point x="882" y="1376"/>
      <point x="862" y="1379"/>
      <point x="838" y="1379" type="curve" smooth="yes"/>
      <point x="511.41" y="1379"/>
      <point x="379.86" y="1001.14"/>
      <point x="379.86" y="663.525" type="curve" smooth="yes"/>
      <point x="379.86" y="489.937"/>
      <point x="412.505" y="356.07"/>
      <point x="489" y="283" type="curve"/>
    </contour>
  </outline>
</glyph>
<glyph name="iacute" format="1">
  <advance width="557"/>
  <unicode hex="00ED"/>
  <outline>
    <contour>
      <point x="335" y="0" type="line"/>
      <point x="33" y="0" type="line"/>
      <point x="188" y="1129" type="line"/>
      <point x="490" y="1129" type="line"/>
    </contour>
    <contour>
      <point x="361" y="1248" type="line"/>
      <point x="171" y="1250" type="line"/>
      <point x="353" y="1939" type="line"/>
      <point x="730" y="1930" type="line"/>
    </contour>
  </outline>
</glyph>
<glyph name="eth" format="1">
  <advance width="1151"/>
  <unicode hex="00F0"/>
  <outline>
    <contour>
      <point x="357.781" y="462.96" type="curve" smooth="yes"/>
      <point x="357.781" y="307.945"/>
      <point x="405.326" y="214"/>
      <point x="511" y="214" type="curve" smooth="yes"/>
      <point x="664.519" y="214"/>
      <point x="721.923" y="397.912"/>
      <point x="738" y="541" type="curve" smooth="yes"/>
      <point x="747.363" y="630.615"/>
      <point x="756.041" y="720.367"/>
      <point x="766" y="810" type="curve"/>
      <point x="726" y="876"/>
      <point x="662" y="920"/>
      <point x="566" y="920" type="curve" smooth="yes"/>
      <point x="383.599" y="920"/>
      <point x="357.781" y="642.724"/>
    </contour>
    <contour>
      <point x="925" y="1423" type="line"/>
      <point x="1014.16" y="1261.4"/>
      <point x="1061.17" y="1068.53"/>
      <point x="1061.17" y="821.618" type="curve" smooth="yes"/>
      <point x="1061.17" y="361.315"/>
      <point x="905.776" y="-16"/>
      <point x="449" y="-16" type="curve" smooth="yes"/>
      <point x="168.203" y="-16"/>
      <point x="56.5605" y="183.574"/>
      <point x="56.5605" y="452.996" type="curve" smooth="yes"/>
      <point x="56.5605" y="791.124"/>
      <point x="188.811" y="1149"/>
      <point x="524" y="1149" type="curve" smooth="yes"/>
      <point x="654" y="1149"/>
      <point x="739" y="1092"/>
      <point x="786" y="1005" type="curve"/>
      <point x="780.262" y="1134.09"/>
      <point x="730.165" y="1222.49"/>
      <point x="669" y="1326" type="curve"/>
      <point x="498" y="1262" type="line"/>
      <point x="438" y="1403" type="line"/>
      <point x="581" y="1456" type="line"/>
      <point x="539" y="1508"/>
      <point x="500" y="1555"/>
      <point x="450" y="1592" type="curve"/>
      <point x="597" y="1783" type="line"/>
      <point x="688" y="1713"/>
      <point x="768" y="1639"/>
      <point x="836" y="1554" type="curve"/>
      <point x="1053" y="1635" type="line"/>
      <point x="1110" y="1494" type="line"/>
    </contour>
  </outline>
</glyph>
<glyph name="divide" format="1">
  <advance width="718"/>
  <unicode hex="00F7"/>
  <outline>
    <contour>
      <point x="172" y="737" type="line"/>
      <point x="231" y="1159" type="line"/>
      <point x="614" y="1159" type="line"/>
      <point x="554" y="737" type="line"/>
    </contour>
    <contour>
      <point x="86" y="0" type="line"/>
      <point x="145" y="423" type="line"/>
      <point x="528" y="423" type="line"/>
      <point x="469" y="0" type="line"/>
    </contour>
  </outline>
</glyph>
<glyph name="Hbar" format="1">
  <advance width="1532"/>
  <unicode hex="0126"/>
  <outline>
    <contour>
      <point x="1576" y="1196" type="line"/>
      <point x="144" y="1196" type="line"/>
      <point x="175" y="1422" type="line"/>
      <point x="1609" y="1422" type="line"/>
    </contour>
    <contour>
      <point x="958" y="0" type="line"/>
      <point x="1067" y="724" type="line"/>
      <point x="485" y="724" type="line"/>
      <point x="378" y="0" type="line"/>
      <point x="62" y="0" type="line"/>
      <point x="302" y="1606" type="line"/>
      <point x="617" y="1606" type="line"/>
      <point x="519" y="951" type="line"/>
      <point x="1098" y="951" type="line"/>
      <point x="1198" y="1606" type="line"/>
      <point x="1509" y="1606" type="line"/>
      <point x="1269" y="0" type="line"/>
    </contour>
  </outline>
</glyph>
<glyph name="imacron" format="1">
  <advance width="559"/>
  <unicode hex="012B"/>
  <outline>
    <contour>
      <point x="333" y="0" type="line"/>
      <point x="28" y="0" type="line"/>
      <point x="192" y="1127" type="line"/>
      <point x="497" y="1127" type="line"/>
    </contour>
    <contour>
      <point x="771" y="1290" type="line"/>
      <point x="-30" y="1290" type="line"/>
      <point x="1" y="1516" type="line"/>
      <point x="804" y="1516" type="line"/>
    </contour>
  </outline>
</glyph>
<glyph name="dotlessi" format="1">
  <advance width="559"/>
  <unicode hex="0131"/>
  <outline>
    <contour>
      <point x="333" y="0" type="line"/>
      <point x="28" y="0" type="line"/>
      <point x="192" y="1127" type="line"/>
      <point x="497" y="1127" type="line"/>
    </contour>
  </outline>
</glyph>
<glyph name="jcircumflex" format="1">
  <advance width="562"/>
  <unicode hex="0135"/>
  <outline>
    <contour>
      <point x="-158" y="-129" type="line"/>
      <point x="-66" y="-70"/>
      <point x="6" y="-12"/>
      <point x="43" y="100" type="curve" smooth="yes"/>
      <point x="54" y="134"/>
      <point x="63" y="175"/>
      <point x="69" y="222" type="curve" smooth="yes"/>
      <point x="189" y="1127" type="line"/>
      <point x="495" y="1127" type="line"/>
      <point x="372" y="202" type="line"/>
      <point x="339" y="-20"/>
      <point x="221" y="-189"/>
      <point x="65" y="-287" type="curve" smooth="yes"/>
      <point x="13" y="-320"/>
      <point x="-41" y="-343"/>
      <point x="-98" y="-357" type="curve"/>
    </contour>
    <contour>
      <point x="351" y="1970" type="line"/>
      <point x="570" y="1970" type="line"/>
      <point x="741" y="1331" type="line"/>
      <point x="498" y="1331" type="line"/>
      <point x="429" y="1650" type="line"/>
      <point x="282" y="1331" type="line"/>
      <point x="26" y="1331" type="line"/>
    </contour>
  </outline>
</glyph>
<glyph name="kgreenlandic" format="1">
  <advance width="1134"/>
  <unicode hex="0138"/>
  <outline>
    <contour>
      <point x="389" y="408" type="line"/>
      <point x="331" y="0" type="line"/>
      <point x="28" y="0" type="line"/>
      <point x="192" y="1127" type="line"/>
      <point x="496" y="1126" type="line"/>
      <point x="433" y="707" type="line"/>
      <point x="824" y="1127" type="line"/>
      <point x="1161" y="1127" type="line"/>
      <point x="689" y="632" type="line"/>
      <point x="1048" y="0" type="line"/>
      <point x="726" y="0" type="line"/>
      <point x="460" y="474" type="line"/>
    </contour>
  </outline>
</glyph>
<glyph name="ldot" format="1">
  <advance width="805"/>
  <unicode hex="0140"/>
  <outline>
    <contour>
      <point x="575" y="1668" type="line"/>
      <point x="332" y="0" type="line"/>
      <point x="29" y="0" type="line"/>
      <point x="265" y="1622" type="line"/>
    </contour>
    <contour>
      <point x="751" y="1132" type="curve" smooth="yes"/>
      <point x="842" y="1132"/>
      <point x="902" y="1063"/>
      <point x="902" y="972" type="curve" smooth="yes"/>
      <point x="902" y="869"/>
      <point x="839" y="797"/>
      <point x="766" y="766" type="curve" smooth="yes"/>
      <point x="743" y="756"/>
      <point x="719" y="751"/>
      <point x="694" y="751" type="curve" smooth="yes"/>
      <point x="604" y="751"/>
      <point x="541" y="818"/>
      <point x="544" y="910" type="curve"/>
      <point x="544" y="1008"/>
      <point x="607" y="1081"/>
      <point x="674" y="1114" type="curve" smooth="yes"/>
      <point x="699" y="1126"/>
      <point x="724" y="1132"/>
    </contour>
  </outline>
</glyph>
<glyph name="Eng" format="1">
  <advance width="1568"/>
  <unicode hex="014A"/>
  <outline>
    <contour>
      <point x="643" y="-409" type="line"/>
      <point x="814" y="-380"/>
      <point x="933" y="-337"/>
      <point x="971" y="-186" type="curve" smooth="yes"/>
      <point x="981" y="-146"/>
      <point x="990" y="-99"/>
      <point x="997" y="-45" type="curve"/>
      <point x="986" y="0" type="line"/>
      <point x="818" y="375"/>
      <point x="669" y="770"/>
      <point x="514" y="1158" type="curve"/>
      <point x="353" y="0" type="line"/>
      <point x="61" y="0" type="line"/>
      <point x="294" y="1605" type="line"/>
      <point x="631" y="1605" type="line"/>
      <point x="793" y="1225"/>
      <point x="947" y="836"/>
      <point x="1103" y="450" type="curve"/>
      <point x="1256" y="1605" type="line"/>
      <point x="1549" y="1605" type="line"/>
      <point x="1315" y="0" type="line"/>
      <point x="1286" y="-230"/>
      <point x="1229" y="-417"/>
      <point x="1077" y="-526" type="curve" smooth="yes"/>
      <point x="982" y="-594"/>
      <point x="856" y="-631"/>
      <point x="696" y="-642" type="curve"/>
    </contour>
  </outline>
</glyph>
<glyph name="eng" format="1">
  <advance width="1182"/>
  <unicode hex="014B"/>
  <outline>
    <contour>
      <point x="766" y="1144" type="curve" smooth="yes"/>
      <point x="982" y="1144"/>
      <point x="1075" y="1036"/>
      <point x="1075" y="820" type="curve" smooth="yes"/>
      <point x="1075" y="772"/>
      <point x="1070" y="732"/>
      <point x="1064" y="686" type="curve" smooth="yes"/>
      <point x="993" y="202" type="line" smooth="yes"/>
      <point x="960" y="-20"/>
      <point x="842" y="-189"/>
      <point x="686" y="-287" type="curve" smooth="yes"/>
      <point x="634" y="-320"/>
      <point x="580" y="-343"/>
      <point x="523" y="-357" type="curve"/>
      <point x="463" y="-129" type="line"/>
      <point x="556" y="-70"/>
      <point x="626" y="-11"/>
      <point x="663" y="100" type="curve" smooth="yes"/>
      <point x="686" y="169"/>
      <point x="701" y="297"/>
      <point x="712" y="373" type="curve" smooth="yes"/>
      <point x="730" y="492"/>
      <point x="743" y="591"/>
      <point x="762" y="702" type="curve" smooth="yes"/>
      <point x="766" y="732"/>
      <point x="768" y="757"/>
      <point x="768" y="778" type="curve" smooth="yes"/>
      <point x="768" y="873"/>
      <point x="738" y="916"/>
      <point x="644" y="916" type="curve" smooth="yes"/>
      <point x="564" y="916"/>
      <point x="495" y="875"/>
      <point x="453" y="831" type="curve"/>
      <point x="332" y="0" type="line"/>
      <point x="28" y="0" type="line"/>
      <point x="192" y="1127" type="line"/>
      <point x="423" y="1127" type="line"/>
      <point x="458" y="980" type="line"/>
      <point x="509" y="1047"/>
      <point x="587" y="1104"/>
      <point x="678" y="1131" type="curve" smooth="yes"/>
      <point x="707" y="1140"/>
      <point x="737" y="1144"/>
    </contour>
  </outline>
</glyph>
<glyph name="OE" format="1">
  <advance width="2139"/>
  <unicode hex="0152"/>
  <outline>
    <contour>
      <point x="876" y="1627" type="curve" smooth="yes"/>
      <point x="1030" y="1627"/>
      <point x="1160" y="1559"/>
      <point x="1196" y="1437" type="curve"/>
      <point x="1209" y="1606" type="line"/>
      <point x="2156" y="1606" type="line"/>
      <point x="2121" y="1373" type="line"/>
      <point x="1490" y="1373" type="line"/>
      <point x="1433" y="955" type="line"/>
      <point x="1997" y="955" type="line"/>
      <point x="1968" y="729" type="line"/>
      <point x="1401" y="729" type="line"/>
      <point x="1331" y="229" type="line"/>
      <point x="2000" y="229" type="line"/>
      <point x="1956" y="0" type="line"/>
      <point x="992" y="0" type="line"/>
      <point x="1011" y="121" type="line"/>
      <point x="950" y="21"/>
      <point x="800" y="-38"/>
      <point x="644" y="-38" type="curve" smooth="yes"/>
      <point x="266" y="-38"/>
      <point x="98" y="213"/>
      <point x="98" y="595" type="curve" smooth="yes"/>
      <point x="98" y="1016"/>
      <point x="236" y="1329"/>
      <point x="482" y="1503" type="curve" smooth="yes"/>
      <point x="584" y="1575"/>
      <point x="713" y="1627"/>
    </contour>
    <contour>
      <point x="1099" y="970" type="curve"/>
      <point x="1099" y="1195"/>
      <point x="1046" y="1358"/>
      <point x="838" y="1358" type="curve" smooth="yes"/>
      <point x="701" y="1358"/>
      <point x="607" y="1271"/>
      <point x="546" y="1174" type="curve" smooth="yes"/>
      <point x="461" y="1040"/>
      <point x="418" y="847"/>
      <point x="418" y="618" type="curve" smooth="yes"/>
      <point x="418" y="361"/>
      <point x="506" y="232"/>
      <point x="681" y="232" type="curve" smooth="yes"/>
      <point x="834" y="232"/>
      <point x="927" y="334"/>
      <point x="987" y="443" type="curve" smooth="yes"/>
      <point x="1060" y="576"/>
      <point x="1098" y="763"/>
    </contour>
  </outline>
</glyph>
<glyph name="florin" format="1">
  <advance width="750"/>
  <unicode hex="0192"/>
  <outline>
    <contour>
      <point x="697" y="1379" type="curve" smooth="yes"/>
      <point x="616" y="1379"/>
      <point x="564" y="1293"/>
      <point x="542" y="1120" type="curve"/>
      <point x="791" y="1120" type="line"/>
      <point x="770" y="967" type="line"/>
      <point x="521" y="967" type="line"/>
      <point x="448" y="406" type="line" smooth="yes"/>
      <point x="420" y="189"/>
      <point x="386" y="4"/>
      <point x="298" y="-132" type="curve" smooth="yes"/>
      <point x="234" y="-230"/>
      <point x="147" y="-290"/>
      <point x="-3" y="-290" type="curve" smooth="yes"/>
      <point x="-80" y="-290"/>
      <point x="-129" y="-246"/>
      <point x="-161" y="-203" type="curve"/>
      <point x="-120" y="-12" type="line"/>
      <point x="-113" y="-19"/>
      <point x="-94" y="-25"/>
      <point x="-82" y="-30" type="curve" smooth="yes"/>
      <point x="-53" y="-43"/>
      <point x="-18" y="-59"/>
      <point x="12" y="-70" type="curve" smooth="yes"/>
      <point x="19" y="-73"/>
      <point x="23" y="-74"/>
      <point x="24" y="-74" type="curve" smooth="yes"/>
      <point x="69" y="-74"/>
      <point x="83" y="-29"/>
      <point x="94" y="17" type="curve" smooth="yes"/>
      <point x="118" y="115"/>
      <point x="127" y="219"/>
      <point x="142" y="346" type="curve" smooth="yes"/>
      <point x="217" y="967" type="line"/>
      <point x="83" y="967" type="line"/>
      <point x="104" y="1120" type="line"/>
      <point x="237" y="1120" type="line"/>
      <point x="266" y="1330"/>
      <point x="346" y="1509"/>
      <point x="500" y="1592" type="curve" smooth="yes"/>
      <point x="549" y="1618"/>
      <point x="605" y="1631"/>
      <point x="668" y="1631" type="curve" smooth="yes"/>
      <point x="740" y="1631"/>
      <point x="806" y="1612"/>
      <point x="862" y="1593" type="curve"/>
      <point x="824" y="1354" type="line"/>
      <point x="791" y="1371"/>
      <point x="748" y="1379"/>
    </contour>
  </outline>
</glyph>
<glyph name="circumflex" format="1">
  <advance width="1159"/>
  <unicode hex="02C6"/>
  <outline>
    <contour>
      <point x="553" y="790" type="line"/>
      <point x="772" y="790" type="line"/>
      <point x="943" y="151" type="line"/>
      <point x="700" y="151" type="line"/>
      <point x="631" y="470" type="line"/>
      <point x="484" y="151" type="line"/>
      <point x="228" y="151" type="line"/>
    </contour>
  </outline>
</glyph>
<glyph name="caron" format="1">
  <advance width="1159"/>
  <unicode hex="02C7"/>
  <outline>
    <contour>
      <point x="687" y="150" type="line"/>
      <point x="468" y="150" type="line"/>
      <point x="298" y="789" type="line"/>
      <point x="541" y="789" type="line"/>
      <point x="610" y="469" type="line"/>
      <point x="757" y="789" type="line"/>
      <point x="1013" y="789" type="line"/>
    </contour>
  </outline>
</glyph>
<glyph name="breve" format="1">
  <advance width="1249"/>
  <unicode hex="02D8"/>
  <outline>
    <contour>
      <point x="702" y="202" type="curve" smooth="yes"/>
      <point x="818" y="202"/>
      <point x="851" y="277"/>
      <point x="868" y="388" type="curve"/>
      <point x="1070" y="388" type="line"/>
      <point x="1030" y="175"/>
      <point x="919" y="63"/>
      <point x="678" y="63" type="curve" smooth="yes"/>
      <point x="500" y="63"/>
      <point x="384" y="136"/>
      <point x="384" y="305" type="curve" smooth="yes"/>
      <point x="384" y="330"/>
      <point x="387" y="358"/>
      <point x="393" y="388" type="curve"/>
      <point x="597" y="388" type="line"/>
      <point x="593" y="366"/>
      <point x="591" y="344"/>
      <point x="591" y="322" type="curve" smooth="yes"/>
      <point x="591" y="245"/>
      <point x="624" y="202"/>
    </contour>
  </outline>
</glyph>
<glyph name="dotaccent" format="1">
  <advance width="722"/>
  <unicode hex="02D9"/>
  <outline>
    <contour>
      <point x="414" y="467" type="curve" smooth="yes"/>
      <point x="505" y="467"/>
      <point x="565" y="398"/>
      <point x="565" y="307" type="curve" smooth="yes"/>
      <point x="565" y="204"/>
      <point x="502" y="132"/>
      <point x="429" y="101" type="curve" smooth="yes"/>
      <point x="406" y="91"/>
      <point x="382" y="86"/>
      <point x="357" y="86" type="curve" smooth="yes"/>
      <point x="267" y="86"/>
      <point x="204" y="153"/>
      <point x="207" y="245" type="curve"/>
      <point x="207" y="343"/>
      <point x="270" y="416"/>
      <point x="337" y="449" type="curve" smooth="yes"/>
      <point x="362" y="461"/>
      <point x="387" y="467"/>
    </contour>
  </outline>
</glyph>
<glyph name="afii10051" format="1">
  <advance width="1608"/>
  <unicode hex="0402"/>
  <outline>
    <contour>
      <point x="827" y="-38" type="line"/>
      <point x="850" y="-44"/>
      <point x="872" y="-49"/>
      <point x="904" y="-49" type="curve" smooth="yes"/>
      <point x="1036" y="-49"/>
      <point x="1101" y="49"/>
      <point x="1121" y="170" type="curve" smooth="yes"/>
      <point x="1214" y="765" type="line" smooth="yes"/>
      <point x="1234" y="887"/>
      <point x="1192" y="989"/>
      <point x="1071" y="989" type="curve" smooth="yes"/>
      <point x="958" y="989"/>
      <point x="901" y="951"/>
      <point x="835" y="903" type="curve"/>
      <point x="702" y="0" type="line"/>
      <point x="387" y="0" type="line"/>
      <point x="591" y="1361" type="line"/>
      <point x="142" y="1361" type="line"/>
      <point x="182" y="1606" type="line"/>
      <point x="1357" y="1606" type="line"/>
      <point x="1318" y="1361" type="line"/>
      <point x="906" y="1361" type="line"/>
      <point x="861" y="1072" type="line"/>
      <point x="925" y="1163"/>
      <point x="1065" y="1218"/>
      <point x="1221" y="1218" type="curve" smooth="yes"/>
      <point x="1420" y="1218"/>
      <point x="1522" y="1114"/>
      <point x="1532" y="928" type="curve" smooth="yes"/>
      <point x="1535" y="870"/>
      <point x="1532" y="808"/>
      <point x="1522" y="742" type="curve" smooth="yes"/>
      <point x="1440" y="204" type="line"/>
      <point x="1396" y="-72"/>
      <point x="1273" y="-280"/>
      <point x="980" y="-280" type="curve" smooth="yes"/>
      <point x="899" y="-280"/>
      <point x="832" y="-269"/>
      <point x="778" y="-242" type="curve"/>
    </contour>
  </outline>
</glyph>
<glyph name="afii10053" format="1">
  <advance width="1307"/>
  <unicode hex="0404"/>
  <outline>
    <contour>
      <point x="671" y="-38" type="curve"/>
      <point x="262" y="-23"/>
      <point x="67" y="218"/>
      <point x="90" y="658" type="curve" smooth="yes"/>
      <point x="92" y="696"/>
      <point x="97" y="736"/>
      <point x="104" y="779" type="curve"/>
      <point x="158" y="1156"/>
      <point x="319" y="1446"/>
      <point x="620" y="1572" type="curve" smooth="yes"/>
      <point x="715" y="1612"/>
      <point x="822" y="1632"/>
      <point x="940" y="1632" type="curve" smooth="yes"/>
      <point x="1107" y="1632"/>
      <point x="1263" y="1599"/>
      <point x="1365" y="1535" type="curve" smooth="yes"/>
      <point x="1374" y="1530"/>
      <point x="1384" y="1525"/>
      <point x="1394" y="1519" type="curve"/>
      <point x="1257" y="1266" type="line"/>
      <point x="1164" y="1332"/>
      <point x="1070" y="1373"/>
      <point x="913" y="1373" type="curve"/>
      <point x="640" y="1367"/>
      <point x="542" y="1154"/>
      <point x="485" y="927" type="curve"/>
      <point x="1055" y="927" type="line"/>
      <point x="1020" y="709" type="line"/>
      <point x="447" y="709" type="line"/>
      <point x="426" y="437"/>
      <point x="481" y="230"/>
      <point x="742" y="230" type="curve" smooth="yes"/>
      <point x="865" y="230"/>
      <point x="988" y="267"/>
      <point x="1109" y="340" type="curve"/>
      <point x="1165" y="88" type="line"/>
      <point x="1050" y="5"/>
      <point x="858" y="-26"/>
    </contour>
  </outline>
</glyph>
<glyph name="afii10058" format="1">
  <advance width="2487"/>
  <unicode hex="0409"/>
  <outline>
    <contour>
      <point x="1579" y="0" type="line"/>
      <point x="1140" y="0" type="line"/>
      <point x="1356" y="1385" type="line"/>
      <point x="792" y="1385" type="line"/>
      <point x="702" y="832" type="line" smooth="yes"/>
      <point x="652" y="526"/>
      <point x="567" y="254"/>
      <point x="354" y="111" type="curve" smooth="yes"/>
      <point x="244" y="37"/>
      <point x="103" y="-3"/>
      <point x="-82" y="-3" type="curve"/>
      <point x="-30" y="323" type="line"/>
      <point x="278" y="323"/>
      <point x="301" y="568"/>
      <point x="346" y="838" type="curve"/>
      <point x="470" y="1606" type="line"/>
      <point x="1748" y="1606" type="line"/>
      <point x="1659" y="1034" type="line"/>
      <point x="1730" y="1034" type="line" smooth="yes"/>
      <point x="2013" y="1034"/>
      <point x="2265" y="1001"/>
      <point x="2378" y="836" type="curve" smooth="yes"/>
      <point x="2434" y="754"/>
      <point x="2445" y="621"/>
      <point x="2420" y="497" type="curve" smooth="yes"/>
      <point x="2342" y="119"/>
      <point x="2049" y="-3"/>
      <point x="1593" y="-3" type="curve"/>
    </contour>
    <contour>
      <point x="2068" y="539" type="curve"/>
      <point x="2073" y="559"/>
      <point x="2074" y="584"/>
      <point x="2071" y="606" type="curve"/>
      <point x="2060" y="783"/>
      <point x="1880" y="817"/>
      <point x="1691" y="817" type="curve" smooth="yes"/>
      <point x="1620" y="817" type="line"/>
      <point x="1526" y="217" type="line"/>
      <point x="1627" y="217" type="line" smooth="yes"/>
      <point x="1894" y="217"/>
      <point x="2036" y="304"/>
    </contour>
  </outline>
</glyph>
<glyph name="afii10060" format="1">
  <advance width="1594"/>
  <unicode hex="040B"/>
  <outline>
    <contour>
      <point x="1168" y="1032" type="line" smooth="yes"/>
      <point x="1402" y="1032"/>
      <point x="1529" y="884"/>
      <point x="1508" y="634" type="curve" smooth="yes"/>
      <point x="1506" y="610"/>
      <point x="1502" y="585"/>
      <point x="1497" y="557" type="curve" smooth="yes"/>
      <point x="1467" y="371"/>
      <point x="1437" y="192"/>
      <point x="1408" y="0" type="curve"/>
      <point x="1069" y="0" type="line"/>
      <point x="1101" y="199"/>
      <point x="1130" y="386"/>
      <point x="1162" y="579" type="curve"/>
      <point x="1183" y="696"/>
      <point x="1141" y="803"/>
      <point x="1026" y="803" type="curve" smooth="yes"/>
      <point x="796" y="803" type="line"/>
      <point x="666" y="0" type="line"/>
      <point x="310" y="0" type="line"/>
      <point x="523" y="1358" type="line"/>
      <point x="133" y="1358" type="line"/>
      <point x="172" y="1606" type="line"/>
      <point x="1358" y="1606" type="line"/>
      <point x="1319" y="1358" type="line"/>
      <point x="880" y="1358" type="line"/>
      <point x="831" y="1032" type="line"/>
    </contour>
  </outline>
</glyph>
<glyph name="afii10062" format="1">
  <advance width="1239"/>
  <unicode hex="040E"/>
  <outline>
    <contour>
      <point x="775" y="1792" type="curve" smooth="yes"/>
      <point x="893" y="1792"/>
      <point x="924" y="1875"/>
      <point x="941" y="1979" type="curve"/>
      <point x="1144" y="1979" type="line"/>
      <point x="1139" y="1974" type="line"/>
      <point x="1104" y="1765"/>
      <point x="987" y="1655"/>
      <point x="752" y="1655" type="curve" smooth="yes"/>
      <point x="558" y="1655"/>
      <point x="443" y="1731"/>
      <point x="460" y="1930" type="curve" smooth="yes"/>
      <point x="461" y="1945"/>
      <point x="464" y="1962"/>
      <point x="467" y="1979" type="curve"/>
      <point x="670" y="1979" type="line"/>
      <point x="668" y="1971"/>
      <point x="667" y="1963"/>
      <point x="666" y="1956" type="curve" smooth="yes"/>
      <point x="664" y="1934" type="line" smooth="yes"/>
      <point x="657" y="1838"/>
      <point x="682" y="1792"/>
    </contour>
    <contour>
      <point x="648" y="910" type="line"/>
      <point x="1047" y="1606" type="line"/>
      <point x="1391" y="1606" type="line"/>
      <point x="753" y="524" type="line"/>
      <point x="682" y="0" type="line"/>
      <point x="373" y="0" type="line"/>
      <point x="444" y="527" type="line"/>
      <point x="125" y="1606" type="line"/>
      <point x="455" y="1606" type="line"/>
    </contour>
  </outline>
</glyph>
<glyph name="afii10021" format="1">
  <advance width="1725"/>
  <unicode hex="0414"/>
  <outline>
    <contour>
      <point x="1454" y="216" type="line"/>
      <point x="1573" y="216" type="line"/>
      <point x="1499" y="-296" type="line"/>
      <point x="1153" y="-296" type="line"/>
      <point x="1195" y="0" type="line"/>
      <point x="246" y="0" type="line"/>
      <point x="203" y="-296" type="line"/>
      <point x="-110" y="-296" type="line"/>
      <point x="-39" y="217" type="line"/>
      <point x="88" y="240"/>
      <point x="171" y="330"/>
      <point x="230" y="429" type="curve" smooth="yes"/>
      <point x="354" y="636"/>
      <point x="400" y="933"/>
      <point x="440" y="1219" type="curve" smooth="yes"/>
      <point x="495" y="1606" type="line"/>
      <point x="1659" y="1606" type="line"/>
    </contour>
    <contour>
      <point x="1144" y="216" type="line"/>
      <point x="1315" y="1386" type="line"/>
      <point x="764" y="1386" type="line"/>
      <point x="714" y="1029" type="line"/>
      <point x="680" y="774"/>
      <point x="620" y="521"/>
      <point x="518" y="330" type="curve" smooth="yes"/>
      <point x="495" y="287"/>
      <point x="470" y="249"/>
      <point x="441" y="216" type="curve"/>
    </contour>
  </outline>
</glyph>
<glyph name="afii10025" format="1">
  <advance width="1305"/>
  <unicode hex="0417"/>
  <outline>
    <contour>
      <point x="178" y="1515" type="line"/>
      <point x="328" y="1580"/>
      <point x="513" y="1631"/>
      <point x="733" y="1631" type="curve" smooth="yes"/>
      <point x="967" y="1631"/>
      <point x="1157" y="1589"/>
      <point x="1245" y="1444" type="curve" smooth="yes"/>
      <point x="1274" y="1397"/>
      <point x="1288" y="1337"/>
      <point x="1288" y="1265" type="curve" smooth="yes"/>
      <point x="1288" y="1081"/>
      <point x="1186" y="941"/>
      <point x="1070" y="867" type="curve" smooth="yes"/>
      <point x="1027" y="840"/>
      <point x="982" y="823"/>
      <point x="934" y="818" type="curve"/>
      <point x="1038" y="804"/>
      <point x="1110" y="718"/>
      <point x="1146" y="630" type="curve" smooth="yes"/>
      <point x="1161" y="593"/>
      <point x="1169" y="552"/>
      <point x="1169" y="506" type="curve" smooth="yes"/>
      <point x="1169" y="94"/>
      <point x="835" y="-38"/>
      <point x="425" y="-38" type="curve" smooth="yes"/>
      <point x="238" y="-38"/>
      <point x="85" y="7"/>
      <point x="-34" y="71" type="curve"/>
      <point x="79" y="327" type="line"/>
      <point x="184" y="271"/>
      <point x="317" y="227"/>
      <point x="480" y="227" type="curve" smooth="yes"/>
      <point x="641" y="227"/>
      <point x="771" y="280"/>
      <point x="826" y="382" type="curve" smooth="yes"/>
      <point x="842" y="411"/>
      <point x="849" y="441"/>
      <point x="849" y="471" type="curve" smooth="yes"/>
      <point x="849" y="541"/>
      <point x="810" y="590"/>
      <point x="764" y="623" type="curve" smooth="yes"/>
      <point x="703" y="667"/>
      <point x="615" y="691"/>
      <point x="506" y="691" type="curve" smooth="yes"/>
      <point x="288" y="691" type="line"/>
      <point x="327" y="933" type="line"/>
      <point x="567" y="933" type="line" smooth="yes"/>
      <point x="737" y="933"/>
      <point x="882" y="979"/>
      <point x="941" y="1084" type="curve" smooth="yes"/>
      <point x="957" y="1112"/>
      <point x="965" y="1141"/>
      <point x="965" y="1170" type="curve" smooth="yes"/>
      <point x="965" y="1271"/>
      <point x="887" y="1326"/>
      <point x="806" y="1352" type="curve" smooth="yes"/>
      <point x="771" y="1363"/>
      <point x="730" y="1369"/>
      <point x="685" y="1369" type="curve" smooth="yes"/>
      <point x="523" y="1369"/>
      <point x="370" y="1336"/>
      <point x="256" y="1293" type="curve" smooth="yes"/>
      <point x="231" y="1284"/>
      <point x="219" y="1279"/>
      <point x="218" y="1279" type="curve" smooth="yes"/>
    </contour>
  </outline>
</glyph>
<glyph name="afii10028" format="1">
  <advance width="1418"/>
  <unicode hex="041A"/>
  <outline>
    <contour>
      <point x="374" y="0" type="line"/>
      <point x="58" y="0" type="line"/>
      <point x="298" y="1606" type="line"/>
      <point x="613" y="1606" type="line"/>
      <point x="510" y="912" type="line"/>
      <point x="748" y="912" type="line"/>
      <point x="1163" y="1606" type="line"/>
      <point x="1504" y="1606" type="line"/>
      <point x="1150" y="1045" type="line"/>
      <point x="1079" y="931"/>
      <point x="1018" y="840"/>
      <point x="870" y="811" type="curve"/>
      <point x="992" y="792"/>
      <point x="1025" y="709"/>
      <point x="1068" y="606" type="curve"/>
      <point x="1330" y="0" type="line"/>
      <point x="986" y="0" type="line"/>
      <point x="710" y="696" type="line"/>
      <point x="477" y="696" type="line"/>
    </contour>
  </outline>
</glyph>
<glyph name="afii10033" format="1">
  <advance width="1565"/>
  <unicode hex="041F"/>
  <outline>
    <contour>
      <point x="1310" y="0" type="line"/>
      <point x="999" y="0" type="line"/>
      <point x="1205" y="1385" type="line"/>
      <point x="579" y="1385" type="line"/>
      <point x="373" y="0" type="line"/>
      <point x="57" y="0" type="line"/>
      <point x="297" y="1606" type="line"/>
      <point x="1550" y="1606" type="line"/>
    </contour>
  </outline>
</glyph>
<glyph name="afii10040" format="1">
  <advance width="1647"/>
  <unicode hex="0426"/>
  <outline>
    <contour>
      <point x="1505" y="157" type="line"/>
      <point x="1429" y="-372" type="line"/>
      <point x="1123" y="-372" type="line"/>
      <point x="1176" y="0" type="line"/>
      <point x="58" y="0" type="line"/>
      <point x="298" y="1606" type="line"/>
      <point x="613" y="1606" type="line"/>
      <point x="406" y="222" type="line"/>
      <point x="1052" y="222" type="line"/>
      <point x="1260" y="1606" type="line"/>
      <point x="1570" y="1606" type="line"/>
      <point x="1353" y="157" type="line"/>
    </contour>
  </outline>
</glyph>
<glyph name="afii10042" format="1">
  <advance width="2301"/>
  <unicode hex="0428"/>
  <outline>
    <contour>
      <point x="1245" y="222" type="line"/>
      <point x="1768" y="222" type="line"/>
      <point x="1974" y="1606" type="line"/>
      <point x="2284" y="1606" type="line"/>
      <point x="2046" y="0" type="line"/>
      <point x="58" y="0" type="line"/>
      <point x="298" y="1606" type="line"/>
      <point x="613" y="1606" type="line"/>
      <point x="407" y="222" type="line"/>
      <point x="930" y="222" type="line"/>
      <point x="1136" y="1606" type="line"/>
      <point x="1451" y="1606" type="line"/>
    </contour>
  </outline>
</glyph>
<glyph name="afii10043" format="1">
  <advance width="2319"/>
  <unicode hex="0429"/>
  <outline>
    <contour>
      <point x="1833" y="20" type="line"/>
      <point x="2144" y="20" type="line"/>
      <point x="2097" y="-371" type="line"/>
      <point x="1781" y="-371" type="line"/>
    </contour>
    <contour>
      <point x="1245" y="222" type="line"/>
      <point x="1768" y="222" type="line"/>
      <point x="1974" y="1606" type="line"/>
      <point x="2284" y="1606" type="line"/>
      <point x="2046" y="0" type="line"/>
      <point x="58" y="0" type="line"/>
      <point x="298" y="1606" type="line"/>
      <point x="613" y="1606" type="line"/>
      <point x="407" y="222" type="line"/>
      <point x="930" y="222" type="line"/>
      <point x="1136" y="1606" type="line"/>
      <point x="1451" y="1606" type="line"/>
    </contour>
  </outline>
</glyph>
<glyph name="afii10048" format="1">
  <advance width="2032"/>
  <unicode hex="042E"/>
  <outline>
    <contour>
      <point x="705" y="916" type="line"/>
      <point x="672" y="702" type="line"/>
      <point x="477" y="702" type="line"/>
      <point x="373" y="0" type="line"/>
      <point x="57" y="0" type="line"/>
      <point x="297" y="1606" type="line"/>
      <point x="612" y="1606" type="line"/>
      <point x="509" y="916" type="line"/>
    </contour>
    <contour>
      <point x="1972" y="979" type="curve" smooth="yes"/>
      <point x="1972" y="561"/>
      <point x="1832" y="251"/>
      <point x="1584" y="82" type="curve" smooth="yes"/>
      <point x="1482" y="13"/>
      <point x="1355" y="-38"/>
      <point x="1196" y="-38" type="curve" smooth="yes"/>
      <point x="820" y="-38"/>
      <point x="651" y="212"/>
      <point x="651" y="591" type="curve" smooth="yes"/>
      <point x="651" y="912"/>
      <point x="737" y="1173"/>
      <point x="878" y="1352" type="curve" smooth="yes"/>
      <point x="999" y="1506"/>
      <point x="1181" y="1626"/>
      <point x="1431" y="1629" type="curve"/>
      <point x="1706" y="1624"/>
      <point x="1863" y="1479"/>
      <point x="1933" y="1262" type="curve" smooth="yes"/>
      <point x="1959" y="1181"/>
      <point x="1972" y="1087"/>
    </contour>
    <contour>
      <point x="1653" y="973" type="curve"/>
      <point x="1653" y="1196"/>
      <point x="1599" y="1358"/>
      <point x="1393" y="1358" type="curve" smooth="yes"/>
      <point x="1256" y="1358"/>
      <point x="1161" y="1269"/>
      <point x="1100" y="1172" type="curve" smooth="yes"/>
      <point x="1015" y="1037"/>
      <point x="971" y="845"/>
      <point x="971" y="615" type="curve" smooth="yes"/>
      <point x="971" y="360"/>
      <point x="1059" y="232"/>
      <point x="1234" y="232" type="curve" smooth="yes"/>
      <point x="1387" y="232"/>
      <point x="1481" y="335"/>
      <point x="1541" y="444" type="curve" smooth="yes"/>
      <point x="1614" y="578"/>
      <point x="1652" y="766"/>
    </contour>
  </outline>
</glyph>
<glyph name="afii10049" format="1">
  <advance width="1419"/>
  <unicode hex="042F"/>
  <outline>
    <contour>
      <point x="558" y="804" type="curve"/>
      <point x="338" y="814"/>
      <point x="204" y="903"/>
      <point x="204" y="1133" type="curve" smooth="yes"/>
      <point x="204" y="1565"/>
      <point x="636" y="1602"/>
      <point x="1062" y="1606" type="curve"/>
      <point x="1408" y="1606" type="line"/>
      <point x="1160" y="0" type="line"/>
      <point x="848" y="0" type="line"/>
      <point x="952" y="691" type="line"/>
      <point x="820" y="691" type="line" smooth="yes"/>
      <point x="572" y="691"/>
      <point x="423" y="629"/>
      <point x="392" y="411" type="curve"/>
      <point x="329" y="0" type="line"/>
      <point x="20" y="0" type="line"/>
      <point x="73" y="387" type="line"/>
      <point x="112" y="660"/>
      <point x="287" y="765"/>
    </contour>
    <contour>
      <point x="498" y="1114" type="curve" smooth="yes"/>
      <point x="498" y="915"/>
      <point x="708" y="909"/>
      <point x="913" y="909" type="curve"/>
      <point x="927" y="907" type="line"/>
      <point x="984" y="907" type="line"/>
      <point x="1056" y="1382" type="line"/>
      <point x="945" y="1382" type="line" smooth="yes"/>
      <point x="708" y="1382"/>
      <point x="498" y="1351"/>
    </contour>
  </outline>
</glyph>
<glyph name="afii10066" format="1">
  <advance width="1244"/>
  <unicode hex="0431"/>
  <outline>
    <contour>
      <point x="422" y="452" type="curve" smooth="yes"/>
      <point x="422" y="322"/>
      <point x="453" y="215"/>
      <point x="583" y="215" type="curve" smooth="yes"/>
      <point x="642" y="215"/>
      <point x="684" y="256"/>
      <point x="713" y="294" type="curve" smooth="yes"/>
      <point x="785" y="388"/>
      <point x="838" y="530"/>
      <point x="838" y="692" type="curve" smooth="yes"/>
      <point x="838" y="796"/>
      <point x="811" y="905"/>
      <point x="709" y="905" type="curve" smooth="yes"/>
      <point x="635" y="905"/>
      <point x="550" y="866"/>
      <point x="455" y="789" type="curve"/>
      <point x="443" y="680"/>
      <point x="422" y="572"/>
    </contour>
    <contour>
      <point x="459" y="1011" type="curve"/>
      <point x="544" y="1091"/>
      <point x="673" y="1146"/>
      <point x="835" y="1146" type="curve" smooth="yes"/>
      <point x="1069" y="1146"/>
      <point x="1172" y="968"/>
      <point x="1172" y="735" type="curve" smooth="yes"/>
      <point x="1172" y="526"/>
      <point x="1097" y="353"/>
      <point x="1006" y="226" type="curve" smooth="yes"/>
      <point x="937" y="130"/>
      <point x="846" y="51"/>
      <point x="730" y="5" type="curve" smooth="yes"/>
      <point x="674" y="-17"/>
      <point x="615" y="-28"/>
      <point x="550" y="-28" type="curve" smooth="yes"/>
      <point x="288" y="-28"/>
      <point x="157" y="141"/>
      <point x="108" y="356" type="curve" smooth="yes"/>
      <point x="91" y="431"/>
      <point x="82" y="509"/>
      <point x="82" y="592" type="curve" smooth="yes"/>
      <point x="82" y="849"/>
      <point x="161" y="1062"/>
      <point x="268" y="1220" type="curve" smooth="yes"/>
      <point x="347" y="1337"/>
      <point x="453" y="1431"/>
      <point x="592" y="1485" type="curve" smooth="yes"/>
      <point x="659" y="1511"/>
      <point x="732" y="1524"/>
      <point x="812" y="1524" type="curve" smooth="yes"/>
      <point x="883" y="1524"/>
      <point x="957" y="1507"/>
      <point x="997" y="1548" type="curve" smooth="yes"/>
      <point x="1010" y="1562"/>
      <point x="1020" y="1584"/>
      <point x="1025" y="1616" type="curve"/>
      <point x="1323" y="1616" type="line"/>
      <point x="1298" y="1441"/>
      <point x="1216" y="1350"/>
      <point x="1036" y="1338" type="curve" smooth="yes"/>
      <point x="986" y="1335"/>
      <point x="933" y="1333"/>
      <point x="876" y="1333" type="curve" smooth="yes"/>
      <point x="630" y="1333"/>
      <point x="521" y="1203"/>
    </contour>
  </outline>
</glyph>
<glyph name="afii10067" format="1">
  <advance width="1098"/>
  <unicode hex="0432"/>
  <outline>
    <contour>
      <point x="460" y="256" type="line" smooth="yes"/>
      <point x="563" y="256"/>
      <point x="667" y="279"/>
      <point x="667" y="376" type="curve" smooth="yes"/>
      <point x="667" y="413"/>
      <point x="646" y="441"/>
      <point x="605" y="460" type="curve" smooth="yes"/>
      <point x="564" y="479"/>
      <point x="497" y="488"/>
      <point x="404" y="488" type="curve"/>
      <point x="371" y="256" type="line"/>
    </contour>
    <contour>
      <point x="723" y="833" type="curve" smooth="yes"/>
      <point x="723" y="915"/>
      <point x="620" y="926"/>
      <point x="530" y="926" type="curve" smooth="yes"/>
      <point x="468" y="926" type="line"/>
      <point x="436" y="706" type="line"/>
      <point x="531" y="706"/>
      <point x="603" y="718"/>
      <point x="651" y="740" type="curve" smooth="yes"/>
      <point x="699" y="762"/>
      <point x="723" y="793"/>
    </contour>
    <contour>
      <point x="753" y="597" type="curve"/>
      <point x="883" y="570"/>
      <point x="962" y="488"/>
      <point x="962" y="339" type="curve" smooth="yes"/>
      <point x="962" y="147"/>
      <point x="818" y="62"/>
      <point x="654" y="24" type="curve" smooth="yes"/>
      <point x="586" y="8"/>
      <point x="507" y="0"/>
      <point x="418" y="0" type="curve" smooth="yes"/>
      <point x="28" y="0" type="line"/>
      <point x="192" y="1127" type="line"/>
      <point x="615" y="1127" type="line" smooth="yes"/>
      <point x="793" y="1127"/>
      <point x="942" y="1077"/>
      <point x="1002" y="964" type="curve" smooth="yes"/>
      <point x="1019" y="933"/>
      <point x="1027" y="901"/>
      <point x="1027" y="868" type="curve" smooth="yes"/>
      <point x="1027" y="699"/>
      <point x="903" y="622"/>
    </contour>
  </outline>
</glyph>
<glyph name="afii10073" format="1">
  <advance width="1017"/>
  <unicode hex="0437"/>
  <outline>
    <contour>
      <point x="81" y="344" type="line"/>
      <point x="156" y="281"/>
      <point x="257" y="236"/>
      <point x="395" y="236" type="curve" smooth="yes"/>
      <point x="468" y="236"/>
      <point x="528" y="261"/>
      <point x="558" y="303" type="curve" smooth="yes"/>
      <point x="568" y="316"/>
      <point x="573" y="331"/>
      <point x="573" y="346" type="curve" smooth="yes"/>
      <point x="573" y="388"/>
      <point x="538" y="412"/>
      <point x="502" y="428" type="curve" smooth="yes"/>
      <point x="439" y="456"/>
      <point x="355" y="466"/>
      <point x="255" y="466" type="curve" smooth="yes"/>
      <point x="222" y="466" type="line" smooth="yes"/>
      <point x="211" y="466"/>
      <point x="199" y="466"/>
      <point x="187" y="465" type="curve"/>
      <point x="221" y="645" type="line"/>
      <point x="263" y="641"/>
      <point x="301" y="639"/>
      <point x="336" y="639" type="curve" smooth="yes"/>
      <point x="462" y="639"/>
      <point x="581" y="660"/>
      <point x="630" y="730" type="curve" smooth="yes"/>
      <point x="642" y="747"/>
      <point x="648" y="763"/>
      <point x="648" y="780" type="curve" smooth="yes"/>
      <point x="648" y="858"/>
      <point x="557" y="892"/>
      <point x="476" y="892" type="curve" smooth="yes"/>
      <point x="360" y="892"/>
      <point x="249" y="846"/>
      <point x="176" y="803" type="curve" smooth="yes"/>
      <point x="157" y="792"/>
      <point x="148" y="785"/>
      <point x="148" y="784" type="curve" smooth="yes"/>
      <point x="113" y="1027" type="line"/>
      <point x="254" y="1101"/>
      <point x="396" y="1146"/>
      <point x="594" y="1146" type="curve" smooth="yes"/>
      <point x="764" y="1146"/>
      <point x="885" y="1083"/>
      <point x="931" y="964" type="curve" smooth="yes"/>
      <point x="944" y="930"/>
      <point x="951" y="895"/>
      <point x="951" y="859" type="curve" smooth="yes"/>
      <point x="951" y="751"/>
      <point x="900" y="669"/>
      <point x="838" y="620" type="curve" smooth="yes"/>
      <point x="814" y="601"/>
      <point x="788" y="588"/>
      <point x="759" y="579" type="curve"/>
      <point x="760" y="580" type="line"/>
      <point x="759" y="580" type="line"/>
      <point x="831" y="544"/>
      <point x="880" y="469"/>
      <point x="880" y="363" type="curve" smooth="yes"/>
      <point x="880" y="254"/>
      <point x="830" y="167"/>
      <point x="766" y="108" type="curve" smooth="yes"/>
      <point x="685" y="33"/>
      <point x="563" y="-17"/>
      <point x="404" y="-17" type="curve" smooth="yes"/>
      <point x="217" y="-17"/>
      <point x="90" y="19"/>
      <point x="-24" y="103" type="curve"/>
    </contour>
  </outline>
</glyph>
<glyph name="afii10079" format="1">
  <advance width="1319"/>
  <unicode hex="043D"/>
  <outline>
    <contour>
      <point x="434" y="699" type="line"/>
      <point x="890" y="699" type="line"/>
      <point x="953" y="1127" type="line"/>
      <point x="1256" y="1127" type="line"/>
      <point x="1094" y="0" type="line"/>
      <point x="789" y="0" type="line"/>
      <point x="853" y="448" type="line"/>
      <point x="398" y="448" type="line"/>
      <point x="333" y="0" type="line"/>
      <point x="28" y="0" type="line"/>
      <point x="192" y="1127" type="line"/>
      <point x="497" y="1127" type="line"/>
    </contour>
  </outline>
</glyph>
<glyph name="afii10084" format="1">
  <advance width="1127"/>
  <unicode hex="0442"/>
  <outline>
    <contour>
      <point x="1124" y="877" type="line"/>
      <point x="757" y="877" type="line"/>
      <point x="629" y="0" type="line"/>
      <point x="324" y="0" type="line"/>
      <point x="452" y="877" type="line"/>
      <point x="66" y="877" type="line"/>
      <point x="101" y="1127" type="line"/>
      <point x="1159" y="1127" type="line"/>
    </contour>
  </outline>
</glyph>
<glyph name="afii10088" format="1">
  <advance width="1364"/>
  <unicode hex="0446"/>
  <outline>
    <contour>
      <point x="192" y="1127" type="line"/>
      <point x="497" y="1127" type="line"/>
      <point x="370" y="252" type="line"/>
      <point x="826" y="252" type="line"/>
      <point x="954" y="1127" type="line"/>
      <point x="1260" y="1127" type="line"/>
      <point x="1106" y="80" type="line"/>
      <point x="1217" y="80" type="line"/>
      <point x="1137" y="-468" type="line"/>
      <point x="831" y="-468" type="line"/>
      <point x="900" y="0" type="line"/>
      <point x="28" y="0" type="line"/>
    </contour>
  </outline>
</glyph>
<glyph name="afii10090" format="1">
  <advance width="1692"/>
  <unicode hex="0448"/>
  <outline>
    <contour>
      <point x="192" y="1127" type="line"/>
      <point x="497" y="1127" type="line"/>
      <point x="370" y="251" type="line"/>
      <point x="632" y="251" type="line"/>
      <point x="759" y="1127" type="line"/>
      <point x="1065" y="1127" type="line"/>
      <point x="936" y="251" type="line"/>
      <point x="1198" y="251" type="line"/>
      <point x="1325" y="1127" type="line"/>
      <point x="1630" y="1127" type="line"/>
      <point x="1466" y="0" type="line"/>
      <point x="28" y="0" type="line"/>
    </contour>
  </outline>
</glyph>
<glyph name="afii10092" format="1">
  <advance width="1318"/>
  <unicode hex="044A"/>
  <outline>
    <contour>
      <point x="248" y="0" type="line"/>
      <point x="375" y="877" type="line"/>
      <point x="65" y="877" type="line"/>
      <point x="100" y="1127" type="line"/>
      <point x="716" y="1127" type="line"/>
      <point x="672" y="832" type="line"/>
      <point x="825" y="833" type="line" smooth="yes"/>
      <point x="1023" y="835"/>
      <point x="1157" y="733"/>
      <point x="1214" y="592" type="curve" smooth="yes"/>
      <point x="1233" y="546"/>
      <point x="1242" y="498"/>
      <point x="1242" y="449" type="curve" smooth="yes"/>
      <point x="1242" y="314"/>
      <point x="1175" y="211"/>
      <point x="1092" y="142" type="curve" smooth="yes"/>
      <point x="983" y="51"/>
      <point x="821" y="0"/>
      <point x="614" y="0" type="curve" smooth="yes"/>
    </contour>
    <contour>
      <point x="939" y="444" type="curve" smooth="yes"/>
      <point x="939" y="544"/>
      <point x="862" y="593"/>
      <point x="758" y="593" type="curve" smooth="yes"/>
      <point x="639" y="593" type="line"/>
      <point x="588" y="236" type="line"/>
      <point x="716" y="235" type="line" smooth="yes"/>
      <point x="821" y="235"/>
      <point x="893" y="295"/>
      <point x="924" y="370" type="curve" smooth="yes"/>
      <point x="934" y="395"/>
      <point x="939" y="419"/>
    </contour>
  </outline>
</glyph>
<glyph name="afii10093" format="1">
  <advance width="1692"/>
  <unicode hex="044B"/>
  <outline>
    <contour>
      <point x="1166" y="0" type="line"/>
      <point x="1325" y="1127" type="line"/>
      <point x="1630" y="1127" type="line"/>
      <point x="1466" y="0" type="line"/>
    </contour>
    <contour>
      <point x="192" y="1127" type="line"/>
      <point x="496" y="1127" type="line"/>
      <point x="452" y="832" type="line"/>
      <point x="605" y="833" type="line" smooth="yes"/>
      <point x="803" y="835"/>
      <point x="937" y="733"/>
      <point x="994" y="592" type="curve" smooth="yes"/>
      <point x="1013" y="546"/>
      <point x="1022" y="498"/>
      <point x="1022" y="449" type="curve" smooth="yes"/>
      <point x="1022" y="314"/>
      <point x="955" y="211"/>
      <point x="872" y="142" type="curve" smooth="yes"/>
      <point x="763" y="51"/>
      <point x="601" y="0"/>
      <point x="394" y="0" type="curve" smooth="yes"/>
      <point x="28" y="0" type="line"/>
    </contour>
    <contour>
      <point x="719" y="444" type="curve" smooth="yes"/>
      <point x="719" y="544"/>
      <point x="642" y="593"/>
      <point x="538" y="593" type="curve" smooth="yes"/>
      <point x="419" y="593" type="line"/>
      <point x="368" y="236" type="line"/>
      <point x="496" y="235" type="line" smooth="yes"/>
      <point x="601" y="235"/>
      <point x="673" y="295"/>
      <point x="704" y="370" type="curve" smooth="yes"/>
      <point x="714" y="395"/>
      <point x="719" y="419"/>
    </contour>
  </outline>
</glyph>
<glyph name="afii10096" format="1">
  <advance width="1698"/>
  <unicode hex="044E"/>
  <outline>
    <contour>
      <point x="843" y="471" type="curve" smooth="yes"/>
      <point x="843" y="338"/>
      <point x="893" y="235"/>
      <point x="1026" y="235" type="curve" smooth="yes"/>
      <point x="1127" y="235"/>
      <point x="1195" y="302"/>
      <point x="1239" y="368" type="curve" smooth="yes"/>
      <point x="1284" y="437"/>
      <point x="1320" y="537"/>
      <point x="1320" y="644" type="curve" smooth="yes"/>
      <point x="1320" y="782"/>
      <point x="1258" y="891"/>
      <point x="1121" y="891" type="curve" smooth="yes"/>
      <point x="1025" y="891"/>
      <point x="960" y="821"/>
      <point x="920" y="755" type="curve" smooth="yes"/>
      <point x="877" y="684"/>
      <point x="843" y="580"/>
    </contour>
    <contour>
      <point x="540" y="467" type="curve" smooth="yes"/>
      <point x="540" y="477"/>
      <point x="541" y="486"/>
      <point x="541" y="496" type="curve"/>
      <point x="406" y="496" type="line"/>
      <point x="335" y="0" type="line"/>
      <point x="28" y="0" type="line"/>
      <point x="192" y="1127" type="line"/>
      <point x="497" y="1127" type="line"/>
      <point x="442" y="747" type="line"/>
      <point x="580" y="747" type="line"/>
      <point x="652" y="928"/>
      <point x="786" y="1064"/>
      <point x="979" y="1117" type="curve" smooth="yes"/>
      <point x="1035" y="1132"/>
      <point x="1092" y="1140"/>
      <point x="1150" y="1140" type="curve" smooth="yes"/>
      <point x="1372" y="1140"/>
      <point x="1519" y="1033"/>
      <point x="1587" y="874" type="curve" smooth="yes"/>
      <point x="1612" y="815"/>
      <point x="1625" y="746"/>
      <point x="1625" y="668" type="curve" smooth="yes"/>
      <point x="1625" y="442"/>
      <point x="1537" y="278"/>
      <point x="1421" y="165" type="curve" smooth="yes"/>
      <point x="1320" y="67"/>
      <point x="1180" y="-17"/>
      <point x="991" y="-17" type="curve" smooth="yes"/>
      <point x="778" y="-17"/>
      <point x="643" y="95"/>
      <point x="578" y="250" type="curve" smooth="yes"/>
      <point x="553" y="311"/>
      <point x="540" y="383"/>
    </contour>
  </outline>
</glyph>
<glyph name="afii10097" format="1">
  <advance width="1146"/>
  <unicode hex="044F"/>
  <outline>
    <contour>
      <point x="1083" y="1127" type="line"/>
      <point x="920" y="0" type="line"/>
      <point x="616" y="0" type="line"/>
      <point x="668" y="371" type="line"/>
      <point x="518" y="370" type="line"/>
      <point x="312" y="0" type="line"/>
      <point x="-23" y="0" type="line"/>
      <point x="252" y="417" type="line"/>
      <point x="158" y="478"/>
      <point x="73" y="579"/>
      <point x="75" y="728" type="curve" smooth="yes"/>
      <point x="77" y="826"/>
      <point x="120" y="898"/>
      <point x="176" y="954" type="curve" smooth="yes"/>
      <point x="296" y="1075"/>
      <point x="503" y="1127"/>
      <point x="749" y="1127" type="curve" smooth="yes"/>
    </contour>
    <contour>
      <point x="569" y="609" type="curve" smooth="yes"/>
      <point x="612" y="609"/>
      <point x="656" y="610"/>
      <point x="701" y="610" type="curve"/>
      <point x="742" y="885" type="line"/>
      <point x="619" y="885" type="line" smooth="yes"/>
      <point x="517" y="885"/>
      <point x="429" y="856"/>
      <point x="394" y="792" type="curve" smooth="yes"/>
      <point x="384" y="774"/>
      <point x="380" y="756"/>
      <point x="380" y="738" type="curve" smooth="yes"/>
      <point x="380" y="647"/>
      <point x="475" y="609"/>
    </contour>
  </outline>
</glyph>
<glyph name="afii10099" format="1">
  <advance width="1206"/>
  <unicode hex="0452"/>
  <outline>
    <contour>
      <point x="784" y="1145" type="curve" smooth="yes"/>
      <point x="1003" y="1145"/>
      <point x="1099" y="1030"/>
      <point x="1099" y="806" type="curve" smooth="yes"/>
      <point x="1099" y="770"/>
      <point x="1095" y="735"/>
      <point x="1089" y="701" type="curve"/>
      <point x="1068" y="551"/>
      <point x="1047" y="405"/>
      <point x="1026" y="252" type="curve"/>
      <point x="991" y="28"/>
      <point x="918" y="-144"/>
      <point x="762" y="-249" type="curve" smooth="yes"/>
      <point x="671" y="-310"/>
      <point x="556" y="-347"/>
      <point x="413" y="-362" type="curve"/>
      <point x="413" y="-110" type="line"/>
      <point x="588" y="-84"/>
      <point x="675" y="10"/>
      <point x="707" y="183" type="curve"/>
      <point x="729" y="299"/>
      <point x="749" y="458"/>
      <point x="768" y="576" type="curve" smooth="yes"/>
      <point x="777" y="630"/>
      <point x="784" y="682"/>
      <point x="789" y="733" type="curve" smooth="yes"/>
      <point x="790" y="747"/>
      <point x="789" y="758"/>
      <point x="788" y="770" type="curve"/>
      <point x="788" y="862"/>
      <point x="741" y="916"/>
      <point x="653" y="916" type="curve" smooth="yes"/>
      <point x="559" y="916"/>
      <point x="501" y="880"/>
      <point x="454" y="833" type="curve"/>
      <point x="332" y="0" type="line"/>
      <point x="29" y="0" type="line"/>
      <point x="216" y="1295" type="line"/>
      <point x="87" y="1295" type="line"/>
      <point x="109" y="1448" type="line"/>
      <point x="239" y="1448" type="line"/>
      <point x="263" y="1617" type="line"/>
      <point x="572" y="1675" type="line"/>
      <point x="539" y="1448" type="line"/>
      <point x="819" y="1448" type="line"/>
      <point x="797" y="1295" type="line"/>
      <point x="517" y="1295" type="line"/>
      <point x="473" y="997" type="line"/>
      <point x="497" y="1021"/>
      <point x="528" y="1053"/>
      <point x="564" y="1078" type="curve" smooth="yes"/>
      <point x="618" y="1114"/>
      <point x="692" y="1145"/>
    </contour>
  </outline>
</glyph>
<glyph name="afii10107" format="1">
  <advance width="1851"/>
  <unicode hex="045A"/>
  <outline>
    <contour>
      <point x="943" y="1127" type="line"/>
      <point x="1250" y="1127" type="line"/>
      <point x="1206" y="832" type="line"/>
      <point x="1359" y="833" type="line" smooth="yes"/>
      <point x="1557" y="835"/>
      <point x="1691" y="733"/>
      <point x="1748" y="592" type="curve" smooth="yes"/>
      <point x="1767" y="546"/>
      <point x="1776" y="498"/>
      <point x="1776" y="449" type="curve" smooth="yes"/>
      <point x="1776" y="314"/>
      <point x="1709" y="211"/>
      <point x="1626" y="142" type="curve" smooth="yes"/>
      <point x="1517" y="51"/>
      <point x="1355" y="0"/>
      <point x="1148" y="0" type="curve" smooth="yes"/>
      <point x="782" y="0" type="line"/>
      <point x="849" y="479" type="line"/>
      <point x="405" y="479" type="line"/>
      <point x="336" y="0" type="line"/>
      <point x="30" y="0" type="line"/>
      <point x="191" y="1127" type="line"/>
      <point x="498" y="1127" type="line"/>
      <point x="435" y="694" type="line"/>
      <point x="881" y="694" type="line"/>
    </contour>
    <contour>
      <point x="1473" y="444" type="curve" smooth="yes"/>
      <point x="1473" y="544"/>
      <point x="1396" y="593"/>
      <point x="1292" y="593" type="curve" smooth="yes"/>
      <point x="1173" y="593" type="line"/>
      <point x="1122" y="236" type="line"/>
      <point x="1250" y="235" type="line" smooth="yes"/>
      <point x="1355" y="235"/>
      <point x="1427" y="295"/>
      <point x="1458" y="370" type="curve" smooth="yes"/>
      <point x="1468" y="395"/>
      <point x="1473" y="419"/>
    </contour>
  </outline>
</glyph>
<glyph name="afii10108" format="1">
  <advance width="1327"/>
  <unicode hex="045B"/>
  <outline>
    <contour>
      <point x="873" y="729" type="line" smooth="yes"/>
      <point x="880" y="835"/>
      <point x="830" y="916"/>
      <point x="731" y="916" type="curve" smooth="yes"/>
      <point x="642" y="916"/>
      <point x="585" y="899"/>
      <point x="534" y="863" type="curve" smooth="yes"/>
      <point x="519" y="852"/>
      <point x="503" y="841"/>
      <point x="486" y="829" type="curve"/>
      <point x="369" y="0" type="line"/>
      <point x="30" y="0" type="line"/>
      <point x="204" y="1224" type="line"/>
      <point x="16" y="1224" type="line"/>
      <point x="47" y="1449" type="line"/>
      <point x="236" y="1449" type="line"/>
      <point x="260" y="1619" type="line"/>
      <point x="607" y="1678" type="line"/>
      <point x="573" y="1449" type="line"/>
      <point x="1093" y="1449" type="line"/>
      <point x="1060" y="1224" type="line"/>
      <point x="540" y="1224" type="line"/>
      <point x="509" y="996" type="line"/>
      <point x="591" y="1087"/>
      <point x="691" y="1145"/>
      <point x="854" y="1145" type="curve" smooth="yes"/>
      <point x="1100" y="1145"/>
      <point x="1227" y="1004"/>
      <point x="1210" y="744" type="curve" smooth="yes"/>
      <point x="1204" y="647"/>
      <point x="1185" y="549"/>
      <point x="1172" y="452" type="curve" smooth="yes"/>
      <point x="1151" y="300"/>
      <point x="1128" y="152"/>
      <point x="1108" y="0" type="curve"/>
      <point x="769" y="0" type="line"/>
      <point x="805" y="258"/>
      <point x="833" y="477"/>
      <point x="872" y="719" type="curve" smooth="yes"/>
      <point x="873" y="723"/>
      <point x="873" y="725"/>
      <point x="873" y="726" type="curve" smooth="yes"/>
    </contour>
  </outline>
</glyph>
<glyph name="afii10193" format="1">
  <advance width="1310"/>
  <unicode hex="045F"/>
  <outline>
    <contour>
      <point x="29" y="0" type="line"/>
      <point x="192" y="1127" type="line"/>
      <point x="498" y="1127" type="line"/>
      <point x="372" y="251" type="line"/>
      <point x="816" y="251" type="line"/>
      <point x="943" y="1127" type="line"/>
      <point x="1248" y="1127" type="line"/>
      <point x="1084" y="0" type="line"/>
      <point x="730" y="0" type="line"/>
      <point x="681" y="-367" type="line"/>
      <point x="369" y="-367" type="line"/>
      <point x="418" y="0" type="line"/>
    </contour>
  </outline>
</glyph>
<glyph name="uni048C" format="1">
  <advance width="1437"/>
  <unicode hex="048C"/>
  <outline>
    <contour>
      <point x="145" y="1287" type="line"/>
      <point x="168" y="1449" type="line"/>
      <point x="897" y="1449" type="line"/>
      <point x="874" y="1287" type="line"/>
    </contour>
    <contour>
      <point x="684" y="1606" type="line"/>
      <point x="597" y="1034" type="line"/>
      <point x="733" y="1034" type="line" smooth="yes"/>
      <point x="948" y="1034"/>
      <point x="1116" y="984"/>
      <point x="1228" y="890" type="curve" smooth="yes"/>
      <point x="1316" y="817"/>
      <point x="1379" y="710"/>
      <point x="1379" y="565" type="curve" smooth="yes"/>
      <point x="1379" y="391"/>
      <point x="1303" y="268"/>
      <point x="1208" y="180" type="curve" smooth="yes"/>
      <point x="1083" y="64"/>
      <point x="894" y="0"/>
      <point x="651" y="0" type="curve" smooth="yes"/>
      <point x="128" y="0" type="line"/>
      <point x="372" y="1606" type="line"/>
    </contour>
    <contour>
      <point x="1055" y="574" type="curve" smooth="yes"/>
      <point x="1055" y="776"/>
      <point x="864" y="815"/>
      <point x="662" y="815" type="curve" smooth="yes"/>
      <point x="563" y="815" type="line"/>
      <point x="477" y="215" type="line"/>
      <point x="617" y="215" type="line" smooth="yes"/>
      <point x="879" y="215"/>
      <point x="1055" y="311"/>
    </contour>
  </outline>
</glyph>
<glyph name="uni048D" format="1">
  <advance width="1168"/>
  <unicode hex="048D"/>
  <outline>
    <contour>
      <point x="72" y="905" type="line"/>
      <point x="88" y="1043" type="line"/>
      <point x="708" y="1043" type="line"/>
      <point x="692" y="905" type="line"/>
    </contour>
    <contour>
      <point x="260" y="1127" type="line"/>
      <point x="567" y="1127" type="line"/>
      <point x="523" y="832" type="line"/>
      <point x="676" y="833" type="line" smooth="yes"/>
      <point x="874" y="835"/>
      <point x="1008" y="733"/>
      <point x="1065" y="592" type="curve" smooth="yes"/>
      <point x="1084" y="546"/>
      <point x="1093" y="498"/>
      <point x="1093" y="449" type="curve" smooth="yes"/>
      <point x="1093" y="314"/>
      <point x="1027" y="211"/>
      <point x="944" y="142" type="curve" smooth="yes"/>
      <point x="835" y="51"/>
      <point x="672" y="0"/>
      <point x="465" y="0" type="curve" smooth="yes"/>
      <point x="99" y="0" type="line"/>
    </contour>
    <contour>
      <point x="790" y="444" type="curve" smooth="yes"/>
      <point x="790" y="544"/>
      <point x="713" y="593"/>
      <point x="609" y="593" type="curve" smooth="yes"/>
      <point x="490" y="593" type="line"/>
      <point x="439" y="236" type="line"/>
      <point x="567" y="235" type="line" smooth="yes"/>
      <point x="672" y="235"/>
      <point x="743" y="295"/>
      <point x="774" y="370" type="curve" smooth="yes"/>
      <point x="784" y="395"/>
      <point x="790" y="419"/>
    </contour>
  </outline>
</glyph>
<glyph name="uni048F" format="1">
  <advance width="1200"/>
  <unicode hex="048F"/>
  <outline>
    <contour>
      <point x="493" y="352" type="line"/>
      <point x="685" y="463" type="line"/>
      <point x="1050" y="-169" type="line"/>
      <point x="857" y="-280" type="line"/>
    </contour>
    <contour>
      <point x="575" y="-17" type="curve" smooth="yes"/>
      <point x="460" y="-17"/>
      <point x="388" y="37"/>
      <point x="351" y="120" type="curve"/>
      <point x="272" y="-407" type="line"/>
      <point x="-33" y="-410" type="line"/>
      <point x="194" y="1127" type="line"/>
      <point x="425" y="1127" type="line"/>
      <point x="460" y="979" type="line"/>
      <point x="511" y="1050"/>
      <point x="586" y="1108"/>
      <point x="680" y="1134" type="curve" smooth="yes"/>
      <point x="708" y="1142"/>
      <point x="736" y="1145"/>
      <point x="764" y="1145" type="curve" smooth="yes"/>
      <point x="1016" y="1142"/>
      <point x="1120" y="966"/>
      <point x="1117" y="708" type="curve" smooth="yes"/>
      <point x="1115" y="401"/>
      <point x="998" y="157"/>
      <point x="802" y="42" type="curve" smooth="yes"/>
      <point x="735" y="3"/>
      <point x="660" y="-17"/>
    </contour>
    <contour>
      <point x="378" y="309" type="line"/>
      <point x="420" y="252"/>
      <point x="487" y="211"/>
      <point x="580" y="211" type="curve" smooth="yes"/>
      <point x="665" y="211"/>
      <point x="712" y="275"/>
      <point x="741" y="338" type="curve" smooth="yes"/>
      <point x="786" y="433"/>
      <point x="812" y="578"/>
      <point x="812" y="708" type="curve"/>
      <point x="809" y="846"/>
      <point x="762" y="915"/>
      <point x="669" y="915" type="curve" smooth="yes"/>
      <point x="586" y="915"/>
      <point x="515" y="888"/>
      <point x="456" y="833" type="curve"/>
    </contour>
  </outline>
</glyph>
<glyph name="afii10098" format="1">
  <advance width="935"/>
  <unicode hex="0491"/>
  <outline>
    <contour>
      <point x="946" y="948" type="line"/>
      <point x="724" y="948" type="line"/>
      <point x="782" y="1363" type="line"/>
      <point x="1004" y="1363" type="line"/>
    </contour>
    <contour>
      <point x="28" y="0" type="line"/>
      <point x="192" y="1127" type="line"/>
      <point x="971" y="1127" type="line"/>
      <point x="936" y="877" type="line"/>
      <point x="460" y="877" type="line"/>
      <point x="333" y="0" type="line"/>
    </contour>
  </outline>
</glyph>
<glyph name="uni0496" format="1">
  <advance width="2240"/>
  <unicode hex="0496"/>
  <outline>
    <contour>
      <point x="2178" y="-408" type="line"/>
      <point x="1956" y="-408" type="line"/>
      <point x="2019" y="36" type="line"/>
      <point x="2241" y="36" type="line"/>
    </contour>
    <contour>
      <point x="935" y="696" type="line"/>
      <point x="826" y="696" type="line"/>
      <point x="222" y="0" type="line"/>
      <point x="-130" y="0" type="line"/>
      <point x="394" y="605" type="line"/>
      <point x="477" y="697"/>
      <point x="547" y="789"/>
      <point x="691" y="811" type="curve"/>
      <point x="561" y="838"/>
      <point x="506" y="939"/>
      <point x="448" y="1045" type="curve"/>
      <point x="152" y="1606" type="line"/>
      <point x="496" y="1606" type="line"/>
      <point x="849" y="912" type="line"/>
      <point x="965" y="912" type="line"/>
      <point x="1070" y="1606" type="line"/>
      <point x="1381" y="1606" type="line"/>
      <point x="1277" y="912" type="line"/>
      <point x="1393" y="912" type="line"/>
      <point x="1941" y="1606" type="line"/>
      <point x="2286" y="1606" type="line"/>
      <point x="1828" y="1045" type="line" smooth="yes"/>
      <point x="1744" y="942"/>
      <point x="1670" y="841"/>
      <point x="1522" y="811" type="curve"/>
      <point x="1648" y="791"/>
      <point x="1702" y="700"/>
      <point x="1760" y="606" type="curve"/>
      <point x="2115" y="0" type="line"/>
      <point x="1763" y="0" type="line"/>
      <point x="1354" y="696" type="line"/>
      <point x="1245" y="696" type="line"/>
      <point x="1141" y="0" type="line"/>
      <point x="830" y="0" type="line"/>
    </contour>
  </outline>
</glyph>
<glyph name="uni0497" format="1">
  <advance width="1863"/>
  <unicode hex="0497"/>
  <outline>
    <contour>
      <point x="1753" y="-408" type="line"/>
      <point x="1531" y="-408" type="line"/>
      <point x="1594" y="36" type="line"/>
      <point x="1816" y="36" type="line"/>
    </contour>
    <contour>
      <point x="647" y="0" type="line"/>
      <point x="713" y="456" type="line"/>
      <point x="631" y="456" type="line"/>
      <point x="293" y="0" type="line"/>
      <point x="-84" y="0" type="line"/>
      <point x="277" y="422" type="line" smooth="yes"/>
      <point x="341" y="497"/>
      <point x="427" y="538"/>
      <point x="529" y="568" type="curve"/>
      <point x="387" y="601"/>
      <point x="338" y="688"/>
      <point x="269" y="800" type="curve" smooth="yes"/>
      <point x="203" y="907"/>
      <point x="143" y="1007"/>
      <point x="65" y="1127" type="curve"/>
      <point x="451" y="1127" type="line"/>
      <point x="675" y="670" type="line"/>
      <point x="745" y="670" type="line"/>
      <point x="811" y="1127" type="line"/>
      <point x="1114" y="1127" type="line"/>
      <point x="1047" y="671" type="line"/>
      <point x="1113" y="671" type="line"/>
      <point x="1465" y="1127" type="line"/>
      <point x="1851" y="1127" type="line"/>
      <point x="1744" y="1001"/>
      <point x="1660" y="897"/>
      <point x="1564" y="789" type="curve" smooth="yes"/>
      <point x="1505" y="723"/>
      <point x="1459" y="674"/>
      <point x="1394" y="630" type="curve" smooth="yes"/>
      <point x="1346" y="598"/>
      <point x="1302" y="580"/>
      <point x="1235" y="568" type="curve"/>
      <point x="1322" y="540"/>
      <point x="1397" y="497"/>
      <point x="1441" y="422" type="curve" smooth="yes"/>
      <point x="1685" y="0" type="line"/>
      <point x="1309" y="0" type="line"/>
      <point x="1096" y="456" type="line"/>
      <point x="1016" y="456" type="line"/>
      <point x="950" y="0" type="line"/>
    </contour>
  </outline>
</glyph>
<glyph name="uni049C" format="1">
  <advance width="1419"/>
  <unicode hex="049C"/>
  <outline>
    <contour>
      <point x="687" y="383" type="line"/>
      <point x="515" y="383" type="line"/>
      <point x="634" y="1227" type="line"/>
      <point x="806" y="1227" type="line"/>
    </contour>
    <contour>
      <point x="374" y="0" type="line"/>
      <point x="58" y="0" type="line"/>
      <point x="298" y="1606" type="line"/>
      <point x="613" y="1606" type="line"/>
      <point x="510" y="912" type="line"/>
      <point x="748" y="912" type="line"/>
      <point x="1163" y="1606" type="line"/>
      <point x="1504" y="1606" type="line"/>
      <point x="1150" y="1045" type="line"/>
      <point x="1079" y="931"/>
      <point x="1018" y="840"/>
      <point x="870" y="811" type="curve"/>
      <point x="992" y="792"/>
      <point x="1025" y="709"/>
      <point x="1068" y="606" type="curve"/>
      <point x="1330" y="0" type="line"/>
      <point x="986" y="0" type="line"/>
      <point x="710" y="696" type="line"/>
      <point x="477" y="696" type="line"/>
    </contour>
  </outline>
</glyph>
<glyph name="uni049D" format="1">
  <advance width="1287"/>
  <unicode hex="049D"/>
  <outline>
    <contour>
      <point x="611" y="272" type="line"/>
      <point x="439" y="272" type="line"/>
      <point x="536" y="966" type="line"/>
      <point x="708" y="966" type="line"/>
    </contour>
    <contour>
      <point x="497" y="1127" type="line"/>
      <point x="435" y="703" type="line"/>
      <point x="671" y="703" type="line"/>
      <point x="938" y="1127" type="line"/>
      <point x="1305" y="1127" type="line"/>
      <point x="1053" y="764" type="line" smooth="yes"/>
      <point x="1022" y="720"/>
      <point x="961" y="681"/>
      <point x="913" y="654" type="curve" smooth="yes"/>
      <point x="871" y="630"/>
      <point x="832" y="607"/>
      <point x="778" y="604" type="curve"/>
      <point x="819" y="592"/>
      <point x="863" y="585"/>
      <point x="896" y="562" type="curve" smooth="yes"/>
      <point x="944" y="528"/>
      <point x="980" y="481"/>
      <point x="1007" y="414" type="curve" smooth="yes"/>
      <point x="1170" y="0" type="line"/>
      <point x="811" y="0" type="line"/>
      <point x="653" y="470" type="line"/>
      <point x="402" y="470" type="line"/>
      <point x="333" y="0" type="line"/>
      <point x="28" y="0" type="line"/>
      <point x="192" y="1127" type="line"/>
    </contour>
  </outline>
</glyph>
<glyph name="uni049F" format="1">
  <advance width="1406"/>
  <unicode hex="049F"/>
  <outline>
    <contour>
      <point x="50" y="879" type="line"/>
      <point x="77" y="1071" type="line"/>
      <point x="789" y="1071" type="line"/>
      <point x="762" y="879" type="line"/>
    </contour>
    <contour>
      <point x="616" y="1127" type="line"/>
      <point x="554" y="703" type="line"/>
      <point x="790" y="703" type="line"/>
      <point x="1057" y="1127" type="line"/>
      <point x="1424" y="1127" type="line"/>
      <point x="1172" y="764" type="line" smooth="yes"/>
      <point x="1141" y="720"/>
      <point x="1080" y="681"/>
      <point x="1032" y="654" type="curve" smooth="yes"/>
      <point x="990" y="630"/>
      <point x="951" y="607"/>
      <point x="897" y="604" type="curve"/>
      <point x="938" y="592"/>
      <point x="983" y="585"/>
      <point x="1016" y="562" type="curve" smooth="yes"/>
      <point x="1064" y="528"/>
      <point x="1099" y="481"/>
      <point x="1126" y="414" type="curve"/>
      <point x="1289" y="0" type="line"/>
      <point x="930" y="0" type="line"/>
      <point x="772" y="470" type="line"/>
      <point x="521" y="470" type="line"/>
      <point x="452" y="0" type="line"/>
      <point x="147" y="0" type="line"/>
      <point x="311" y="1127" type="line"/>
    </contour>
  </outline>
</glyph>
<glyph name="uni04A0" format="1">
  <advance width="1474"/>
  <unicode hex="04A0"/>
  <outline>
    <contour>
      <point x="81" y="1395" type="line"/>
      <point x="111" y="1607" type="line"/>
      <point x="668" y="1607" type="line"/>
      <point x="638" y="1395" type="line"/>
    </contour>
    <contour>
      <point x="429" y="0" type="line"/>
      <point x="113" y="0" type="line"/>
      <point x="353" y="1606" type="line"/>
      <point x="668" y="1606" type="line"/>
      <point x="565" y="912" type="line"/>
      <point x="803" y="912" type="line"/>
      <point x="1218" y="1606" type="line"/>
      <point x="1559" y="1606" type="line"/>
      <point x="1205" y="1045" type="line"/>
      <point x="1134" y="931"/>
      <point x="1073" y="840"/>
      <point x="925" y="811" type="curve"/>
      <point x="1047" y="792"/>
      <point x="1080" y="709"/>
      <point x="1123" y="606" type="curve"/>
      <point x="1385" y="0" type="line"/>
      <point x="1041" y="0" type="line"/>
      <point x="765" y="696" type="line"/>
      <point x="532" y="696" type="line"/>
    </contour>
  </outline>
</glyph>
<glyph name="uni04A3" format="1">
  <advance width="1325"/>
  <unicode hex="04A3"/>
  <outline>
    <contour>
      <point x="1194" y="-408" type="line"/>
      <point x="972" y="-408" type="line"/>
      <point x="1035" y="36" type="line"/>
      <point x="1257" y="36" type="line"/>
    </contour>
    <contour>
      <point x="434" y="699" type="line"/>
      <point x="890" y="699" type="line"/>
      <point x="953" y="1127" type="line"/>
      <point x="1256" y="1127" type="line"/>
      <point x="1094" y="0" type="line"/>
      <point x="789" y="0" type="line"/>
      <point x="853" y="448" type="line"/>
      <point x="398" y="448" type="line"/>
      <point x="333" y="0" type="line"/>
      <point x="28" y="0" type="line"/>
      <point x="192" y="1127" type="line"/>
      <point x="497" y="1127" type="line"/>
    </contour>
  </outline>
</glyph>
<glyph name="uni04A4" format="1">
  <advance width="1668"/>
  <unicode hex="04A4"/>
  <outline>
    <contour>
      <point x="1814" y="1606" type="line"/>
      <point x="1782" y="1384" type="line"/>
      <point x="1338" y="1384" type="line"/>
      <point x="1370" y="1606" type="line"/>
    </contour>
    <contour>
      <point x="953" y="0" type="line"/>
      <point x="1062" y="724" type="line"/>
      <point x="480" y="724" type="line"/>
      <point x="373" y="0" type="line"/>
      <point x="57" y="0" type="line"/>
      <point x="297" y="1606" type="line"/>
      <point x="612" y="1606" type="line"/>
      <point x="514" y="951" type="line"/>
      <point x="1093" y="951" type="line"/>
      <point x="1193" y="1606" type="line"/>
      <point x="1504" y="1606" type="line"/>
      <point x="1264" y="0" type="line"/>
    </contour>
  </outline>
</glyph>
<glyph name="uni04A9" format="1">
  <advance width="1210"/>
  <unicode hex="04A9"/>
  <outline>
    <contour>
      <point x="856" y="773" type="curve" smooth="yes"/>
      <point x="1015" y="773"/>
      <point x="1117" y="700"/>
      <point x="1117" y="544" type="curve" smooth="yes"/>
      <point x="1117" y="436"/>
      <point x="1070" y="340"/>
      <point x="1022" y="270" type="curve" smooth="yes"/>
      <point x="969" y="192"/>
      <point x="892" y="115"/>
      <point x="805" y="75" type="curve"/>
      <point x="775" y="283" type="line"/>
      <point x="855" y="324"/>
      <point x="924" y="398"/>
      <point x="924" y="515" type="curve" smooth="yes"/>
      <point x="924" y="564"/>
      <point x="904" y="602"/>
      <point x="855" y="602" type="curve" smooth="yes"/>
      <point x="798" y="602"/>
      <point x="766" y="548"/>
      <point x="750" y="500" type="curve" smooth="yes"/>
      <point x="742" y="475"/>
      <point x="738" y="443"/>
      <point x="738" y="406" type="curve" smooth="yes"/>
      <point x="738" y="264"/>
      <point x="817" y="171"/>
      <point x="918" y="126" type="curve" smooth="yes"/>
      <point x="958" y="108"/>
      <point x="1004" y="100"/>
      <point x="1056" y="99" type="curve"/>
      <point x="1056" y="-71" type="line"/>
      <point x="801" y="-71"/>
      <point x="632" y="55"/>
      <point x="562" y="238" type="curve" smooth="yes"/>
      <point x="540" y="297"/>
      <point x="528" y="357"/>
      <point x="528" y="419" type="curve" smooth="yes"/>
      <point x="528" y="581"/>
      <point x="602" y="693"/>
      <point x="715" y="745" type="curve" smooth="yes"/>
      <point x="756" y="764"/>
      <point x="803" y="773"/>
    </contour>
    <contour>
      <point x="827" y="88" type="line"/>
      <point x="722" y="28"/>
      <point x="616" y="-14"/>
      <point x="455" y="-17" type="curve"/>
      <point x="250" y="-15"/>
      <point x="124" y="91"/>
      <point x="71" y="248" type="curve" smooth="yes"/>
      <point x="21" y="396"/>
      <point x="47" y="600"/>
      <point x="100" y="732" type="curve" smooth="yes"/>
      <point x="166" y="895"/>
      <point x="277" y="1025"/>
      <point x="428" y="1095" type="curve" smooth="yes"/>
      <point x="500" y="1128"/>
      <point x="573" y="1145"/>
      <point x="650" y="1145" type="curve" smooth="yes"/>
      <point x="805" y="1145"/>
      <point x="895" y="1104"/>
      <point x="988" y="1043" type="curve"/>
      <point x="895" y="829" type="line"/>
      <point x="865" y="868"/>
      <point x="793" y="893"/>
      <point x="736" y="907" type="curve" smooth="yes"/>
      <point x="712" y="913"/>
      <point x="689" y="916"/>
      <point x="666" y="916" type="curve" smooth="yes"/>
      <point x="454" y="916"/>
      <point x="393" y="761"/>
      <point x="363" y="575" type="curve"/>
      <point x="356" y="541"/>
      <point x="352" y="504"/>
      <point x="352" y="464" type="curve" smooth="yes"/>
      <point x="348" y="297"/>
      <point x="420" y="213"/>
      <point x="568" y="213" type="curve" smooth="yes"/>
      <point x="653" y="213"/>
      <point x="722" y="247"/>
      <point x="773" y="280" type="curve" smooth="yes"/>
      <point x="807" y="302" type="line"/>
    </contour>
  </outline>
</glyph>
<glyph name="uni04AA" format="1">
  <advance width="1226"/>
  <unicode hex="04AA"/>
  <outline>
    <contour>
      <point x="783" y="-615" type="curve" smooth="yes"/>
      <point x="700" y="-615"/>
      <point x="632" y="-596"/>
      <point x="584" y="-563" type="curve"/>
      <point x="584" y="-437" type="line"/>
      <point x="635" y="-454"/>
      <point x="693" y="-476"/>
      <point x="757" y="-476" type="curve" smooth="yes"/>
      <point x="827" y="-476"/>
      <point x="869" y="-454"/>
      <point x="869" y="-383" type="curve" smooth="yes"/>
      <point x="869" y="-348"/>
      <point x="849" y="-312"/>
      <point x="834" y="-282" type="curve" smooth="yes"/>
      <point x="779" y="-171"/>
      <point x="721" y="-84"/>
      <point x="650" y="19" type="curve"/>
      <point x="760" y="19" type="line"/>
      <point x="839" y="-42"/>
      <point x="900" y="-102"/>
      <point x="960" y="-176" type="curve" smooth="yes"/>
      <point x="992" y="-216"/>
      <point x="1022" y="-263"/>
      <point x="1040" y="-314" type="curve" smooth="yes"/>
      <point x="1048" y="-337"/>
      <point x="1052" y="-360"/>
      <point x="1052" y="-383" type="curve" smooth="yes"/>
      <point x="1052" y="-537"/>
      <point x="938" y="-615"/>
    </contour>
    <contour>
      <point x="648" y="-38" type="curve" smooth="yes"/>
      <point x="275" y="-38"/>
      <point x="100" y="187"/>
      <point x="100" y="565" type="curve" smooth="yes"/>
      <point x="100" y="1069"/>
      <point x="261" y="1461"/>
      <point x="638" y="1590" type="curve" smooth="yes"/>
      <point x="715" y="1616"/>
      <point x="802" y="1629"/>
      <point x="898" y="1629" type="curve" smooth="yes"/>
      <point x="1042" y="1629"/>
      <point x="1164" y="1594"/>
      <point x="1254" y="1544" type="curve" smooth="yes"/>
      <point x="1275" y="1532"/>
      <point x="1289" y="1525"/>
      <point x="1297" y="1522" type="curve"/>
      <point x="1191" y="1265" type="line"/>
      <point x="1187" y="1266"/>
      <point x="1176" y="1270"/>
      <point x="1158" y="1280" type="curve" smooth="yes"/>
      <point x="1084" y="1319"/>
      <point x="980" y="1356"/>
      <point x="864" y="1356" type="curve" smooth="yes"/>
      <point x="703" y="1356"/>
      <point x="603" y="1256"/>
      <point x="538" y="1144" type="curve" smooth="yes"/>
      <point x="459" y="1008"/>
      <point x="419" y="813"/>
      <point x="419" y="595" type="curve" smooth="yes"/>
      <point x="419" y="353"/>
      <point x="513" y="232"/>
      <point x="701" y="232" type="curve" smooth="yes"/>
      <point x="841" y="232"/>
      <point x="955" y="290"/>
      <point x="1042" y="341" type="curve"/>
      <point x="1097" y="94" type="line"/>
      <point x="993" y="12"/>
      <point x="835" y="-38"/>
    </contour>
  </outline>
</glyph>
<glyph name="uni04AC" format="1">
  <advance width="1182"/>
  <unicode hex="04AC"/>
  <outline>
    <contour>
      <point x="762" y="-408" type="line"/>
      <point x="540" y="-408" type="line"/>
      <point x="603" y="36" type="line"/>
      <point x="825" y="36" type="line"/>
    </contour>
    <contour>
      <point x="1255" y="1372" type="line"/>
      <point x="868" y="1372" type="line"/>
      <point x="655" y="0" type="line"/>
      <point x="346" y="0" type="line"/>
      <point x="558" y="1372" type="line"/>
      <point x="147" y="1372" type="line"/>
      <point x="180" y="1606" type="line"/>
      <point x="1289" y="1606" type="line"/>
    </contour>
  </outline>
</glyph>
<glyph name="uni04AD" format="1">
  <advance width="1133"/>
  <unicode hex="04AD"/>
  <outline>
    <contour>
      <point x="756" y="-408" type="line"/>
      <point x="534" y="-408" type="line"/>
      <point x="597" y="36" type="line"/>
      <point x="819" y="36" type="line"/>
    </contour>
    <contour>
      <point x="1124" y="877" type="line"/>
      <point x="757" y="877" type="line"/>
      <point x="629" y="0" type="line"/>
      <point x="324" y="0" type="line"/>
      <point x="452" y="877" type="line"/>
      <point x="66" y="877" type="line"/>
      <point x="101" y="1127" type="line"/>
      <point x="1159" y="1127" type="line"/>
    </contour>
  </outline>
</glyph>
<glyph name="uni04AF" format="1">
  <advance width="1110"/>
  <unicode hex="04AF"/>
  <outline>
    <contour>
      <point x="615" y="0" type="line"/>
      <point x="291" y="0" type="line"/>
      <point x="336" y="337" type="line"/>
      <point x="56" y="1127" type="line"/>
      <point x="444" y="1127" type="line"/>
      <point x="542" y="636" type="line"/>
      <point x="796" y="1127" type="line"/>
      <point x="1184" y="1127" type="line"/>
      <point x="662" y="337" type="line"/>
    </contour>
  </outline>
</glyph>
<glyph name="uni04B3" format="1">
  <advance width="1125"/>
  <unicode hex="04B3"/>
  <outline>
    <contour>
      <point x="979" y="-408" type="line"/>
      <point x="757" y="-408" type="line"/>
      <point x="820" y="36" type="line"/>
      <point x="1042" y="36" type="line"/>
    </contour>
    <contour>
      <point x="468" y="341" type="line"/>
      <point x="249" y="0" type="line"/>
      <point x="-59" y="0" type="line"/>
      <point x="347" y="567" type="line"/>
      <point x="85" y="1127" type="line"/>
      <point x="398" y="1127" type="line"/>
      <point x="531" y="804" type="line"/>
      <point x="751" y="1127" type="line"/>
      <point x="1059" y="1127" type="line"/>
      <point x="652" y="567" type="line"/>
      <point x="904" y="0" type="line"/>
      <point x="601" y="0" type="line"/>
    </contour>
  </outline>
</glyph>
<glyph name="uni04B6" format="1">
  <advance width="1331"/>
  <unicode hex="04B6"/>
  <outline>
    <contour>
      <point x="1133" y="-408" type="line"/>
      <point x="911" y="-408" type="line"/>
      <point x="974" y="36" type="line"/>
      <point x="1196" y="36" type="line"/>
    </contour>
    <contour>
      <point x="801" y="536" type="line"/>
      <point x="719" y="446"/>
      <point x="621" y="389"/>
      <point x="459" y="389" type="curve" smooth="yes"/>
      <point x="183" y="389"/>
      <point x="76" y="577"/>
      <point x="126" y="864" type="curve"/>
      <point x="236" y="1606" type="line"/>
      <point x="551" y="1606" type="line"/>
      <point x="438" y="844" type="line" smooth="yes"/>
      <point x="420" y="726"/>
      <point x="465" y="617"/>
      <point x="581" y="617" type="curve" smooth="yes"/>
      <point x="671" y="617"/>
      <point x="731" y="635"/>
      <point x="781" y="672" type="curve" smooth="yes"/>
      <point x="796" y="683"/>
      <point x="811" y="694"/>
      <point x="826" y="706" type="curve"/>
      <point x="960" y="1606" type="line"/>
      <point x="1271" y="1606" type="line"/>
      <point x="1031" y="0" type="line"/>
      <point x="720" y="0" type="line"/>
    </contour>
  </outline>
</glyph>
<glyph name="uni04B7" format="1">
  <advance width="1175"/>
  <unicode hex="04B7"/>
  <outline>
    <contour>
      <point x="1028" y="-408" type="line"/>
      <point x="806" y="-408" type="line"/>
      <point x="869" y="36" type="line"/>
      <point x="1091" y="36" type="line"/>
    </contour>
    <contour>
      <point x="377" y="691" type="curve" smooth="yes"/>
      <point x="377" y="602"/>
      <point x="413" y="553"/>
      <point x="503" y="553" type="curve" smooth="yes"/>
      <point x="541" y="553"/>
      <point x="575" y="561"/>
      <point x="604" y="578" type="curve" smooth="yes"/>
      <point x="633" y="595"/>
      <point x="665" y="617"/>
      <point x="698" y="646" type="curve"/>
      <point x="767" y="1127" type="line"/>
      <point x="1072" y="1127" type="line"/>
      <point x="909" y="0" type="line"/>
      <point x="604" y="0" type="line"/>
      <point x="673" y="480" type="line"/>
      <point x="626" y="380"/>
      <point x="526" y="300"/>
      <point x="382" y="300" type="curve" smooth="yes"/>
      <point x="232" y="300"/>
      <point x="143" y="391"/>
      <point x="100" y="506" type="curve" smooth="yes"/>
      <point x="82" y="554"/>
      <point x="73" y="611"/>
      <point x="73" y="677" type="curve" smooth="yes"/>
      <point x="73" y="712"/>
      <point x="76" y="751"/>
      <point x="82" y="793" type="curve" smooth="yes"/>
      <point x="131" y="1127" type="line"/>
      <point x="435" y="1127" type="line"/>
      <point x="383" y="764" type="line" smooth="yes"/>
      <point x="379" y="738"/>
      <point x="377" y="714"/>
    </contour>
  </outline>
</glyph>
<glyph name="uni04BC" format="1">
  <advance width="1933"/>
  <unicode hex="04BC"/>
  <outline>
    <contour>
      <point x="504" y="464" type="curve" smooth="yes"/>
      <point x="474" y="663"/>
      <point x="514" y="919"/>
      <point x="572" y="1070" type="curve" smooth="yes"/>
      <point x="656" y="1287"/>
      <point x="800" y="1455"/>
      <point x="994" y="1557" type="curve" smooth="yes"/>
      <point x="1099" y="1612"/>
      <point x="1220" y="1644"/>
      <point x="1357" y="1658" type="curve"/>
      <point x="1739" y="1617"/>
      <point x="1981" y="1394"/>
      <point x="1919" y="938" type="curve" smooth="yes"/>
      <point x="1908" y="865"/>
      <point x="1889" y="788"/>
      <point x="1862" y="705" type="curve"/>
      <point x="891" y="705" type="line"/>
      <point x="867" y="401"/>
      <point x="966" y="249"/>
      <point x="1187" y="249" type="curve" smooth="yes"/>
      <point x="1312" y="249"/>
      <point x="1433" y="287"/>
      <point x="1548" y="362" type="curve"/>
      <point x="1615" y="83" type="line"/>
      <point x="1567" y="43"/>
      <point x="1484" y="16"/>
      <point x="1407" y="-2" type="curve" smooth="yes"/>
      <point x="1320" y="-23"/>
      <point x="1212" y="-37"/>
      <point x="1107" y="-37" type="curve" smooth="yes"/>
      <point x="748" y="-37"/>
      <point x="551" y="152"/>
    </contour>
    <contour>
      <point x="1579" y="950" type="line"/>
      <point x="1585" y="972"/>
      <point x="1589" y="993"/>
      <point x="1593" y="1017" type="curve"/>
      <point x="1620" y="1223"/>
      <point x="1530" y="1364"/>
      <point x="1333" y="1364" type="curve" smooth="yes"/>
      <point x="1167" y="1364"/>
      <point x="1050" y="1268"/>
      <point x="984" y="1160" type="curve" smooth="yes"/>
      <point x="949" y="1102"/>
      <point x="928" y="1036"/>
      <point x="928" y="950" type="curve"/>
    </contour>
    <contour>
      <point x="463" y="1202" type="line"/>
      <point x="407" y="1202"/>
      <point x="370" y="1167"/>
      <point x="349" y="1131" type="curve" smooth="yes"/>
      <point x="318" y="1080"/>
      <point x="338" y="1023"/>
      <point x="378" y="994" type="curve" smooth="yes"/>
      <point x="422" y="962"/>
      <point x="486" y="949"/>
      <point x="569" y="949" type="curve"/>
      <point x="532" y="708" type="line"/>
      <point x="373" y="708"/>
      <point x="249" y="749"/>
      <point x="169" y="821" type="curve" smooth="yes"/>
      <point x="110" y="875"/>
      <point x="65" y="956"/>
      <point x="80" y="1062" type="curve" smooth="yes"/>
      <point x="100" y="1202"/>
      <point x="204" y="1290"/>
      <point x="325" y="1333" type="curve" smooth="yes"/>
      <point x="372" y="1350"/>
      <point x="426" y="1358"/>
      <point x="485" y="1358" type="curve"/>
    </contour>
  </outline>
</glyph>
<glyph name="uni04BD" format="1">
  <advance width="1380"/>
  <unicode hex="04BD"/>
  <outline>
    <contour>
      <point x="379" y="936" type="line"/>
      <point x="295" y="936"/>
      <point x="211" y="879"/>
      <point x="250" y="790" type="curve" smooth="yes"/>
      <point x="281" y="720"/>
      <point x="381" y="696"/>
      <point x="487" y="696" type="curve"/>
      <point x="458" y="512" type="line"/>
      <point x="314" y="512"/>
      <point x="202" y="547"/>
      <point x="130" y="613" type="curve" smooth="yes"/>
      <point x="76" y="662"/>
      <point x="38" y="734"/>
      <point x="51" y="830" type="curve" smooth="yes"/>
      <point x="68" y="952"/>
      <point x="158" y="1032"/>
      <point x="263" y="1070" type="curve" smooth="yes"/>
      <point x="304" y="1085"/>
      <point x="350" y="1092"/>
      <point x="401" y="1092" type="curve"/>
    </contour>
    <contour>
      <point x="682" y="653" type="curve"/>
      <point x="788" y="655"/>
      <point x="873" y="659"/>
      <point x="954" y="674" type="curve" smooth="yes"/>
      <point x="998" y="682"/>
      <point x="1033" y="690"/>
      <point x="1056" y="710" type="curve" smooth="yes"/>
      <point x="1067" y="720"/>
      <point x="1071" y="729"/>
      <point x="1071" y="745" type="curve" smooth="yes"/>
      <point x="1071" y="872"/>
      <point x="1020" y="936"/>
      <point x="918" y="935" type="curve" smooth="yes"/>
      <point x="765" y="935"/>
      <point x="702" y="788"/>
    </contour>
    <contour>
      <point x="885" y="199" type="curve" smooth="yes"/>
      <point x="1009" y="199"/>
      <point x="1099" y="238"/>
      <point x="1178" y="292" type="curve"/>
      <point x="1211" y="78" type="line"/>
      <point x="1086" y="15"/>
      <point x="958" y="-16"/>
      <point x="829" y="-17" type="curve"/>
      <point x="598" y="-15"/>
      <point x="437" y="73"/>
      <point x="368" y="238" type="curve" smooth="yes"/>
      <point x="345" y="293"/>
      <point x="333" y="357"/>
      <point x="333" y="428" type="curve" smooth="yes"/>
      <point x="333" y="756"/>
      <point x="482" y="989"/>
      <point x="708" y="1094" type="curve" smooth="yes"/>
      <point x="785" y="1130"/>
      <point x="871" y="1147"/>
      <point x="965" y="1145" type="curve"/>
      <point x="1210" y="1145"/>
      <point x="1328" y="992"/>
      <point x="1328" y="749" type="curve" smooth="yes"/>
      <point x="1328" y="682"/>
      <point x="1289" y="643"/>
      <point x="1243" y="609" type="curve" smooth="yes"/>
      <point x="1171" y="555"/>
      <point x="1064" y="529"/>
      <point x="940" y="511" type="curve" smooth="yes"/>
      <point x="864" y="500"/>
      <point x="771" y="494"/>
      <point x="660" y="493" type="curve"/>
      <point x="658" y="474"/>
      <point x="656" y="456"/>
      <point x="656" y="436" type="curve" smooth="yes"/>
      <point x="656" y="289"/>
      <point x="738" y="199"/>
    </contour>
  </outline>
</glyph>
<glyph name="uni04C6" format="1">
  <advance width="1480"/>
  <unicode hex="04C6"/>
  <outline>
    <contour>
      <point x="1342" y="-408" type="line"/>
      <point x="1120" y="-408" type="line"/>
      <point x="1183" y="36" type="line"/>
      <point x="1405" y="36" type="line"/>
    </contour>
    <contour>
      <point x="1200" y="0" type="line"/>
      <point x="895" y="0" type="line"/>
      <point x="1022" y="877" type="line"/>
      <point x="722" y="877" type="line"/>
      <point x="644" y="572" type="line"/>
      <point x="588" y="349"/>
      <point x="506" y="166"/>
      <point x="318" y="75" type="curve" smooth="yes"/>
      <point x="215" y="25"/>
      <point x="87" y="2"/>
      <point x="-71" y="2" type="curve"/>
      <point x="-25" y="328" type="line"/>
      <point x="188" y="328"/>
      <point x="292" y="404"/>
      <point x="337" y="577" type="curve"/>
      <point x="478" y="1127" type="line"/>
      <point x="1363" y="1127" type="line"/>
    </contour>
  </outline>
</glyph>
<glyph name="uni04C9" format="1">
  <advance width="1559"/>
  <unicode hex="04C9"/>
  <outline>
    <contour>
      <point x="1357" y="-408" type="line"/>
      <point x="1135" y="-408" type="line"/>
      <point x="1198" y="36" type="line"/>
      <point x="1420" y="36" type="line"/>
    </contour>
    <contour>
      <point x="953" y="0" type="line"/>
      <point x="1062" y="724" type="line"/>
      <point x="480" y="724" type="line"/>
      <point x="373" y="0" type="line"/>
      <point x="57" y="0" type="line"/>
      <point x="297" y="1606" type="line"/>
      <point x="612" y="1606" type="line"/>
      <point x="514" y="951" type="line"/>
      <point x="1093" y="951" type="line"/>
      <point x="1193" y="1606" type="line"/>
      <point x="1504" y="1606" type="line"/>
      <point x="1264" y="0" type="line"/>
    </contour>
  </outline>
</glyph>
<glyph name="uni04CD" format="1">
  <advance width="1830"/>
  <unicode hex="04CD"/>
  <outline>
    <contour>
      <point x="1685" y="-408" type="line"/>
      <point x="1463" y="-408" type="line"/>
      <point x="1526" y="36" type="line"/>
      <point x="1748" y="36" type="line"/>
    </contour>
    <contour>
      <point x="677" y="0" type="line"/>
      <point x="627" y="307" type="line"/>
      <point x="514" y="1159" type="line"/>
      <point x="348" y="0" type="line"/>
      <point x="63" y="0" type="line"/>
      <point x="119" y="396"/>
      <point x="173" y="780"/>
      <point x="229" y="1176" type="curve"/>
      <point x="298" y="1606" type="line"/>
      <point x="685" y="1606" type="line"/>
      <point x="752" y="1173" type="line"/>
      <point x="836" y="561" type="line"/>
      <point x="862" y="310" type="line"/>
      <point x="972" y="623"/>
      <point x="1105" y="913"/>
      <point x="1227" y="1214" type="curve"/>
      <point x="1398" y="1606" type="line"/>
      <point x="1786" y="1606" type="line"/>
      <point x="1726" y="1063" type="line"/>
      <point x="1574" y="0" type="line"/>
      <point x="1287" y="0" type="line"/>
      <point x="1451" y="1163" type="line"/>
      <point x="1076" y="233" type="line"/>
      <point x="969" y="0" type="line"/>
    </contour>
  </outline>
</glyph>
<glyph name="uni04CE" format="1">
  <advance width="1774"/>
  <unicode hex="04CE"/>
  <outline>
    <contour>
      <point x="1622" y="-408" type="line"/>
      <point x="1400" y="-408" type="line"/>
      <point x="1463" y="36" type="line"/>
      <point x="1685" y="36" type="line"/>
    </contour>
    <contour>
      <point x="1672" y="1127" type="line"/>
      <point x="1508" y="0" type="line"/>
      <point x="1204" y="0" type="line"/>
      <point x="1310" y="739" type="line"/>
      <point x="930" y="0" type="line"/>
      <point x="594" y="0" type="line"/>
      <point x="440" y="739" type="line"/>
      <point x="333" y="0" type="line"/>
      <point x="28" y="0" type="line"/>
      <point x="192" y="1127" type="line"/>
      <point x="633" y="1127" type="line"/>
      <point x="805" y="337" type="line"/>
      <point x="1196" y="1127" type="line"/>
    </contour>
  </outline>
</glyph>
<glyph name="uni04D8" format="1">
  <advance width="1525"/>
  <unicode hex="04D8"/>
  <outline>
    <contour>
      <point x="1472" y="1158" type="curve" smooth="yes"/>
      <point x="1502" y="959"/>
      <point x="1462" y="703"/>
      <point x="1404" y="552" type="curve" smooth="yes"/>
      <point x="1320" y="335"/>
      <point x="1176" y="166"/>
      <point x="982" y="64" type="curve" smooth="yes"/>
      <point x="881" y="11"/>
      <point x="761" y="-28"/>
      <point x="620" y="-28" type="curve" smooth="yes"/>
      <point x="356" y="-28"/>
      <point x="179" y="103"/>
      <point x="98" y="289" type="curve" smooth="yes"/>
      <point x="51" y="396"/>
      <point x="36" y="528"/>
      <point x="57" y="683" type="curve" smooth="yes"/>
      <point x="68" y="755"/>
      <point x="87" y="833"/>
      <point x="114" y="916" type="curve"/>
      <point x="1085" y="916" type="line"/>
      <point x="1108" y="1220"/>
      <point x="1010" y="1372"/>
      <point x="789" y="1372" type="curve" smooth="yes"/>
      <point x="664" y="1372"/>
      <point x="543" y="1334"/>
      <point x="428" y="1259" type="curve"/>
      <point x="361" y="1538" type="line"/>
      <point x="409" y="1578"/>
      <point x="492" y="1604"/>
      <point x="569" y="1622" type="curve" smooth="yes"/>
      <point x="656" y="1643"/>
      <point x="764" y="1658"/>
      <point x="870" y="1658" type="curve" smooth="yes"/>
      <point x="1228" y="1658"/>
      <point x="1425" y="1469"/>
    </contour>
    <contour>
      <point x="1048" y="671" type="curve"/>
      <point x="397" y="671" type="line"/>
      <point x="391" y="649"/>
      <point x="387" y="628"/>
      <point x="383" y="604" type="curve"/>
      <point x="356" y="398"/>
      <point x="446" y="257"/>
      <point x="643" y="257" type="curve" smooth="yes"/>
      <point x="809" y="257"/>
      <point x="926" y="354"/>
      <point x="992" y="462" type="curve" smooth="yes"/>
      <point x="1027" y="520"/>
      <point x="1048" y="585"/>
    </contour>
  </outline>
</glyph>
<glyph name="uni04E1" format="1">
  <advance width="1016"/>
  <unicode hex="04E1"/>
  <outline>
    <contour>
      <point x="0" y="44" type="line"/>
      <point x="75" y="16"/>
      <point x="165" y="-18"/>
      <point x="272" y="-18" type="curve" smooth="yes"/>
      <point x="371" y="-18"/>
      <point x="441" y="45"/>
      <point x="476" y="111" type="curve" smooth="yes"/>
      <point x="497" y="151"/>
      <point x="511" y="199"/>
      <point x="492" y="248" type="curve" smooth="yes"/>
      <point x="460" y="331"/>
      <point x="347" y="356"/>
      <point x="226" y="356" type="curve"/>
      <point x="257" y="574" type="line"/>
      <point x="508" y="844" type="line"/>
      <point x="89" y="844" type="line"/>
      <point x="128" y="1125" type="line"/>
      <point x="963" y="1125" type="line"/>
      <point x="927" y="871" type="line"/>
      <point x="576" y="557" type="line"/>
      <point x="718" y="516"/>
      <point x="829" y="426"/>
      <point x="860" y="280" type="curve" smooth="yes"/>
      <point x="884" y="165"/>
      <point x="853" y="76"/>
      <point x="806" y="-6" type="curve" smooth="yes"/>
      <point x="741" y="-120"/>
      <point x="631" y="-205"/>
      <point x="494" y="-255" type="curve" smooth="yes"/>
      <point x="421" y="-282"/>
      <point x="338" y="-295"/>
      <point x="245" y="-295" type="curve" smooth="yes"/>
      <point x="100" y="-295"/>
      <point x="-33" y="-275"/>
      <point x="-128" y="-228" type="curve"/>
    </contour>
  </outline>
</glyph>
<glyph name="uni04F6" format="1">
  <advance width="1073"/>
  <unicode hex="04F6"/>
  <outline>
    <contour>
      <point x="486" y="-408" type="line"/>
      <point x="264" y="-408" type="line"/>
      <point x="327" y="36" type="line"/>
      <point x="549" y="36" type="line"/>
    </contour>
    <contour>
      <point x="1194" y="1606" type="line"/>
      <point x="1164" y="1387" type="line"/>
      <point x="580" y="1387" type="line"/>
      <point x="374" y="0" type="line"/>
      <point x="57" y="0" type="line"/>
      <point x="298" y="1606" type="line"/>
    </contour>
  </outline>
</glyph>
<glyph name="uni04F7" format="1">
  <advance width="939"/>
  <unicode hex="04F7"/>
  <outline>
    <contour>
      <point x="459" y="-408" type="line"/>
      <point x="237" y="-408" type="line"/>
      <point x="300" y="36" type="line"/>
      <point x="522" y="36" type="line"/>
    </contour>
    <contour>
      <point x="28" y="0" type="line"/>
      <point x="192" y="1127" type="line"/>
      <point x="971" y="1127" type="line"/>
      <point x="936" y="877" type="line"/>
      <point x="460" y="877" type="line"/>
      <point x="333" y="0" type="line"/>
    </contour>
  </outline>
</glyph>
<glyph name="uni2010" format="1">
  <advance width="1101"/>
  <unicode hex="2010"/>
  <outline>
    <contour>
      <point x="932" y="605" type="line"/>
      <point x="129" y="605" type="line"/>
      <point x="153" y="831" type="line"/>
      <point x="956" y="831" type="line"/>
    </contour>
  </outline>
</glyph>
<glyph name="endash" format="1">
  <advance width="1059"/>
  <unicode hex="2013"/>
  <outline>
    <contour>
      <point x="150" y="605" type="line"/>
      <point x="143" y="831" type="line"/>
      <point x="918" y="831" type="line"/>
      <point x="926" y="605" type="line"/>
    </contour>
  </outline>
</glyph>
<glyph name="afii00208" format="1">
  <advance width="2102"/>
  <unicode hex="2015"/>
  <outline>
    <contour>
      <point x="150" y="605" type="line"/>
      <point x="143" y="831" type="line"/>
      <point x="1961" y="831" type="line"/>
      <point x="1968" y="605" type="line"/>
    </contour>
  </outline>
</glyph>
<glyph name="quoteright" format="1">
  <advance width="585"/>
  <unicode hex="2019"/>
  <outline>
    <contour>
      <point x="179" y="1195" type="line"/>
      <point x="222" y="1617" type="line"/>
      <point x="621" y="1617" type="line"/>
      <point x="576" y="1197" type="line"/>
      <point x="554" y="1010"/>
      <point x="445" y="894"/>
      <point x="284" y="851" type="curve"/>
      <point x="204" y="973" type="line"/>
      <point x="218" y="978"/>
      <point x="237" y="1000"/>
      <point x="250" y="1014" type="curve" smooth="yes"/>
      <point x="286" y="1052"/>
      <point x="325" y="1098"/>
      <point x="349" y="1148" type="curve" smooth="yes"/>
      <point x="357" y="1164"/>
      <point x="362" y="1180"/>
      <point x="363" y="1195" type="curve"/>
    </contour>
  </outline>
</glyph>
<glyph name="quotedblleft" format="1">
  <advance width="1064"/>
  <unicode hex="201C"/>
  <outline>
    <contour>
      <point x="1046" y="1307" type="line"/>
      <point x="1002" y="886" type="line"/>
      <point x="603" y="886" type="line"/>
      <point x="647" y="1305" type="line" smooth="yes"/>
      <point x="667" y="1494"/>
      <point x="779" y="1607"/>
      <point x="940" y="1650" type="curve"/>
      <point x="1020" y="1529" type="line"/>
      <point x="968" y="1485"/>
      <point x="912" y="1430"/>
      <point x="879" y="1367" type="curve" smooth="yes"/>
      <point x="868" y="1346"/>
      <point x="862" y="1326"/>
      <point x="861" y="1307" type="curve"/>
    </contour>
    <contour>
      <point x="600" y="1307" type="line"/>
      <point x="557" y="886" type="line"/>
      <point x="157" y="886" type="line"/>
      <point x="201" y="1305" type="line"/>
      <point x="223" y="1493"/>
      <point x="333" y="1607"/>
      <point x="494" y="1650" type="curve"/>
      <point x="575" y="1529" type="line"/>
      <point x="521" y="1487"/>
      <point x="466" y="1430"/>
      <point x="434" y="1367" type="curve" smooth="yes"/>
      <point x="424" y="1346"/>
      <point x="417" y="1326"/>
      <point x="416" y="1307" type="curve"/>
    </contour>
  </outline>
</glyph>
<glyph name="quotedblbase" format="1">
  <advance width="1102"/>
  <unicode hex="201E"/>
  <outline>
    <contour>
      <point x="31" y="-1" type="line"/>
      <point x="87" y="421" type="line"/>
      <point x="487" y="421" type="line"/>
      <point x="429" y="1" type="line" smooth="yes"/>
      <point x="403" y="-186"/>
      <point x="293" y="-300"/>
      <point x="130" y="-345" type="curve"/>
      <point x="51" y="-224" type="line"/>
      <point x="65" y="-219"/>
      <point x="82" y="-197"/>
      <point x="96" y="-184" type="curve" smooth="yes"/>
      <point x="134" y="-147"/>
      <point x="175" y="-98"/>
      <point x="200" y="-48" type="curve" smooth="yes"/>
      <point x="208" y="-31"/>
      <point x="214" y="-16"/>
      <point x="216" y="-1" type="curve"/>
    </contour>
    <contour>
      <point x="477" y="-1" type="line"/>
      <point x="533" y="421" type="line"/>
      <point x="932" y="421" type="line"/>
      <point x="875" y="1" type="line"/>
      <point x="851" y="-187"/>
      <point x="737" y="-300"/>
      <point x="575" y="-345" type="curve"/>
      <point x="496" y="-224" type="line"/>
      <point x="510" y="-219"/>
      <point x="528" y="-197"/>
      <point x="542" y="-184" type="curve" smooth="yes"/>
      <point x="580" y="-147"/>
      <point x="621" y="-98"/>
      <point x="646" y="-48" type="curve" smooth="yes"/>
      <point x="654" y="-31"/>
      <point x="660" y="-16"/>
      <point x="662" y="-1" type="curve"/>
    </contour>
  </outline>
</glyph>
<glyph name="daggerdbl" format="1">
  <advance width="1048"/>
  <unicode hex="2021"/>
  <outline>
    <contour>
      <point x="637" y="458" type="line"/>
      <point x="615" y="307"/>
      <point x="593" y="152"/>
      <point x="573" y="0" type="curve"/>
      <point x="293" y="0" type="line"/>
      <point x="358" y="458" type="line"/>
      <point x="71" y="458" type="line"/>
      <point x="109" y="683" type="line"/>
      <point x="388" y="683" type="line"/>
      <point x="435" y="1022" type="line"/>
      <point x="156" y="1022" type="line"/>
      <point x="196" y="1246" type="line"/>
      <point x="466" y="1246" type="line"/>
      <point x="505" y="1524" type="line"/>
      <point x="782" y="1524" type="line"/>
      <point x="743" y="1244" type="line"/>
      <point x="1035" y="1244" type="line"/>
      <point x="996" y="1022" type="line"/>
      <point x="713" y="1022" type="line"/>
      <point x="666" y="681" type="line"/>
      <point x="948" y="681" type="line"/>
      <point x="909" y="458" type="line"/>
    </contour>
  </outline>
</glyph>
<glyph name="ellipsis" format="1">
  <advance width="1397"/>
  <unicode hex="2026"/>
  <outline>
    <contour>
      <point x="223" y="353" type="curve"/>
      <point x="304" y="347"/>
      <point x="354" y="282"/>
      <point x="357" y="198" type="curve" smooth="yes"/>
      <point x="357" y="183"/>
      <point x="355" y="170"/>
      <point x="354" y="156" type="curve"/>
      <point x="337" y="82"/>
      <point x="284" y="28"/>
      <point x="219" y="2" type="curve" smooth="yes"/>
      <point x="197" y="-7"/>
      <point x="174" y="-11"/>
      <point x="150" y="-11" type="curve"/>
      <point x="71" y="-5"/>
      <point x="20" y="60"/>
      <point x="16" y="143" type="curve"/>
      <point x="16" y="206"/>
      <point x="43" y="259"/>
      <point x="73" y="295" type="curve"/>
      <point x="110" y="326"/>
      <point x="160" y="353"/>
    </contour>
    <contour>
      <point x="660" y="353" type="curve"/>
      <point x="741" y="347"/>
      <point x="791" y="282"/>
      <point x="794" y="198" type="curve" smooth="yes"/>
      <point x="794" y="183"/>
      <point x="792" y="170"/>
      <point x="791" y="156" type="curve"/>
      <point x="774" y="83"/>
      <point x="721" y="27"/>
      <point x="656" y="2" type="curve" smooth="yes"/>
      <point x="634" y="-7"/>
      <point x="610" y="-11"/>
      <point x="587" y="-11" type="curve"/>
      <point x="507" y="-5"/>
      <point x="456" y="59"/>
      <point x="453" y="143" type="curve"/>
      <point x="454" y="205"/>
      <point x="479" y="258"/>
      <point x="510" y="295" type="curve"/>
      <point x="547" y="326"/>
      <point x="596" y="353"/>
    </contour>
    <contour>
      <point x="1098" y="353" type="curve"/>
      <point x="1179" y="347"/>
      <point x="1228" y="282"/>
      <point x="1231" y="198" type="curve" smooth="yes"/>
      <point x="1231" y="183"/>
      <point x="1229" y="170"/>
      <point x="1228" y="156" type="curve"/>
      <point x="1211" y="82"/>
      <point x="1158" y="28"/>
      <point x="1093" y="2" type="curve" smooth="yes"/>
      <point x="1071" y="-7"/>
      <point x="1048" y="-11"/>
      <point x="1024" y="-11" type="curve"/>
      <point x="945" y="-5"/>
      <point x="894" y="59"/>
      <point x="891" y="143" type="curve"/>
      <point x="893" y="205"/>
      <point x="916" y="258"/>
      <point x="947" y="295" type="curve"/>
      <point x="984" y="326"/>
      <point x="1034" y="353"/>
    </contour>
  </outline>
</glyph>
